<svg width="47" height="48" viewBox="0 0 47 48" fill="none" xmlns="http://www.w3.org/2000/svg">
<path fill-rule="evenodd" clip-rule="evenodd" d="M12.8657 0.112416C9.40114 0.547061 6.53916 3.58958 7.14168 7.50138C7.7442 10.8337 10.9075 13.5864 15.1251 12.862C18.2884 12.2825 21.301 9.23996 20.6985 5.47304C20.0959 2.28564 16.9327 -0.611993 12.8657 0.112416ZM6.99105 28.3643C6.38853 27.9297 5.33411 26.7706 5.18348 25.7565C4.73159 24.1628 5.33411 23.1486 6.08727 22.2793L6.99105 28.3643ZM40.883 22.1344C41.6361 23.0037 42.088 24.3077 41.7868 25.6116C41.4855 26.6258 40.5817 27.9297 39.8286 28.2195L40.883 22.1344ZM39.0754 34.3045C39.5273 34.0147 40.883 33.5801 42.3893 32.5659C45.5525 30.3927 47.6614 26.6258 46.4563 22.5691C45.2513 18.0777 40.2805 14.7455 34.5565 14.6006C31.2426 14.4557 27.7781 14.6006 24.4642 14.6006C21.1503 14.6006 17.6858 14.6006 14.372 14.6006C10.9075 14.6006 8.79862 14.8903 5.93664 16.1943C1.26708 18.6573 -1.74554 24.1628 1.11645 28.9439C2.62276 31.4069 4.58096 32.8557 7.29231 34.0147C7.74421 34.1596 7.7442 34.1596 7.89484 34.7391L9.40114 45.4604C9.70241 47.6336 9.40114 47.9234 11.8112 47.9234C17.0833 47.9234 17.3846 48.5029 17.9871 46.4746C20.8491 37.7817 22.0541 28.2195 22.3554 19.0919H24.163C24.4642 28.2195 25.5186 35.4635 27.7781 43.8667C28.9832 48.358 28.8325 47.7785 31.092 47.7785C32.297 47.7785 33.5021 47.7785 34.7071 47.7785C36.2134 47.7785 36.816 47.9234 36.9666 46.4746C37.8704 42.5628 38.1716 38.2163 39.0754 34.3045ZM31.8451 0.112416C28.5313 0.691943 25.6693 3.73446 26.2718 7.50138C26.8743 10.8337 30.0376 13.5864 34.1046 12.862C37.4185 12.2825 40.2805 9.23996 39.6779 5.32816C39.0754 2.28564 35.9122 -0.611993 31.8451 0.112416Z" fill="#1778F2"/>
</svg>
