<svg width="38" height="38" viewBox="0 0 38 38" fill="none" xmlns="http://www.w3.org/2000/svg">
<path fill-rule="evenodd" clip-rule="evenodd" d="M13.1617 5.70532C11.311 5.94981 9.7822 7.66123 10.1041 9.86162C10.4259 11.736 12.1157 13.2844 14.3687 12.877C16.0585 12.551 17.6678 10.8396 17.3459 8.72067C17.0241 6.92776 15.3343 5.29784 13.1617 5.70532ZM10.0236 21.597C9.70174 21.3525 9.13848 20.7006 9.05802 20.1301C8.81662 19.2336 9.13848 18.6632 9.54081 18.1742L10.0236 21.597ZM28.1283 18.0927C28.5306 18.5817 28.772 19.3151 28.6111 20.0486C28.4501 20.6191 27.9673 21.3525 27.565 21.5155L28.1283 18.0927ZM27.1627 24.9384C27.4041 24.7754 28.1283 24.5309 28.9329 23.9604C30.6227 22.738 31.7492 20.6191 31.1055 18.3372C30.4618 15.8108 27.8064 13.9364 24.7487 13.8549C22.9785 13.7734 21.1278 13.8549 19.3576 13.8549C17.5873 13.8549 15.7366 13.8549 13.9664 13.8549C12.1157 13.8549 10.9892 14.0179 9.46034 14.7514C6.96592 16.1368 5.35662 19.2336 6.88546 21.923C7.69011 23.3084 8.73616 24.1234 10.1845 24.7754C10.4259 24.8569 10.4259 24.8569 10.5064 25.1829L11.311 31.2136C11.472 32.436 11.311 32.599 12.5985 32.599C15.4148 32.599 15.5757 32.925 15.8976 31.784C17.4264 26.8943 18.0701 21.5155 18.231 16.3813H19.1966C19.3576 21.5155 19.9208 25.5903 21.1278 30.3171C21.7715 32.8435 21.691 32.5175 22.898 32.5175C23.5417 32.5175 24.1855 32.5175 24.8292 32.5175C25.6338 32.5175 25.9557 32.599 26.0362 31.784C26.519 29.5836 26.6799 27.1388 27.1627 24.9384ZM23.3004 5.70532C21.5301 6.03131 20.0013 7.74272 20.3231 9.86162C20.645 11.736 22.3348 13.2844 24.5073 12.877C26.2776 12.551 27.8064 10.8396 27.4845 8.63918C27.1627 6.92776 25.4729 5.29784 23.3004 5.70532Z" fill="white"/>
</svg>
