<svg width="41" height="39" viewBox="0 0 41 39" fill="none" xmlns="http://www.w3.org/2000/svg">
<path d="M40.0893 12.991L38.4119 22.6142C38.205 23.6772 37.358 24.3236 36.3813 24.3357H11.926L11.4405 27.0726H34.748C35.9753 27.1659 36.8078 28.0353 36.8228 29.1473C36.7335 30.372 35.8642 31.2068 34.748 31.222H8.96847C7.57424 31.0966 6.74287 29.9852 6.89374 28.75L7.99731 22.7465L6.31987 5.88385L1.55244 4.38309C0.387405 3.92052 -0.0880952 2.86659 0.184005 1.77865C0.636438 0.64482 1.72054 0.126786 2.78844 0.410219L8.88017 2.35252C9.70084 2.66015 10.1729 3.33192 10.2927 4.11825L10.6459 7.47312L38.2794 10.5631C39.5491 10.8382 40.2384 11.8439 40.0893 12.991ZM15.2851 35.5783C15.2851 37.3275 13.8671 38.7455 12.1178 38.7455C10.3686 38.7455 8.95061 37.3275 8.95061 35.5783C8.95061 33.829 10.3686 32.411 12.1178 32.411C13.8671 32.411 15.2851 33.8291 15.2851 35.5783ZM34.1935 35.5783C34.1935 37.3275 32.7755 38.7455 31.0262 38.7455C29.277 38.7455 27.859 37.3275 27.859 35.5783C27.859 33.829 29.277 32.411 31.0262 32.411C32.7755 32.411 34.1935 33.8291 34.1935 35.5783Z" fill="#0088DF"/>
</svg>
