<svg width="37" height="39" viewBox="0 0 37 39" fill="none" xmlns="http://www.w3.org/2000/svg">
<path d="M29.8757 4.10977L30.8924 10.5431L36.7424 13.5264L33.7924 19.3598L36.759 25.1931L30.859 28.1764L29.8424 34.6098L23.359 33.5931L18.7423 38.1931L14.109 33.5264L7.67568 34.5931L6.64235 28.1098L0.825684 25.1431L3.79235 19.3098L0.84235 13.5264L6.69235 10.5098L7.70902 4.12643L14.159 5.1931L18.7923 0.509766L23.409 5.12643L29.8757 4.10977ZM14.6257 11.0264C13.9626 11.0264 13.3268 11.2898 12.8579 11.7587C12.3891 12.2275 12.1257 12.8634 12.1257 13.5264C12.1257 14.1895 12.3891 14.8254 12.8579 15.2942C13.3268 15.763 13.9626 16.0264 14.6257 16.0264C15.2887 16.0264 15.9246 15.763 16.3934 15.2942C16.8623 14.8254 17.1257 14.1895 17.1257 13.5264C17.1257 12.8634 16.8623 12.2275 16.3934 11.7587C15.9246 11.2898 15.2887 11.0264 14.6257 11.0264ZM22.959 22.6931C22.296 22.6931 21.6601 22.9565 21.1912 23.4253C20.7224 23.8942 20.459 24.5301 20.459 25.1931C20.459 25.8561 20.7224 26.492 21.1912 26.9609C21.6601 27.4297 22.296 27.6931 22.959 27.6931C23.6221 27.6931 24.2579 27.4297 24.7268 26.9609C25.1956 26.492 25.459 25.8561 25.459 25.1931C25.459 24.5301 25.1956 23.8942 24.7268 23.4253C24.2579 22.9565 23.6221 22.6931 22.959 22.6931ZM12.809 27.6931L27.1257 13.3764L24.7757 11.0264L10.459 25.3431L12.809 27.6931Z" fill="#F8B315"/>
</svg>
