<svg width="21" height="21" viewBox="0 0 21 21" fill="none" xmlns="http://www.w3.org/2000/svg">
<path fill-rule="evenodd" clip-rule="evenodd" d="M1.3125 10.5C1.3125 12.9367 2.28047 15.2736 4.00346 16.9965C5.72645 18.7195 8.06332 19.6875 10.5 19.6875C12.9367 19.6875 15.2736 18.7195 16.9965 16.9965C18.7195 15.2736 19.6875 12.9367 19.6875 10.5C19.6875 8.06332 18.7195 5.72645 16.9965 4.00346C15.2736 2.28047 12.9367 1.3125 10.5 1.3125C8.06332 1.3125 5.72645 2.28047 4.00346 4.00346C2.28047 5.72645 1.3125 8.06332 1.3125 10.5ZM21 10.5C21 13.2848 19.8938 15.9555 17.9246 17.9246C15.9555 19.8938 13.2848 21 10.5 21C7.71523 21 5.04451 19.8938 3.07538 17.9246C1.10625 15.9555 0 13.2848 0 10.5C0 7.71523 1.10625 5.04451 3.07538 3.07538C5.04451 1.10625 7.71523 0 10.5 0C13.2848 0 15.9555 1.10625 17.9246 3.07538C19.8938 5.04451 21 7.71523 21 10.5ZM5.90625 9.84375C5.7322 9.84375 5.56528 9.91289 5.44221 10.036C5.31914 10.159 5.25 10.326 5.25 10.5C5.25 10.674 5.31914 10.841 5.44221 10.964C5.56528 11.0871 5.7322 11.1562 5.90625 11.1562H13.5096L10.6916 13.9729C10.6306 14.0339 10.5822 14.1063 10.5492 14.186C10.5162 14.2658 10.4992 14.3512 10.4992 14.4375C10.4992 14.5238 10.5162 14.6092 10.5492 14.689C10.5822 14.7687 10.6306 14.8411 10.6916 14.9021C10.7526 14.9631 10.8251 15.0115 10.9048 15.0446C10.9845 15.0776 11.07 15.0946 11.1562 15.0946C11.2425 15.0946 11.328 15.0776 11.4077 15.0446C11.4874 15.0115 11.5599 14.9631 11.6209 14.9021L15.5584 10.9646C15.6195 10.9037 15.668 10.8312 15.7011 10.7515C15.7341 10.6718 15.7512 10.5863 15.7512 10.5C15.7512 10.4137 15.7341 10.3282 15.7011 10.2485C15.668 10.1688 15.6195 10.0963 15.5584 10.0354L11.6209 6.09787C11.5599 6.03686 11.4874 5.98846 11.4077 5.95544C11.328 5.92242 11.2425 5.90542 11.1562 5.90542C11.07 5.90542 10.9845 5.92242 10.9048 5.95544C10.8251 5.98846 10.7526 6.03686 10.6916 6.09787C10.6306 6.15889 10.5822 6.23133 10.5492 6.31105C10.5162 6.39077 10.4992 6.47621 10.4992 6.5625C10.4992 6.64879 10.5162 6.73423 10.5492 6.81395C10.5822 6.89367 10.6306 6.96611 10.6916 7.02713L13.5096 9.84375H5.90625Z" fill="white"/>
</svg>
