<svg width="229" height="144" viewBox="0 0 229 144" fill="none" xmlns="http://www.w3.org/2000/svg">
<g clip-path="url(#clip0)">
<path d="M190.151 94.3308C190.151 50.2628 154.657 14.5781 110.906 14.5781C67.1556 14.5781 31.6611 50.2999 31.6611 94.3308C31.6611 112.841 37.927 129.83 48.3948 143.369H173.381C183.886 129.83 190.151 112.804 190.151 94.3308Z" fill="#F8E9F6"/>
<path d="M65.0913 16.952H36.5262C36.0102 16.952 35.5679 16.544 35.5679 15.9876V7.97519C35.5679 7.45587 35.9733 7.01074 36.5262 7.01074H65.0913C65.6073 7.01074 66.0496 7.41878 66.0496 7.97519V16.0247C66.0127 16.544 65.6073 16.952 65.0913 16.952Z" fill="#DD4C88"/>
<path d="M40.1016 10.4233H59.5995" stroke="#FDFCFF" stroke-width="1.9364" stroke-miterlimit="10" stroke-linecap="round" stroke-linejoin="round"/>
<path d="M40.1016 13.0942H47.3258" stroke="#FDFCFF" stroke-width="1.9364" stroke-miterlimit="10" stroke-linecap="round" stroke-linejoin="round"/>
<path d="M61.1842 15.8765V19.3633C61.1842 19.4746 61.0736 19.5117 60.9999 19.4746L56.54 15.9136H61.1842V15.8765Z" fill="#DD4C88"/>
<path d="M40.2859 109.057H20.7511C18.8713 109.057 17.3232 107.499 17.3232 105.607V87.3568C17.3232 85.9102 18.5027 84.7231 19.9402 84.7231H40.2859C41.7234 84.7231 42.9028 85.9102 42.9028 87.3568V106.423C42.866 107.87 41.6865 109.057 40.2859 109.057Z" fill="#6F59A0"/>
<path d="M34.0203 94.0708C33.062 93.1063 31.5139 93.1434 30.5556 94.1079L29.929 94.7385L29.3025 94.1079C28.3441 93.1434 26.7961 93.1805 25.8378 94.145C24.8795 95.1094 24.9163 96.6674 25.8746 97.6318L28.2336 99.9688C28.6021 100.34 29.0813 100.562 29.5605 100.636C30.2976 100.748 31.1085 100.525 31.6614 99.9317L33.9834 97.5206C35.0155 96.5561 34.9786 94.9981 34.0203 94.0708Z" fill="white"/>
<path d="M201.467 93.6628H179.647C177.509 93.6628 175.813 91.9193 175.813 89.805V69.4031C175.813 67.771 177.104 66.4727 178.725 66.4727H201.467C203.089 66.4727 204.379 67.771 204.379 69.4031V90.7694C204.379 92.3645 203.089 93.6628 201.467 93.6628Z" fill="#AB8BDB"/>
<path d="M188.492 84.2039C190.52 84.241 192.547 84.2781 194.39 84.1297C194.979 84.0926 195.495 83.1653 194.758 82.8685C195.053 82.7201 195.348 82.5718 195.495 82.2379C195.606 81.9041 195.459 81.496 195.127 81.3847C195.827 81.5702 196.085 80.4574 195.569 80.0864C195.864 79.8268 196.085 79.53 196.159 79.122C196.233 78.7511 196.048 78.3059 195.717 78.1205C195.495 78.0092 195.237 78.0092 194.979 78.0092C194.132 78.0092 193.284 78.0092 192.473 77.9721C192.694 76.6367 192.768 75.2271 192.105 74.0401C191.92 73.7062 191.367 73.2611 190.925 73.5579C190.52 73.8175 190.63 74.4481 190.667 74.8191C190.741 76.4512 189.819 78.1205 188.382 78.8994C188.419 78.8994 188.529 82.4234 188.492 84.2039Z" fill="#FAFAFA"/>
<path d="M187.792 78.8994H184.733V84.1668H187.792V78.8994Z" fill="#FAFAFA"/>
<path d="M180.716 10.9798C182.161 10.9798 183.332 9.80064 183.332 8.3461C183.332 6.89155 182.161 5.7124 180.716 5.7124C179.27 5.7124 178.099 6.89155 178.099 8.3461C178.099 9.80064 179.27 10.9798 180.716 10.9798Z" stroke="#FDFCFF" stroke-width="1.7845" stroke-miterlimit="10"/>
<path d="M3.35424 123.153C4.79953 123.153 5.97117 121.974 5.97117 120.519C5.97117 119.065 4.79953 117.886 3.35424 117.886C1.90895 117.886 0.737305 119.065 0.737305 120.519C0.737305 121.974 1.90895 123.153 3.35424 123.153Z" stroke="#FDFCFF" stroke-width="1.7845" stroke-miterlimit="10"/>
<path d="M228.668 71.5178C228.668 72.4823 227.894 73.2613 226.936 73.2613C225.978 73.2613 225.204 72.4823 225.204 71.5178C225.204 70.5534 225.978 69.7744 226.936 69.7744C227.894 69.7744 228.668 70.5534 228.668 71.5178Z" stroke="#FDFCFF" stroke-width="1.7845" stroke-miterlimit="10"/>
<path d="M10.5411 21.9229C10.5411 21.9229 9.65651 23.4066 10.8728 24.2969C12.0892 25.1871 13.1212 23.5179 14.4481 24.5565C15.775 25.5581 14.6692 26.8193 14.6692 26.8193" stroke="#FDFCFF" stroke-width="1.7845" stroke-miterlimit="10"/>
<path d="M217.132 102.974C217.132 102.974 216.468 105.014 218.164 105.756C219.859 106.498 220.707 104.198 222.587 105.088C224.503 105.978 223.471 107.759 223.471 107.759" stroke="#FDFCFF" stroke-width="1.7845" stroke-miterlimit="10"/>
<path d="M14.817 68.4761C14.817 69.7373 13.8218 70.7389 12.5687 70.7389C11.3155 70.7389 10.3203 69.7373 10.3203 68.4761C10.3203 67.2149 11.3155 66.2134 12.5687 66.2134C13.785 66.2134 14.817 67.2149 14.817 68.4761Z" fill="#AB8BDB"/>
<path d="M206.959 33.0508C206.959 34.312 205.964 35.3136 204.711 35.3136C203.458 35.3136 202.462 34.312 202.462 33.0508C202.462 31.7896 203.458 30.7881 204.711 30.7881C205.964 30.7881 206.959 31.7896 206.959 33.0508Z" fill="#DD4C88"/>
<path d="M202.941 122.337C202.941 123.302 202.167 124.081 201.209 124.081C200.251 124.081 199.477 123.302 199.477 122.337C199.477 121.373 200.251 120.594 201.209 120.594C202.167 120.594 202.941 121.373 202.941 122.337Z" fill="#AB8BDB"/>
<path d="M97.2318 1.74343C97.2318 2.70788 96.4577 3.48686 95.4994 3.48686C94.5411 3.48686 93.7671 2.70788 93.7671 1.74343C93.7671 0.77898 94.5411 0 95.4994 0C96.4577 0 97.2318 0.77898 97.2318 1.74343Z" fill="#CFBBEB"/>
<path d="M201.725 55.3076H216.653" stroke="#FDFCFF" stroke-width="1.9364" stroke-miterlimit="10" stroke-linecap="round" stroke-linejoin="round"/>
<path d="M0 51.2271H26.3536" stroke="#FDFCFF" stroke-width="1.9364" stroke-miterlimit="10"/>
<path d="M110.243 1.74365H126.092" stroke="#FDFCFF" stroke-width="1.9364" stroke-miterlimit="10" stroke-linecap="round" stroke-linejoin="round"/>
<path d="M78.9505 30.2317C78.9505 30.2317 77.9185 37.836 68.9988 42.5841C59.4894 47.6289 66.2345 62.8375 82.7838 63.3569C100.734 63.9133 110.538 47.6289 97.1216 27.2271L78.9505 30.2317Z" fill="#3A1616"/>
<path d="M84.5161 53.8609L84.5898 40.7666H92.5512L92.7355 54.0093L84.5161 53.8609Z" fill="#D6906E"/>
<path d="M83.5947 44.5872C83.1893 43.4373 86.3591 49.9658 89.6395 49.5207C92.4775 49.1498 92.9567 44.0308 92.9567 44.0308C92.9567 44.0308 91.6298 45.9968 88.6443 45.9968C85.327 46.0339 83.5947 44.5872 83.5947 44.5872Z" fill="#3A1616"/>
<path d="M78.8398 33.5333C79.8349 39.3942 83.2259 44.2906 88.6441 44.2906C94.0622 44.2906 97.7849 39.4313 98.4484 33.5333C99.2224 26.8563 94.0622 22.8872 88.6441 22.8872C83.2259 22.8872 77.8077 27.524 78.8398 33.5333Z" fill="#3A1616"/>
<path d="M80.1668 36.575C80.1668 36.575 79.4664 35.4622 77.9921 36.0186C76.5546 36.575 77.1812 40.1361 79.3927 40.5812C79.3927 40.5812 80.1668 40.7667 80.7933 40.2102C80.7933 40.2102 80.2405 37.5765 80.1668 36.575Z" fill="#D6906E"/>
<path d="M78.2871 37.2428C78.2871 37.2428 79.5034 36.8348 80.388 38.6524" stroke="#161311" stroke-width="1.0236" stroke-miterlimit="10" stroke-linecap="round" stroke-linejoin="round"/>
<path d="M96.9005 36.575C96.9005 36.575 97.6008 35.4622 99.0751 36.0186C100.513 36.575 99.886 40.1361 97.6745 40.5812C97.6745 40.5812 96.9005 40.7667 96.2739 40.2102C96.2739 40.2102 96.7899 37.5765 96.9005 36.575Z" fill="#D6906E"/>
<path d="M98.7435 37.2428C98.7435 37.2428 97.5272 36.8348 96.6426 38.6524" stroke="#161311" stroke-width="1.0236" stroke-miterlimit="10" stroke-linecap="round" stroke-linejoin="round"/>
<path d="M80.0193 33.5333C80.0193 35.7961 80.2405 40.099 81.7148 42.9182C83.0786 45.589 85.5481 46.9244 88.5336 46.9244C91.4822 46.9244 94.1729 44.9213 95.3524 42.6214C97.1216 39.1717 97.0478 33.5704 97.0478 33.5704C97.0478 33.5704 97.0478 25.4097 88.6073 25.4097C79.7613 25.4097 80.0193 33.5333 80.0193 33.5333Z" fill="#D6906E"/>
<path d="M86.6537 33.1253L82.0464 34.3123C82.0464 34.3123 82.2675 33.014 84.1473 32.5318C86.0271 32.0867 86.6537 33.1253 86.6537 33.1253Z" fill="#1A1A1A"/>
<path d="M89.6025 33.1253L94.2098 34.3123C94.2098 34.3123 93.9886 33.014 92.1089 32.5318C90.2291 32.0867 89.6025 33.1253 89.6025 33.1253Z" fill="#1A1A1A"/>
<path d="M87.8696 36.9829L87.6484 38.6522H88.8647" stroke="#161311" stroke-width="1.0236" stroke-miterlimit="10" stroke-linecap="round" stroke-linejoin="round"/>
<path d="M91.8139 40.062H85.0688C85.0688 40.062 85.2531 42.5473 88.4229 42.5473C91.3347 42.5473 91.8139 40.062 91.8139 40.062Z" fill="white"/>
<path d="M85.6953 35.7963C85.6953 35.7963 84.4053 35.1286 83.3364 35.7963" stroke="#161311" stroke-width="1.0236" stroke-miterlimit="10" stroke-linecap="round" stroke-linejoin="round"/>
<path d="M93.0669 35.7963C93.0669 35.7963 91.7769 35.1286 90.708 35.7963" stroke="#161311" stroke-width="1.0236" stroke-miterlimit="10" stroke-linecap="round" stroke-linejoin="round"/>
<path d="M96.9006 36.5752C96.9006 36.5752 94.6522 32.0868 96.2371 28.1177C96.2371 28.1177 97.7852 28.1548 97.7483 34.3495L96.9006 36.5752Z" fill="#3A1616"/>
<path d="M80.1667 36.5752C80.1667 36.5752 82.4151 31.8271 80.8302 28.1177C80.8302 28.1177 79.2821 28.1548 79.319 34.3495L80.1667 36.5752Z" fill="#3A1616"/>
<path d="M98.5219 31.5671C98.5219 31.5671 86.3587 30.8252 82.8203 25.8917C82.8203 25.8917 83.9629 22.8129 89.3811 23.666C94.7992 24.5192 98.5219 31.5671 98.5219 31.5671Z" fill="#3A1616"/>
<path d="M87.7965 24.6309C87.7965 24.6309 84.3687 31.8271 79.4297 31.5675C79.4665 31.5675 82.1572 24.705 87.7965 24.6309Z" fill="#3A1616"/>
<path d="M80.7933 135.987C80.7933 135.987 84.4054 117.96 86.5063 113.063C86.6906 112.618 87.3541 112.692 87.4646 113.137C87.9806 114.992 88.6441 120.519 88.3492 136.766V143.406H102.503L104.714 127.419C104.825 126.195 109.358 106.164 97.9324 90.7324H75.7437C75.7437 90.7324 66.7872 106.238 65.534 125.23C65.276 129.459 65.1654 135.913 64.5757 143.369H79.1347L80.7933 135.987Z" fill="#6F59A0"/>
<path d="M80.3877 110.133L87.6488 113.137" stroke="#533D85" stroke-width="1.9923" stroke-miterlimit="10"/>
<path d="M69.957 56.1606C69.957 56.1606 65.3128 56.8283 61.9219 68.5501L71.0627 73.8175L76.4809 66.3245L69.957 56.1606Z" fill="#DD4C88"/>
<path d="M71.063 73.8173C71.063 73.8173 64.9814 83.4248 63.5439 85.1311C62.0696 86.9116 59.7844 87.8019 57.8309 86.5778C56.0617 85.465 55.3982 83.2022 56.3197 81.3104L62.6224 68.9209L71.063 73.8173Z" fill="#D6906E"/>
<path d="M56.3931 56.1978L63.6541 80.0123L55.877 83.4249L51.2329 56.5316L56.3931 56.1978Z" fill="#D6906E"/>
<path d="M55.877 57.385L57.0196 56.2722C57.8674 55.4561 58.3834 54.3804 58.4571 53.2305L58.752 50.0033C58.752 50.0033 58.9363 48.2969 55.5822 48.742C52.2281 49.1872 52.0069 49.1872 52.0438 50.1887C52.0438 50.1887 52.6704 51.5983 54.845 51.858L55.877 57.385Z" fill="#D6906E"/>
<path d="M51.6385 57.867C51.6385 57.867 48.3213 56.0123 48.1738 50.1514C48.1738 49.4837 48.5056 48.8531 49.0584 48.4821C49.9062 47.9257 52.4125 46.479 53.7394 47.4064L56.0615 50.4481L55.9141 57.4218L51.6385 57.867Z" fill="#D6906E"/>
<path d="M56.5036 49.4096L58.3465 39.9876C58.4571 39.4312 58.0885 38.8748 57.5357 38.7635C56.9828 38.6522 56.4299 38.9861 56.3193 39.5425L54.6976 46.6646L53.9236 46.813L51.196 39.5796C51.0118 39.0603 50.422 38.8377 49.9429 39.0232C49.5006 39.2086 49.2794 39.6909 49.39 40.136L52.0438 50.1144L56.5036 49.4096Z" fill="#D6906E"/>
<path d="M56.6513 48.6678C56.6513 48.6678 52.0809 48.2226 52.044 50.1886C52.044 50.1886 51.9334 51.6724 54.8452 51.8579C54.8452 51.8579 53.0392 52.3772 52.9655 54.3803" stroke="#BF704F" stroke-width="0.9962" stroke-miterlimit="10"/>
<path d="M61.1479 71.7773L63.0646 78.1205" stroke="#BF704F" stroke-width="0.9962" stroke-miterlimit="10"/>
<path d="M101.139 69.8482C101.139 69.8482 108.363 95.4432 111.128 116.884L115.772 115.993C115.772 115.993 115.072 84.5746 110.354 65.1372L101.139 69.8482Z" fill="#D6906E"/>
<path d="M115.772 114.918C115.772 114.918 122.775 125.341 114.371 130.015C113.818 130.312 113.118 130.201 112.712 129.719L112.676 129.644C112.233 129.125 112.27 128.309 112.749 127.827C113.929 126.603 115.551 124.08 113.007 120.779C113.007 120.779 111.68 121.113 111.902 123.821C111.975 124.525 111.386 125.082 110.685 125.045C110.206 125.008 109.838 124.674 109.727 124.192C109.285 122.411 108.547 118.034 111.386 115.66L115.772 114.918Z" fill="#D6906E"/>
<path d="M105.599 58.312C105.599 58.312 112.233 60.5006 113.413 71.0725L102.613 75.1899L100.181 68.5129L105.599 58.312Z" fill="#DD4C88"/>
<path d="M99.2224 55.8637L105.709 58.349L97.9693 87.7276H75.8175L69.957 56.1604L77.6235 54.3799L99.2224 55.8637Z" fill="#DD4C88"/>
<path d="M98.0065 87.728H75.8179V90.7697H98.0065V87.728Z" fill="#1A1A1A"/>
<path d="M72.7953 71.4436L71.063 63.5796" stroke="#C12D71" stroke-width="1.9923" stroke-miterlimit="10"/>
<path d="M101.839 73.0384L104.161 64.2842" stroke="#C12D71" stroke-width="1.9923" stroke-miterlimit="10"/>
<path d="M90.6713 52.4512L99.2225 55.8638C99.2225 55.8638 98.2273 59.2394 88.2018 59.2394C79.4664 59.2394 77.6235 54.3801 77.6235 54.3801L85.9166 52.4512H90.6713Z" fill="#D6906E"/>
<path d="M146.585 95.8145L155.873 143.592H137.887L130.994 112.025L129.409 111.95L129.372 143.592H111.422L112.344 95.8145H146.585Z" fill="#DD4C88"/>
<path d="M126.35 111.728H136.597" stroke="#C12D71" stroke-width="1.9923" stroke-miterlimit="10"/>
<path d="M154.878 62.2812L171.796 57.9411C175.187 56.9767 177.177 53.4898 176.293 50.0771C175.371 46.5532 171.796 44.4759 168.295 45.4775L151.34 50.3368L154.878 62.2812Z" fill="#E8ABA2"/>
<path d="M156.721 47.2207L140.209 49.4093L144.927 66.3984L160.702 63.0971L156.721 47.2207Z" fill="#CFBBEB"/>
<path d="M164.609 26.0771C165.015 23.4063 164.02 19.9937 164.02 19.9937L164.388 13.9844C164.462 13.428 164.093 12.8716 163.54 12.7603C162.951 12.6119 162.361 12.9828 162.177 13.5763L161.698 17.4342H161.182L160.481 11.2023C160.444 10.4604 159.744 9.90402 159.007 10.0524C158.38 10.1637 157.938 10.7201 157.975 11.3507L158.454 18.0648L157.901 18.176L156.021 11.462C155.8 10.683 155.026 10.2379 154.252 10.4604C153.552 10.683 153.146 11.4249 153.294 12.1297L155.247 19.8082L154.547 19.9937L151.967 14.615C151.672 13.9844 150.898 13.7618 150.308 14.1328C149.829 14.4295 149.645 14.9859 149.829 15.5423L152.446 22.7386L150.272 22.7015C149.276 22.7015 148.465 23.5918 148.576 24.5933C148.65 25.2981 149.166 25.8916 149.829 26.0771L152.667 26.7819C152.667 26.7819 154.584 29.4527 157.754 30.6026C157.754 30.5655 164.314 28.1173 164.609 26.0771Z" fill="#E8ABA2"/>
<path d="M152.409 22.7015C152.409 22.7015 156.537 22.4418 158.97 24.7787" stroke="#D8857D" stroke-width="0.9962" stroke-miterlimit="10"/>
<path d="M176.072 49.3724L164.609 26.0771L157.422 29.1189L164.683 54.751L176.072 49.3724Z" fill="#E8ABA2"/>
<path d="M162.508 47.1465L163.651 51.0785" stroke="#D8857D" stroke-width="0.9962" stroke-miterlimit="10"/>
<path d="M125.429 48.4819L111.865 51.3011L112.344 95.8142H146.585L147.654 50.077L134.791 48.9642L125.429 48.4819Z" fill="#CFBBEB"/>
<path d="M147.286 65.9161V60.1665" stroke="#AB8BDB" stroke-width="1.9923" stroke-miterlimit="10"/>
<path d="M121.043 70.2192C118.721 70.2192 116.841 68.3274 116.841 65.9905V61.7617H125.244V65.9905C125.244 68.3274 123.365 70.2192 121.043 70.2192Z" fill="#AB8BDB"/>
<path d="M102.06 62.6152L92.2931 80.4205C90.5976 83.5364 91.6665 87.4684 94.7257 89.2489C97.7481 90.9924 101.618 90.0279 103.461 87.0604L113.597 70.776L102.06 62.6152Z" fill="#E8ABA2"/>
<path d="M99.0381 65.1004L113.044 74.1514L115.293 63.357C117.651 59.4992 120.674 54.8624 116.877 52.4142C113.044 49.9288 107.921 51.0788 105.488 54.9366L99.0381 65.1004Z" fill="#CFBBEB"/>
<path d="M112.123 73.5581V61.4282" stroke="#AB8BDB" stroke-width="1.9923" stroke-miterlimit="10"/>
<path d="M97.0847 90.0275L122.738 89.3227L124.507 81.0136L95.5366 77.3042L97.0847 90.0275Z" fill="#E8ABA2"/>
<path d="M108.511 78.9733L101.839 78.1201" stroke="#D8857D" stroke-width="0.9962" stroke-miterlimit="10"/>
<path d="M122.775 81.3475C122.775 81.3475 126.055 76.8962 129.925 81.3475L128.377 84.4263L122.775 81.3475Z" fill="#E8ABA2"/>
<path d="M126.645 76.5996L125.65 82.8315L133.464 83.7217L134.717 77.7125C134.864 77.0819 134.422 76.4513 133.759 76.3771L127.898 75.6723C127.309 75.5981 126.756 76.0061 126.645 76.5996Z" fill="#1A1A1A"/>
<path d="M124.433 80.791L133.685 81.0136C134.754 81.0507 135.601 81.9409 135.601 83.0167C135.601 83.7957 135.159 84.4633 134.496 84.7972L134.017 85.0198C134.017 85.0198 134.975 92.0677 129.409 92.9208C123.844 93.774 120.748 89.3227 120.748 89.3227L124.433 80.791Z" fill="#E8ABA2"/>
<path d="M135.307 48.964L135.159 34.9053H125.023L124.802 48.6302L135.307 48.964Z" fill="#E8ABA2"/>
<path d="M124.175 39.0227C123.659 37.7986 127.714 45.7368 131.842 45.2916C135.38 44.9207 135.528 38.4292 135.528 38.4292C135.528 38.4292 134.275 40.4694 130.515 40.4694C126.35 40.5065 124.175 39.0227 124.175 39.0227Z" fill="#3A1616"/>
<path d="M140.577 27.1529C139.509 33.4218 135.86 38.6892 130.073 38.6892C124.249 38.6892 120.269 33.4589 119.568 27.1529C118.721 19.9937 124.249 15.2085 130.073 15.2085C135.86 15.2085 141.683 20.7355 140.577 27.1529Z" fill="#2F1118"/>
<path d="M139.14 30.417C139.14 30.417 139.914 29.1929 141.462 29.7864C143.01 30.3799 142.31 34.2007 139.988 34.6829C139.988 34.6829 139.14 34.8683 138.477 34.2748C138.477 34.3119 139.066 31.4928 139.14 30.417Z" fill="#E8ABA2"/>
<path d="M141.167 31.1591C141.167 31.1591 139.877 30.714 138.919 32.6429" stroke="#161311" stroke-width="1.0982" stroke-miterlimit="10" stroke-linecap="round" stroke-linejoin="round"/>
<path d="M121.227 30.417C121.227 30.417 120.453 29.1929 118.905 29.7864C117.357 30.3799 118.057 34.2007 120.379 34.6829C120.379 34.6829 121.227 34.8683 121.89 34.2748C121.89 34.3119 121.3 31.4928 121.227 30.417Z" fill="#E8ABA2"/>
<path d="M119.199 31.1591C119.199 31.1591 120.489 30.714 121.448 32.6429" stroke="#161311" stroke-width="1.0982" stroke-miterlimit="10" stroke-linecap="round" stroke-linejoin="round"/>
<path d="M139.287 27.1528C139.287 29.6011 139.029 34.7201 137.444 37.7618C135.97 40.6181 133.537 42.1389 130.331 42.2502C127.787 42.3244 124.102 39.9133 122.812 37.4651C120.895 33.7556 121.006 27.227 121.006 27.227C121.006 27.227 121.006 18.4728 130.036 18.4728C139.582 18.4357 139.287 27.1528 139.287 27.1528Z" fill="#E8ABA2"/>
<path d="M126.976 30.1198C126.976 30.4908 126.681 30.8246 126.276 30.8246C125.907 30.8246 125.576 30.5279 125.576 30.1198C125.576 29.7489 125.871 29.415 126.276 29.415C126.681 29.415 126.976 29.7118 126.976 30.1198Z" fill="#1A1A1A"/>
<path d="M134.2 30.1198C134.2 30.4908 133.906 30.8246 133.5 30.8246C133.132 30.8246 132.8 30.5279 132.8 30.1198C132.8 29.7489 133.095 29.415 133.5 29.415C133.906 29.415 134.2 29.7118 134.2 30.1198Z" fill="#1A1A1A"/>
<path d="M128.193 27.2267L123.217 28.525C123.217 28.525 123.438 27.1154 125.465 26.6332C127.492 26.1139 128.193 27.2267 128.193 27.2267Z" fill="#1A1A1A"/>
<path d="M131.326 27.2267L136.302 28.525C136.302 28.525 136.08 27.1154 134.053 26.6332C132.026 26.1139 131.326 27.2267 131.326 27.2267Z" fill="#1A1A1A"/>
<path d="M129.262 31.9004V33.6809H130.552" stroke="#161311" stroke-width="1.0982" stroke-miterlimit="10" stroke-linecap="round" stroke-linejoin="round"/>
<path d="M133.942 35.165H126.35C126.35 35.165 126.571 37.1681 129.962 37.1681C133.058 37.2052 133.942 35.165 133.942 35.165Z" fill="white"/>
<path d="M121.227 30.4172C121.227 30.4172 124.618 25.1869 121.964 21.3291C121.964 21.3291 120.305 21.3662 120.342 28.0061L121.227 30.4172Z" fill="#2F1118"/>
<path d="M139.139 30.4172C139.139 30.4172 135.749 25.1869 138.402 21.3291C138.402 21.3291 140.061 21.3662 140.024 28.0061L139.139 30.4172Z" fill="#2F1118"/>
<path d="M121.042 21.1063C121.042 21.1063 125.429 26.0769 134.422 25.1125C142.457 24.2593 143.157 18.5468 141.241 16.3211C138.513 13.131 132.469 14.3181 129.225 17.8791L121.042 21.1063Z" fill="#2F1118"/>
<path d="M124.802 48.6304L130.147 55.5299L135.307 48.9642L124.802 48.6304Z" fill="#E8ABA2"/>
<path d="M124.802 47.6289L121.632 49.2611L125.208 56.4573L128.783 53.7495L124.802 47.6289Z" fill="#AB8BDB"/>
<path d="M135.307 47.6289L138.882 49.3352L135.122 56.4573L131.584 53.6753L135.307 47.6289Z" fill="#AB8BDB"/>
<path d="M9.62012 143.629H213.667" stroke="#FDFCFF" stroke-width="1.9923" stroke-miterlimit="10"/>
</g>
<defs>
<clipPath id="clip0">
<rect width="229" height="144" fill="white"/>
</clipPath>
</defs>
</svg>
