<svg width="159" height="144" viewBox="0 0 159 144" fill="none" xmlns="http://www.w3.org/2000/svg">
<g clip-path="url(#clip0)">
<path d="M50.3905 44.1422C49.3557 45.8917 49.8956 48.3142 50.2555 50.1983C50.6154 52.1272 50.9304 54.1459 51.3803 55.9852C51.8752 57.9142 53.045 59.4843 53.9448 61.2787C54.7097 62.8936 55.7895 64.9572 57.0042 66.2581C59.3888 68.8151 61.9083 71.3721 64.0229 74.288C66.3625 77.5179 67.0374 81.4207 67.7572 85.3684C68.1171 87.4319 68.0272 89.5852 68.4771 91.6039C68.972 93.7123 69.017 95.8656 69.3319 98.0637C69.6469 100.352 70.3667 102.505 70.5467 104.882C70.6367 105.69 70.5017 108.112 71.2216 108.606C71.8064 109.009 74.146 108.471 74.8209 108.381C76.9355 108.202 79.23 108.247 81.2097 107.574C82.9643 106.991 84.674 106.094 86.3837 105.286C88.0934 104.479 89.6681 103.94 91.3328 102.953C92.5925 102.236 93.5373 102.325 92.8625 100.89C91.7377 98.5123 90.253 96.2244 89.1732 93.7572C88.5433 92.3216 88.0484 90.7964 87.3735 89.4058C86.6536 87.8805 86.3837 86.445 85.7988 84.8749C84.4941 81.3758 83.1893 77.9665 82.3345 74.288C81.9745 72.7179 81.8845 71.0132 81.7946 69.3983C81.6146 67.2899 82.2895 65.4506 82.2895 63.4319C82.2895 61.3684 82.5594 59.3497 82.7394 57.331C82.8744 56.1646 83.0993 54.5048 82.5144 53.3833C81.4796 51.4543 79.32 49.9291 77.7003 48.4487C73.2012 44.3216 67.7122 42.617 61.6384 42.931C58.9389 43.0656 56.1944 43.4244 53.4949 43.5142C52.7301 43.5142 52.0102 43.3796 50.3905 44.1422Z" fill="#F4B796"/>
<path d="M68.7469 61.1443L55.4744 57.8695C53.2249 57.3312 51.8301 55.0433 52.37 52.7555L60.2435 20.9499C60.7834 18.7069 63.078 17.3162 65.3726 17.8546L78.6451 21.1293C80.8947 21.6676 82.2894 23.9555 81.7495 26.2433L73.876 58.0489C73.2911 60.3368 70.9965 61.6826 68.7469 61.1443Z" fill="#362E56"/>
<path d="M69.1517 59.574L55.8792 56.2992C53.6296 55.7609 52.2349 53.473 52.7748 51.1852L60.6483 19.3796C61.1882 17.1366 63.4828 15.7459 65.7774 16.2842L79.0499 19.559C81.2994 20.0973 82.6942 22.3852 82.1543 24.673L74.2808 56.4786C73.6959 58.7665 71.4463 60.1123 69.1517 59.574Z" fill="#0082FE"/>
<path d="M80.6976 24.1888L62.2656 19.6436L54.6391 50.3898L73.0711 54.9351L80.6976 24.1888Z" fill="white"/>
<path d="M75.0906 21.1737L70.0515 19.9177C69.9166 19.8728 69.8266 19.7382 69.8716 19.6036V19.5588C69.9166 19.4242 70.0515 19.3345 70.1865 19.3793L75.2255 20.6354C75.3605 20.6803 75.4505 20.8149 75.4055 20.9494V20.9943C75.4055 21.1289 75.2705 21.2186 75.0906 21.1737Z" fill="#362E56"/>
<path d="M82.199 50.3329C81.3442 48.09 80.6693 45.4881 80.2194 43.1554C79.9045 41.361 80.0394 39.4769 79.6345 37.6825C79.5895 37.4133 79.6345 36.9199 79.0496 36.7404C77.8349 36.3367 76.3951 37.6376 75.8102 38.6694C75.1804 39.746 75.1803 41.2713 75.2253 42.4825C75.3153 43.918 75.4053 45.3535 75.7203 46.7442C76.0802 48.2694 75.9452 49.4806 75.6753 50.961C75.3153 52.9797 74.7754 55.3124 75.3153 57.3759C76.0352 59.9329 79.4096 62.3105 81.6591 60.1573C82.7389 59.1255 82.8739 57.4657 82.8739 56.075C82.9639 54.0115 82.9189 52.2619 82.199 50.3329Z" fill="#F4B796"/>
<path d="M51.0652 51.6338C50.9752 50.5123 50.2553 49.5254 50.0304 48.4487C49.7604 47.3721 49.2655 46.2506 49.3105 45.0842C49.3105 43.873 50.2103 43.3347 51.0202 42.6169C51.83 41.8992 51.3351 40.374 51.2451 39.3422C51.2001 38.7141 51.2451 38.2207 51.6051 37.7272C51.965 37.2338 52.7298 36.9197 52.9098 36.4263C53.0898 35.888 52.7298 35.1702 52.6399 34.6319C52.5499 33.8693 52.7748 33.4655 53.1798 32.8375C53.9896 31.5814 54.7545 30.4599 55.3394 29.0693C55.7893 28.1272 56.1042 26.1983 57.364 26.0637C58.8037 25.9291 59.2986 27.9029 59.2986 29.0244C59.2986 30.3254 58.6237 31.4917 58.0388 32.6132C57.9489 32.8375 57.8589 33.0618 57.7689 33.2861C58.6237 32.6581 60.3784 31.1328 61.2782 32.5235C62.448 34.3627 60.5134 36.7403 59.2086 37.8618C58.4438 38.4898 57.4989 39.5665 56.5991 40.0151C56.9141 39.8805 57.274 39.9702 57.5439 40.1497C58.1738 40.5983 58.1288 41.4506 58.0388 41.8095C57.8589 43.0655 56.6891 44.0076 55.6543 44.5459C54.3045 45.3085 53.5847 45.9814 53.1798 47.5067C52.7748 48.987 52.4149 50.7366 51.2451 51.8132C51.1551 51.6786 51.1101 51.4543 51.0652 51.6338Z" fill="#F4B796"/>
<path d="M57.5442 26.7811C57.4992 26.3325 57.3193 25.9737 56.7794 26.1082C56.3294 26.2877 55.5646 28.3064 55.4746 28.755C55.7896 28.8447 56.0145 28.8895 56.3294 29.0241C56.7344 29.2036 56.8693 29.1138 57.0943 28.755C57.4542 28.1718 57.5892 27.454 57.5442 26.7811Z" fill="#F4E2D4"/>
<path d="M59.8388 31.9399C59.4339 32.0297 58.849 32.4334 58.489 32.7026C58.1291 32.9717 57.7692 33.2857 57.3643 33.51C57.7242 33.51 57.9042 33.8689 58.1291 34.1381C58.4441 34.497 58.669 34.5418 59.1639 34.4072C59.8838 34.1829 60.8736 33.3755 60.7836 32.568C60.7386 31.9399 60.1987 31.9399 59.8388 31.9399Z" fill="#F4E2D4"/>
<path d="M55.7444 40.5083C55.2945 40.7326 55.0245 40.9121 54.9795 41.4055C54.9345 41.8541 54.9795 42.527 55.6094 42.3476C55.9693 42.2579 56.4642 41.9438 56.7342 41.7644C57.1391 41.4952 57.2291 41.0915 57.1841 40.5532C57.1841 40.284 56.9591 40.1046 56.6892 40.1494C56.3742 40.1943 56.0593 40.3737 55.7444 40.5083Z" fill="#F4E2D4"/>
<path d="M79.5901 37.0988C78.3303 37.5025 78.1054 39.2969 78.3303 40.5081C78.3753 40.6876 78.4203 41.0913 78.6003 41.181C78.8252 41.3156 79.995 41.1362 79.995 41.0016C80.04 40.6876 79.8151 37.0091 79.5901 37.0988Z" fill="#F4E2D4"/>
<path d="M69.6919 107.35L70.2768 108.202C70.6367 110.041 71.4916 135.791 72.5713 143.955H112.929C107.62 130.767 95.517 105.511 95.0671 104.479C94.5722 103.357 94.3922 102.191 93.6274 101.204C93.1775 100.576 92.8625 100.711 92.1876 101.069C90.6129 101.922 88.9483 102.46 87.2386 102.909C86.2938 103.178 85.3039 103.223 84.3141 103.447C83.1893 103.716 82.1096 104.075 80.9848 104.344C78.5102 104.972 76.0357 105.645 73.5612 106.139C72.1214 106.408 70.9517 106.587 69.6469 107.26C69.5569 107.439 69.6469 107.35 69.6919 107.35Z" fill="#FE2992"/>
<path d="M73.3359 110.669C73.4708 111.252 76.2153 136.239 77.1601 144H78.195C77.2501 136.195 74.4157 111.073 74.3257 110.445C74.1007 109.368 73.8758 108.247 73.7858 107.125V107.036L72.751 107.125V107.215C72.886 108.381 73.1109 109.548 73.3359 110.669Z" fill="#0082FE"/>
<path d="M84.4486 144H85.5284C83.7738 136.015 78.6447 110.041 78.4648 109.503C78.0598 108.202 77.6549 106.856 77.6549 105.6H76.6201C76.6201 107.036 77.07 108.426 77.475 109.817C77.6549 110.355 82.739 136.06 84.4486 144Z" fill="#0082FE"/>
<path d="M81.9293 108.202C82.1542 108.92 82.3792 109.637 82.6491 110.355C83.6389 113.002 89.8478 136.508 91.8724 143.955H92.9522C90.9276 136.464 84.6287 112.643 83.6389 109.996C83.369 109.323 83.144 108.606 82.9191 107.888C82.7391 107.35 82.5591 106.811 82.3792 106.273C82.0642 105.376 81.9742 104.658 82.0642 104.209L81.7943 104.165C81.5243 104.254 81.2994 104.299 81.0294 104.389C80.9844 105.017 81.1194 105.735 81.4344 106.632C81.6143 107.125 81.7493 107.708 81.9293 108.202Z" fill="#0082FE"/>
<path d="M85.5735 105.062C85.7085 105.466 85.8885 105.869 86.0234 106.228C86.3384 106.991 96.2365 136.553 98.891 143.955H100.106C97.1813 135.566 87.2382 106.542 86.9683 105.824C86.8333 105.421 86.6533 105.017 86.5183 104.658C86.3834 104.344 86.2484 104.075 86.1134 103.806C86.0234 103.581 85.8885 103.357 85.7985 103.133C85.4385 103.178 85.1236 103.223 84.7637 103.312C84.8986 103.626 85.0336 103.94 85.1686 104.254C85.3486 104.568 85.4835 104.793 85.5735 105.062Z" fill="#0082FE"/>
<path d="M90.4328 104.389L90.7477 104.972C91.1976 105.779 103.165 135.835 106.45 143.955H107.53C104.56 136.598 92.0974 105.331 91.6475 104.478L91.3326 103.895C91.1526 103.581 91.0176 103.222 90.8377 102.863C90.7027 102.549 90.5227 102.235 90.3878 101.921C90.0728 102.056 89.7579 102.191 89.3979 102.28C89.5779 102.594 89.7579 102.953 89.8929 103.312C90.0728 103.671 90.2528 104.03 90.4328 104.389Z" fill="#0082FE"/>
<path d="M93.9419 100.8C93.672 99.9478 92.9971 99.0506 92.5922 98.1983C92.1872 97.3908 91.7373 96.5833 91.3324 95.7758C90.9725 95.1478 90.6125 94.5197 90.2976 93.8917C89.8477 93.0394 89.6227 92.8599 88.6329 93.2637C85.7535 94.5197 82.874 95.4169 79.8596 96.2244C77.0251 96.987 74.0557 97.7945 71.1762 98.0637C70.8613 98.1085 69.6015 98.1983 69.6015 98.1983C68.5217 98.1983 68.7017 98.9609 68.7917 99.8132C68.8816 100.71 68.8817 101.563 68.9716 102.505C69.1066 104.209 69.1066 105.914 69.4216 107.619C69.5565 108.426 69.6915 109.054 70.6363 109.099C71.5811 109.189 72.6159 108.875 73.5158 108.74C75.9903 108.292 78.3299 107.709 80.7144 106.856C83.9088 105.735 87.0582 104.838 90.1626 103.447C91.0625 102.998 94.4368 102.415 93.9419 100.8Z" fill="#0082FE"/>
<path d="M85.5288 20.2767C85.5288 20.2767 90.0729 16.329 90.4329 15.7907C90.8828 15.1178 88.0483 7.58136 89.578 4.75519C91.1527 1.88417 105.1 -0.942002 107.62 0.269213C110.454 1.61501 113.918 16.9122 111.849 19.2001C110.004 21.2187 97.5865 23.7309 95.022 23.1477C92.4575 22.5645 92.6825 20.7701 92.0076 19.8281C91.4677 19.0655 85.5288 20.2767 85.5288 20.2767Z" fill="#362E56"/>
<path d="M104.875 7.49154C103.256 6.01117 100.826 8.07472 100.376 9.86911C99.1613 8.52332 95.877 8.02986 95.2471 10.1831C94.5272 12.5607 97.0018 14.4 98.7564 15.4766C99.8812 16.1495 101.276 16.3738 102.356 17.0915C102.941 15.9252 104.02 15.028 104.605 13.8616C105.55 12.0224 106.675 9.15136 104.875 7.49154Z" fill="#FE2992"/>
<path d="M156.391 51.9927C155.986 51.2749 155.446 51.23 155.536 50.3328C155.581 49.7497 155.851 49.0319 155.851 48.359C155.851 47.9104 155.896 47.5515 155.716 47.1478C155.266 46.2057 154.681 45.7571 154.501 44.9497C154.411 44.5011 154.636 43.9627 154.591 43.5142C154.546 42.7067 154.501 42.3029 154.186 41.5403C153.826 40.5983 153.421 39.8805 152.476 39.7459C151.531 39.5665 151.396 40.1497 151.306 39.3422C151.172 38.4001 152.026 33.6899 151.531 32.8824C150.407 30.9085 148.247 32.6581 147.662 34.1384C146.582 36.8749 145.773 40.0151 145.053 42.931C143.658 48.359 139.564 52.3515 135.02 55.4469C134.21 55.9852 132.095 57.6001 131.105 56.7029C130.475 56.0749 130.655 54.5497 130.7 53.7871C130.835 51.7235 131.51 48.7179 130.88 46.8786C129.351 47.5964 127.866 47.8207 126.381 48.7179C125.121 49.5254 124.177 50.288 123.547 51.6338C122.422 54.0562 121.072 57.1067 120.937 59.888C120.892 61.2786 121.207 62.5347 121.252 63.8805C121.297 65.4955 121.162 67.1553 121.297 68.7702C121.612 72.1796 121.657 75.5441 121.702 78.9534C121.702 81.8693 120.937 84.8749 120.127 87.6562C119.542 89.7198 118.058 91.1104 119.902 92.7702C121.702 94.3852 124.402 95.1029 126.696 95.731C128.676 96.2693 130.88 96.8076 132.95 97.0319C133.715 97.1216 135.02 97.4357 135.649 97.0319C136.234 96.6282 136.414 95.2824 136.504 94.6095C137.044 91.1553 136.189 86.759 139.114 83.2151C142.668 78.8637 149.507 71.4618 151.127 67.7384C151.621 66.5721 152.386 65.4955 152.881 64.374C153.331 63.4319 153.601 62.445 153.961 61.4132C154.636 59.3945 155.761 57.5104 156.391 55.4917C156.66 54.1908 156.975 53.0244 156.391 51.9927Z" fill="#F4B796"/>
<path d="M152.026 68.3213L137.899 72.0895C135.649 72.6727 133.31 71.3717 132.725 69.0839L123.817 35.753C123.232 33.51 124.536 31.1773 126.831 30.5941L140.958 26.8259C143.208 26.2427 145.547 27.5437 146.132 29.8315L155.041 63.1624C155.626 65.4054 154.276 67.7381 152.026 68.3213Z" fill="#362E56"/>
<path d="M151.621 66.7064L137.494 70.4747C135.244 71.0578 132.905 69.7569 132.32 67.469L123.457 34.0934C122.872 31.8504 124.177 29.5177 126.471 28.9345L140.598 25.1662C142.848 24.5831 145.188 25.884 145.772 28.1719L154.681 61.5027C155.221 63.7906 153.871 66.0784 151.621 66.7064Z" fill="#0082FE"/>
<path d="M144.158 28.6644L125.07 33.7256L133.581 65.633L152.668 60.5718L144.158 28.6644Z" fill="white"/>
<path d="M137.584 28.6652L132.32 30.0559C132.185 30.1007 132.05 30.011 132.005 29.8764V29.8316C131.96 29.697 132.05 29.5624 132.185 29.5176L137.449 28.1269C137.584 28.082 137.719 28.1718 137.764 28.3063V28.3512C137.809 28.4858 137.719 28.6204 137.584 28.6652Z" fill="#362E56"/>
<path d="M144.423 43.6487C142.443 42.0338 139.699 44.5459 139.249 46.6543C137.764 45.1291 133.85 44.7702 133.22 47.3272C132.5 50.1534 135.515 52.2169 137.629 53.3384C138.979 54.0562 140.644 54.2805 141.948 54.9983C142.578 53.6076 143.793 52.4412 144.423 51.0955C145.458 48.8973 146.672 45.488 144.423 43.6487Z" fill="#FE2992"/>
<path d="M134.344 42.976C133.76 41.8096 132.68 41.6302 131.645 42.3479C131.15 42.6619 130.61 43.2451 130.205 43.6489C129.755 44.1423 129.215 44.5012 128.721 44.9498C126.966 46.6993 124.896 48.1797 123.861 50.3778C123.007 52.262 122.467 54.5498 121.972 56.6134C121.657 57.4208 121.297 58.2732 121.477 59.2152C121.612 59.933 122.062 61.0993 122.692 61.5479C123.232 61.9517 124.176 62.4003 124.851 62.176C126.201 61.7274 127.371 59.8881 127.641 58.5872C127.866 57.4208 128.046 56.2096 128.316 55.0433C128.496 54.1909 128.676 53.2489 129.26 52.576C129.98 51.7236 130.88 51.0956 131.69 50.333C132.5 49.5704 133.265 48.5834 133.85 47.6414C134.704 46.3405 135.019 44.3218 134.344 42.976Z" fill="#F4B796"/>
<path d="M155.985 51.0953C155.401 50.4672 155.401 50.2878 155.625 49.3906C155.805 48.5382 155.85 47.9102 155.536 47.1027C155.221 46.3401 154.501 45.8915 154.186 45.1738C153.961 44.6803 154.276 44.142 154.276 43.6037C154.276 43.0653 154.141 42.4373 154.006 41.9439C153.871 41.4953 153.601 40.6878 153.331 40.3289C153.151 40.1046 152.701 40.0149 152.206 39.7906C150.227 39.342 148.517 42.2579 147.572 43.6037C146.987 44.5009 145.862 45.3981 145.772 46.5196C145.682 47.6859 146.762 48.4037 147.797 48.4485C148.472 48.4934 149.147 48.2242 149.687 47.8205C150.047 47.5513 151.531 46.0261 151.936 46.1607C151.891 46.5644 151.666 46.3401 150.541 48.1345C150.272 48.5831 150.002 49.0317 149.732 49.4354C149.237 50.1981 148.652 50.9607 148.292 51.7682C147.977 52.4859 147.707 53.2934 148.247 53.9663C148.922 54.8635 150.316 54.5495 150.856 54.056C151.396 53.6074 151.891 53.0242 152.431 52.5308C152.836 52.2167 153.106 51.6784 153.511 51.4093C153.286 51.9925 152.746 52.7999 152.431 53.3831C152.116 54.0111 151.801 54.5943 151.666 55.3121C151.486 56.3887 152.251 57.4205 153.466 57.0167C154.861 56.5233 156.345 55.2672 156.75 53.4728C156.885 52.7551 156.48 51.6336 155.985 51.0953Z" fill="#F4B796"/>
<path d="M118.732 87.2522C118.777 87.2522 118.867 87.2522 118.912 87.2522L119.092 87.0728C118.957 87.1176 118.912 87.2522 118.732 87.2522Z" fill="#362E56"/>
<path d="M133.85 144C135.244 131.574 138.754 96.1795 138.124 87.7458C137.404 87.6112 130.7 87.5215 128.271 86.7589C124.896 85.7271 122.647 84.8299 120.082 82.9458C120.082 82.9458 115.898 91.2449 115.223 92.4561C109.554 102.639 95.9668 129.645 91.5576 144H133.85Z" fill="#0082FE"/>
<path d="M138.124 87.7461C133.445 87.0283 127.821 85.6377 126.561 85.1891C125.436 84.7853 121.117 82.991 120.172 82.4526C119.227 83.1704 116.213 89.4059 116.168 90.1685C120.847 94.5199 134.749 100.845 135.469 100.621C136.009 100.397 138.034 89.2713 138.124 87.7461Z" fill="#362E56"/>
<path d="M135.874 90.527C135.605 89.8541 133.985 89.4504 133.445 89.7196C132.815 90.0336 132.32 90.8859 132.365 91.6485C132.41 93.084 134.435 94.0261 135.515 92.9495C136.054 92.3663 136.324 91.6485 135.874 90.527Z" fill="#0082FE"/>
<path d="M134.704 91.4244C134.569 91.1104 134.344 90.8861 134.074 90.6169C133.984 90.5272 133.67 90.6618 133.625 90.7964C133.625 90.931 133.804 90.9758 133.849 91.1104C134.029 91.3796 134.254 91.6936 134.389 92.0076C134.434 92.0973 134.389 92.2767 134.524 92.3665C134.659 92.4562 134.794 92.3665 134.839 92.2319C134.929 92.0076 134.794 91.6487 134.704 91.4244Z" fill="#362E56"/>
<path d="M141.903 14.9383C141.858 13.9962 141.948 9.914 140.644 9.86914C139.339 10.8112 141.408 17.585 142.038 19.7832C142.263 19.1103 142.263 18.2579 142.218 17.6299C142.083 16.7776 141.948 15.8804 141.903 14.9383Z" fill="#362E56"/>
<path d="M155.671 15.6563C156.211 15.2526 158.82 13.8619 158.37 12.6507C157.335 11.7984 153.826 16.1498 152.656 17.5404C153.151 17.4956 153.691 17.1815 154.051 16.9572C154.636 16.5535 155.131 16.0601 155.671 15.6563Z" fill="#362E56"/>
<path d="M152.971 11.3945C153.556 10.6768 154.411 8.92723 154.096 7.98517C151.847 7.49172 150.497 12.0226 149.957 13.0992C149.237 14.4898 148.607 15.9254 147.932 17.3609C147.437 18.4375 146.943 19.7384 146.808 20.9048C146.898 20.9945 146.898 21.0394 146.898 21.0394C147.482 20.9048 150.047 15.9254 151.037 14.3104C151.667 13.3235 152.207 12.3366 152.971 11.3945Z" fill="#362E56"/>
<path d="M158.955 22.9235C157.83 22.1609 151.576 24.4487 150.542 25.0319C151.306 25.3011 153.511 24.9422 154.501 24.8076C156.39 24.5385 159.135 23.6413 158.955 22.9235Z" fill="#362E56"/>
<path d="M132.275 41.899C131.555 41.8542 129.17 44.4112 129.17 44.5457C130.565 45.0841 130.835 45.9813 131.15 45.9813C131.465 45.9813 132.005 45.3981 132.185 45.1738C132.545 44.8149 132.905 44.3663 133.085 43.8729C133.355 43.1102 133.355 41.9887 132.275 41.899Z" fill="#F4E2D4"/>
<path d="M149.372 45.3084C149.057 45.1289 148.652 44.8149 148.382 44.5906C148.067 44.3215 147.842 44.0972 147.662 44.0972C147.572 44.142 147.032 44.7701 146.897 44.9046C146.267 45.6224 146.132 46.3402 146.267 46.6542C146.402 46.9682 146.582 47.1028 146.852 47.2374C147.167 47.3719 147.392 47.3719 147.752 47.2822C148.562 47.0579 149.462 45.6673 149.552 45.5327C149.642 45.3981 149.552 45.3981 149.372 45.3084Z" fill="#F4E2D4"/>
<path d="M150.766 51.7234C150.541 51.5888 150.316 51.4542 150.091 51.2748C149.911 51.1402 149.506 50.7813 149.326 51.0056C148.921 51.4991 148.606 51.9477 148.427 52.5757C148.247 53.1141 148.561 53.6524 149.146 53.7421C149.641 53.8318 150.136 53.3384 150.406 52.9795C150.541 52.8 150.721 52.5757 150.811 52.3514C150.991 52.0823 151.036 51.9028 150.766 51.7234Z" fill="#F4E2D4"/>
<path d="M153.826 54.9082C153.781 54.8634 153.691 54.8634 153.286 54.6839C152.791 54.4596 152.791 54.3251 152.701 54.3699C152.251 54.7737 151.801 56.0297 152.521 56.3438C152.926 56.5232 153.286 56.1643 153.511 55.8503C153.646 55.7606 154.006 55.0428 153.826 54.9082Z" fill="#F4E2D4"/>
<path d="M53.09 100.576C52.3702 99.14 51.3354 97.57 50.2556 96.3587C49.0858 95.0129 48.186 93.5774 47.3311 92.0073C46.7012 90.841 45.8014 89.5401 45.5315 88.2391C45.2165 86.7139 44.7216 85.1887 44.3167 83.6634C43.6418 80.927 42.9669 78.2354 42.517 75.4092C42.1121 72.8971 41.4822 70.1606 39.9975 67.9176C39.2776 66.8859 38.6928 65.7644 38.0179 64.7326C37.298 63.6559 36.8481 62.4896 36.1732 61.4578C36.1282 61.0092 36.1282 61.1887 36.0832 61.3681C34.6885 61.2335 33.3838 61.9064 32.124 62.3999C28.1197 63.97 24.7004 66.6167 21.1461 68.9943C19.1664 70.3401 16.5569 72.2242 15.4321 74.3326C15.0272 75.0952 15.0722 75.9475 15.3422 76.7101C15.6121 77.4728 16.152 78.1008 16.4669 78.9083C17.6817 81.9587 19.3014 84.9644 21.416 87.5662C23.0357 89.5401 25.0153 90.7513 27.3099 91.6485C28.8396 92.2316 30.3243 93.2186 31.1342 94.6541C32.7539 97.57 33.6537 100.8 34.9135 103.895C35.4534 105.196 35.9483 106.587 36.3982 107.933C36.6231 108.561 36.5332 109.682 36.9831 110.176C37.568 110.804 38.3778 110.4 39.0977 110.176C40.2225 109.817 41.0773 109.234 42.1121 108.65C43.7318 107.753 45.6214 107.17 47.3311 106.273C49.1758 105.286 54.3948 103.177 53.09 100.576Z" fill="#F4B796"/>
<path d="M33.6083 112.957C39.3673 130.004 44.7212 139.873 47.1508 144H92.9521C87.5981 137.271 73.5608 118.295 54.7094 99.813C53.5846 98.7363 52.7297 97.1662 51.29 96.269C50.4802 97.6597 49.5353 98.826 48.1406 99.6784C47.2408 100.262 46.5209 101.069 45.6211 101.697C44.7662 102.28 43.9564 102.863 43.1015 103.447C40.627 105.062 38.1975 106.004 35.363 106.811C34.5532 107.035 33.7883 107.305 33.0684 107.708C32.7535 107.888 31.6287 108.112 31.4487 108.426C31.2238 108.785 32.0336 109.772 32.2586 110.22C32.7985 111.073 33.2934 111.97 33.6083 112.957Z" fill="#362E56"/>
<path d="M18.8062 50.8711C18.4463 50.2879 17.9514 49.8842 17.4565 49.3907C17.0516 48.987 16.6916 48.4038 16.1517 48.1346C14.667 47.4617 13.8572 48.7627 13.9022 49.9739C13.9472 51.2299 14.4871 52.2169 15.2519 53.2486C15.2519 53.2038 15.2519 53.1589 15.2519 53.0692C16.0168 54.9982 17.4565 54.9533 18.7163 54.1458C20.066 53.3384 19.5261 52.0823 18.8062 50.8711Z" fill="#F4B796"/>
<path d="M15.207 53.3384C15.207 53.3384 15.207 53.3832 15.252 53.4281C15.252 53.3832 15.252 53.3384 15.207 53.3384Z" fill="#F4B796"/>
<path d="M18.761 58.7213C18.4911 57.6447 17.9962 56.7923 16.8714 56.5232C16.2415 56.3886 15.5666 56.4334 14.9368 56.4334C14.3069 56.4334 13.677 56.568 13.0471 56.7026C12.3722 56.8372 11.3374 57.0166 11.1125 57.4204C11.1575 58.6764 11.4724 59.5288 11.6074 60.5606C11.7424 61.5026 11.6074 62.4895 11.5624 63.4316C11.4724 64.8222 11.4274 66.2129 11.2475 67.5587C11.0675 69.0839 10.3926 71.8204 12.0123 72.8073C13.2271 73.5699 14.1719 72.8073 15.0717 71.9998C15.7466 71.3718 16.1065 70.4297 16.4665 69.5774C17.0064 68.3662 17.4113 67.1998 17.7262 65.8989C18.0412 64.5531 18.5811 63.3867 18.7161 61.9961C18.761 60.9643 19.031 59.7531 18.761 58.7213Z" fill="#F4B796"/>
<path d="M28.4797 81.0164L14.3973 78.0557C12.1028 77.5622 10.663 75.3641 11.1129 73.0762L18.1316 39.7454C18.6265 37.4575 20.8311 36.022 23.1257 36.4706L37.253 39.4762C39.5476 39.9697 40.9873 42.1678 40.5374 44.4557L33.5187 77.7865C33.0238 80.0743 30.7742 81.5099 28.4797 81.0164Z" fill="#362E56"/>
<path d="M28.8845 79.4017L14.8021 76.4409C12.5075 75.9475 11.0678 73.7493 11.5177 71.4615L18.5364 38.1306C19.0313 35.8428 21.2359 34.4073 23.5305 34.8559L37.6128 37.8166C39.9074 38.3101 41.3471 40.5082 40.8972 42.7961L33.8785 76.1269C33.3836 78.4147 31.134 79.8951 28.8845 79.4017Z" fill="#0082FE"/>
<path d="M39.2789 42.496L20.1245 38.4917L13.4034 70.454L32.5579 74.4583L39.2789 42.496Z" fill="white"/>
<path d="M33.4289 39.5661L28.1649 38.4894C28.0299 38.4446 27.9399 38.31 27.9399 38.1754V38.1305C27.9849 37.996 28.1199 37.9062 28.2549 37.9062L33.5639 39.0277C33.6989 39.0726 33.7888 39.2072 33.7888 39.3418V39.3866C33.7438 39.5212 33.6089 39.6109 33.4289 39.5661Z" fill="#362E56"/>
<path d="M37.5226 63.8351C37.2976 63.3865 37.1177 62.9379 36.8477 62.4893C36.2628 61.5472 35.543 60.964 34.5531 60.5154C33.3384 60.022 32.1686 59.7977 30.9088 59.5285C30.144 59.3491 27.1295 59.1697 26.4547 58.9902C25.5098 58.7211 23.8452 58.1827 23.4402 58.7211C22.5404 60.022 23.0803 61.9061 24.2501 62.9379C25.0599 63.6556 26.0048 64.2837 26.9946 64.6426C27.9844 65.0014 29.6041 65.2257 30.6389 65.45C31.5837 65.6295 31.5837 66.0332 32.1686 66.8407C32.8435 67.7827 33.6083 68.6799 34.1482 69.6669C34.7331 70.6986 34.8681 71.9098 34.6431 73.0313C34.3282 74.4669 34.0582 75.8575 34.1032 77.3379C34.1032 78.2351 34.5082 79.4014 35.453 79.6257C37.0727 80.0295 37.8375 77.9659 38.2874 76.7996C39.0973 74.6912 39.2323 72.1341 39.4572 69.8912C39.5472 68.7697 37.7925 64.4183 37.5226 63.8351Z" fill="#F4B796"/>
<path d="M16.5116 59.1697C16.0167 58.4071 15.2518 57.9585 14.352 57.6445C13.5871 57.3753 12.4624 57.1959 11.8775 57.0613C11.1576 56.9267 10.4377 57.9136 10.3028 58.4968C10.1228 59.1697 10.0328 60.0669 10.3028 60.6949C10.4827 61.0538 10.9326 61.1435 11.1576 61.4576C10.9326 61.637 10.6177 61.637 10.3927 61.8613C10.1678 62.0407 9.98782 62.2202 9.80786 62.4445C9.44792 62.8931 9.26796 63.4762 9.22297 64.0594C9.13298 64.7323 9.22297 65.2258 9.53791 65.8538C9.67288 66.0781 9.85285 66.3473 9.94283 66.6164C10.0328 67.0202 9.89784 67.065 9.62789 67.3791C9.043 68.0071 8.5481 68.5454 8.41312 69.3977C8.32314 70.1604 8.5031 70.8781 8.95302 71.5062C9.40293 72.1791 9.80786 72.7174 10.5277 73.0314C11.1126 73.2557 11.9225 73.5248 12.4624 73.1211C13.0472 72.7174 13.0922 71.6856 13.0922 71.0127C13.0472 70.1155 12.5973 69.5772 12.3274 68.8146C12.8673 69.0837 13.1372 69.3977 13.7671 69.2632C14.217 69.1734 14.8019 68.7248 15.0269 68.3211C15.7467 67.1548 15.1618 65.6295 14.532 64.5529C14.217 64.0146 13.8121 63.3865 13.3622 62.9828C13.7671 62.9828 14.127 63.2968 14.532 63.3865C14.9369 63.4762 15.3868 63.4314 15.7917 63.2968C16.6016 62.9828 17.1415 62.265 17.1865 61.4127C17.2315 60.5604 16.9165 59.7977 16.5116 59.1697Z" fill="#F4B796"/>
<path d="M41.3022 110.534C44.4966 109.189 47.241 106.811 49.9405 104.703C51.0203 103.895 52.1901 103.267 53.2249 102.37C53.8098 101.832 54.3497 101.428 54.7996 100.755C54.8896 100.62 54.9796 100.486 55.1145 100.351C54.9796 100.172 54.8896 99.9923 54.7546 99.768C54.5297 99.4092 54.3047 99.0054 54.0348 98.6914C52.865 101.248 50.3005 102.953 47.9609 104.568C46.4762 105.645 45.1264 106.766 43.4617 107.619C41.5271 108.65 39.4575 109.727 37.3429 110.265C35.9932 110.624 34.5984 110.714 33.2937 111.118C33.1587 111.162 33.0237 111.207 32.8438 111.252C33.0687 111.701 33.2487 112.104 33.4286 112.553C34.3285 112.284 35.2283 112.06 36.1281 111.835C37.8828 111.476 39.6825 111.207 41.3022 110.534Z" fill="#FE2992"/>
<path d="M20.7858 22.8785C19.0761 21.6225 16.9165 23.7757 16.6466 25.5253C15.3868 24.314 12.1474 24.1346 11.6975 26.243C11.2026 28.5757 13.7671 30.1907 15.5218 31.043C16.6466 31.5813 18.0413 31.7159 19.1211 32.2991C19.571 31.1327 20.5608 30.1458 21.0108 29.0243C21.8206 27.1851 22.6754 24.314 20.7858 22.8785Z" fill="#FE2992"/>
<path d="M4.4091 18.7511C5.21895 19.2895 5.98381 19.8726 6.74866 20.4558C7.24357 20.8147 7.82846 21.4876 8.45834 21.667C8.45834 21.667 8.99824 22.1605 9.35817 22.0259C8.90825 21.4427 8.1434 20.9941 7.6035 20.4558C6.97362 19.8726 6.43372 19.1997 5.80384 18.6166C5.21895 17.9885 2.47447 14.5792 1.61963 15.2072C1.79959 16.7324 3.23932 17.9437 4.4091 18.7511Z" fill="#362E56"/>
<path d="M8.86313 28.5754C8.23325 28.5305 1.93444 30.7735 1.0796 31.1324C0.629684 31.3118 -0.180164 32.209 0.449718 32.6576C1.16958 33.1062 9.0431 29.024 8.86313 28.5754Z" fill="#362E56"/>
<path d="M12.3727 7.98486C11.2479 8.56804 12.1027 10.0484 12.2377 11.1251C12.3727 11.9325 14.0374 18.7064 14.4423 19.0204C14.7123 18.4372 13.4975 8.02972 12.3727 7.98486Z" fill="#362E56"/>
<path d="M25.0153 10.0485C24.0255 10.228 21.416 17.4055 21.686 18.6168C22.3159 17.899 26.3651 9.77938 25.0153 10.0485Z" fill="#362E56"/>
<path d="M24.9701 15.6109C25.24 15.5661 26.4998 14.1754 27.0847 13.5923C27.3996 13.2782 28.7044 12.1119 28.6144 11.6633C28.3894 10.4969 27.2197 11.8876 26.9947 12.2465C26.4098 13.1437 24.8351 15.6109 24.9701 15.6109Z" fill="#362E56"/>
<path d="M24.6553 23.7754C24.8352 23.9997 26.5899 23.7306 27.1748 23.6409C27.9846 23.5063 31.179 22.8334 31.9439 22.6988C32.8437 22.5642 34.1935 22.0259 34.1935 21.7119C33.6086 20.1418 24.6553 23.3268 24.6553 23.7754Z" fill="#362E56"/>
<path d="M25.2852 28.0373C25.1953 28.2616 30.8642 30.8634 30.7742 29.5176C30.7742 29.1588 26.725 27.7681 25.2852 28.0373Z" fill="#362E56"/>
<path d="M12.6425 34.0486C12.4176 33.914 8.59328 38.8038 9.94303 39.0281C10.303 39.0729 12.5975 35.529 12.6425 34.0486Z" fill="#362E56"/>
<path d="M0.764689 20.7701C1.34958 21.0841 3.23922 21.757 3.59915 21.5327C3.46418 21.0393 2.8343 20.815 2.38438 20.5907C1.93447 20.4112 0.944655 19.6935 0.539732 19.6486C-0.540065 19.6037 0.269783 20.5009 0.764689 20.7701Z" fill="#362E56"/>
<path d="M27.2197 59.1698C26.4099 58.7661 25.51 58.5418 24.6102 58.4521C24.3403 58.4072 24.0703 58.3624 23.8454 58.4969C23.8454 58.4521 23.8454 58.4072 23.8004 58.5418C23.4854 58.811 23.4404 59.3941 23.6204 59.753C23.8004 60.1568 24.2953 60.3811 24.6552 60.5605C25.0601 60.6951 25.465 60.8297 25.87 60.9642C26.0499 61.0091 26.3199 61.0988 26.4999 61.0988C26.7698 61.054 26.7698 60.8745 26.8148 60.6054C26.8148 60.3811 26.8598 60.1119 26.9498 59.8876C27.0847 59.6184 27.2647 59.3941 27.2197 59.1698Z" fill="#F4E2D4"/>
<path d="M15.1624 59.6634C14.9374 59.4839 14.6225 59.2148 14.3526 59.125C14.0376 58.9905 13.8127 59.2148 13.5877 59.3942C13.3178 59.6634 13.1378 59.9325 12.9578 60.2465C12.8678 60.426 12.6879 61.054 12.9128 61.1437C12.9578 61.5475 13.3178 61.7269 13.5877 61.8615C13.9026 61.9961 14.2176 62.2204 14.5325 62.2652C15.1624 62.4447 15.7023 61.682 15.8823 61.1437C16.0172 60.5606 15.7023 60.0222 15.1624 59.6634Z" fill="#F4E2D4"/>
<path d="M12.4624 65.1812C12.0575 65.4953 11.3376 66.213 11.5176 66.7962C11.7426 67.3794 12.1025 67.9626 12.5974 68.142C13.1373 68.3663 13.6322 67.9626 13.9022 67.514C14.1721 66.9756 14.1271 66.3925 13.8122 65.899C13.4972 65.4504 13.0473 64.6878 12.4624 65.1812Z" fill="#F4E2D4"/>
<path d="M11.2479 69.8465C11.0229 69.6222 10.843 69.7568 10.663 69.8914C10.2581 70.1605 9.80818 70.4746 9.76318 70.968C9.76318 71.3269 9.98814 71.6409 10.1231 71.7755C10.3031 71.9998 10.4381 72.0895 10.708 72.0895C11.1129 72.1344 11.4729 72.0446 11.6978 71.6409C11.9228 71.282 11.7428 70.7886 11.6078 70.4297C11.5179 70.2951 11.3829 69.9811 11.2479 69.8465Z" fill="#F4E2D4"/>
</g>
<defs>
<clipPath id="clip0">
<rect width="159" height="144" fill="white"/>
</clipPath>
</defs>
</svg>
