<svg width="33" height="33" viewBox="0 0 33 33" fill="none" xmlns="http://www.w3.org/2000/svg">
<path d="M20.2025 10.0574C19.6033 10.0574 19.1209 9.53995 19.1209 8.90929V7.18443H14.7893V8.90929C14.7893 9.54534 14.3018 10.0574 13.7076 10.0574C13.1135 10.0574 12.626 9.53995 12.626 8.90929V7.18443C12.626 5.91773 13.5959 4.88281 14.7943 4.88281H19.126C20.3193 4.88281 21.2943 5.91234 21.2943 7.18443V8.90929C21.2842 9.53995 20.8018 10.0574 20.2025 10.0574Z" fill="#FA1492"/>
<path d="M17.7189 22.2663C17.526 22.3472 17.2416 22.4065 16.9521 22.4065C16.6627 22.4065 16.3783 22.3472 16.1193 22.2447L3.95215 17.9434V26.7186C3.95215 28.465 5.28262 29.8827 6.93301 29.8827H26.9764C28.6217 29.8827 29.9572 28.4704 29.9572 26.7186V17.9434L17.7189 22.2663Z" fill="#FA1492"/>
<path d="M29.9521 12.4961V15.1319L17.2111 19.6381C17.1248 19.6704 17.0385 19.6866 16.9521 19.6866C16.8658 19.6866 16.7795 19.6758 16.6932 19.6381L3.95215 15.1265V12.4907C3.95215 10.7443 5.28262 9.33203 6.93301 9.33203H26.9764C28.6217 9.33203 29.9521 10.7443 29.9521 12.4961Z" fill="#FA1492"/>
</svg>
