<svg id="Layer_1" data-name="Layer 1" xmlns="http://www.w3.org/2000/svg" viewBox="0 0 900 900"><defs><style>.cls-1{opacity:0.41;}.cls-2{fill:#207ef2;}.cls-3{fill:#fff;}</style></defs><g class="cls-1"><path class="cls-2" d="M604.2478,313.6957,576.03,200.8237a14.0954,14.0954,0,0,0-13.6857-10.6946H195.51a14.0953,14.0953,0,0,0-13.6857,10.6946l-28.218,112.872a13.8015,13.8015,0,0,0-.4233,3.4144,71.556,71.556,0,0,0,28.218,57.3107V571.0721a14.1142,14.1142,0,0,0,14.109,14.109H336.6a14.1142,14.1142,0,0,0,14.109-14.109v-98.763h56.436v98.763a14.1142,14.1142,0,0,0,14.109,14.109h141.09a14.1142,14.1142,0,0,0,14.109-14.109V374.4208a71.5561,71.5561,0,0,0,28.218-57.3107A13.8015,13.8015,0,0,0,604.2478,313.6957ZM548.2351,556.9631H435.3631V458.2a14.1141,14.1141,0,0,0-14.109-14.109H336.6a14.1141,14.1141,0,0,0-14.109,14.109v98.763H209.6191V386.5263a62.5864,62.5864,0,0,0,10.5817,1.1288c21.5022,0,40.634-10.6947,52.9088-27.2868,12.2748,16.5921,31.4066,27.2868,52.9087,27.2868s40.634-10.6947,52.9088-27.2868c12.2748,16.5921,31.4066,27.2868,52.9087,27.2868s40.634-10.6947,52.9088-27.2868c12.2748,16.5921,31.4066,27.2868,52.9087,27.2868a62.5876,62.5876,0,0,0,10.5818-1.1288Zm-10.5818-197.526c-21.3892,0-38.8-18.9907-38.8-42.327a14.109,14.109,0,0,0-28.218,0c0,23.3363-17.4105,42.327-38.8,42.327s-38.8-18.9907-38.8-42.327a14.109,14.109,0,0,0-28.218,0c0,23.3363-17.4105,42.327-38.8,42.327s-38.8-18.9907-38.8-42.327a14.109,14.109,0,0,0-28.218,0c0,23.3363-17.4105,42.327-38.8,42.327-20.8813,0-37.9814-18.116-38.7715-40.69l25.114-100.4H551.3391l25.114,100.4C575.6348,341.3211,558.5347,359.4371,537.6533,359.4371Z"/></g><circle class="cls-3" cx="536.0019" cy="458.6657" r="185.3054"/><path class="cls-2" d="M768.2238,618.8662l-86.6382-71.1549a29.7993,29.7993,0,0,0-15.3518-6.4779L630.17,582.1209c.6829-.5271,1.3641-1.0621,2.036-1.6033.6229-.4988,1.2362-1.0038,1.8575-1.51a28.9589,28.9589,0,0,0,9.3133,13.9071L730.01,664.0459a30.0542,30.0542,0,0,0,41.9029-3.8806A28.9786,28.9786,0,0,0,768.2238,618.8662Z"/><path class="cls-2" d="M543.4932,629.709c-93.1636,0-168.958-75.794-168.958-168.958S450.33,291.7939,543.4932,291.7939,712.45,367.5879,712.45,460.751,636.6563,629.709,543.4932,629.709Zm0-307.9151c-76.6221,0-138.958,62.336-138.958,138.9571s62.3359,138.958,138.958,138.958S682.45,537.373,682.45,460.751,620.1143,321.7939,543.4932,321.7939Z"/><rect class="cls-2" x="468.0816" y="393.5559" width="29.617" height="57.1915" rx="11.7414"/><rect class="cls-2" x="582.7136" y="393.5559" width="29.617" height="57.1915" rx="11.7414"/><path class="cls-2" d="M482.8838,540.2813a12.5,12.5,0,0,1-9.5889-20.5108c7.9522-9.5254,25.3545-26.2148,52.5518-30.96,22.4463-3.913,40.3349,2.5225,46.2129,4.64a96.9985,96.9985,0,0,1,38.7119,25.917,12.5,12.5,0,1,1-18.4883,16.8281,72.0082,72.0082,0,0,0-28.69-19.2226c-4.7959-1.7266-17.5323-6.3125-33.4492-3.5332-19.3457,3.375-31.8975,15.4531-37.6573,22.3525A12.4757,12.4757,0,0,1,482.8838,540.2813Z"/></svg>