<svg width="41" height="42" viewBox="0 0 41 42" fill="none" xmlns="http://www.w3.org/2000/svg">
<circle cx="20.4715" cy="20.9662" r="20.3036" fill="#FD537F"/>
<path d="M15.5517 17.4766L16.5555 10.8145H11.3349L9.15357 16.5248C9.08631 16.7279 9.05078 16.9385 9.05078 17.1593C9.05078 18.5603 10.5101 19.6973 12.3133 19.6973C13.9757 19.6973 15.35 18.7278 15.5517 17.4766ZM20.4715 19.6973C22.2735 19.6973 23.7341 18.5603 23.7341 17.1593C23.7341 17.1073 23.7303 17.0553 23.7277 17.0058L23.0818 10.8145H17.8613L17.2141 17.0007C17.2115 17.0527 17.209 17.1048 17.209 17.1593C17.209 18.5603 18.6696 19.6973 20.4715 19.6973ZM26.8164 21.0246V26.0421H14.1267V21.0322C13.5709 21.2327 12.9592 21.3469 12.3133 21.3469C12.0659 21.3469 11.826 21.3177 11.5887 21.2847V29.3415C11.5887 30.3186 12.3869 31.118 13.3628 31.118H27.5778C28.5549 31.118 29.3543 30.3173 29.3543 29.3415V21.286C29.1145 21.3228 28.8724 21.3436 28.6298 21.3482C28.011 21.3476 27.3972 21.238 26.8164 21.0246ZM31.7908 16.5248L29.6069 10.8145H24.3876L25.3901 17.4664C25.5855 18.7227 26.9598 19.6973 28.6298 19.6973C30.4317 19.6973 31.8923 18.5603 31.8923 17.1593C31.8923 16.9385 31.8568 16.7279 31.7908 16.5248Z" fill="white"/>
</svg>
