<svg width="32" height="32" viewBox="0 0 32 32" fill="none" xmlns="http://www.w3.org/2000/svg">
<path fill-rule="evenodd" clip-rule="evenodd" d="M16 0C7.16344 0 0 7.16344 0 16C0 24.8366 7.16344 32 16 32C24.8366 32 32 24.8366 32 16C32 7.16344 24.8366 0 16 0ZM22.6678 10.4995C23.4021 10.701 23.9805 11.2948 24.1767 12.0488C24.5334 13.4153 24.5334 16.2666 24.5334 16.2666C24.5334 16.2666 24.5334 19.1178 24.1767 20.4845C23.9805 21.2385 23.4021 21.8322 22.6678 22.0338C21.337 22.4 16 22.4 16 22.4C16 22.4 10.6631 22.4 9.33221 22.0338C8.59786 21.8322 8.01953 21.2385 7.82327 20.4845C7.46671 19.1178 7.46671 16.2666 7.46671 16.2666C7.46671 16.2666 7.46671 13.4153 7.82327 12.0488C8.01953 11.2948 8.59786 10.701 9.33221 10.4995C10.6631 10.1333 16 10.1333 16 10.1333C16 10.1333 21.337 10.1333 22.6678 10.4995Z" fill="white"/>
<path d="M14.4004 19.2005V13.8672L18.6671 16.534L14.4004 19.2005Z" fill="white"/>
</svg>
