<svg width="27" height="26" viewBox="0 0 27 26" fill="none" xmlns="http://www.w3.org/2000/svg">
<path d="M24.6669 11.3341H6.0502L14.1835 3.20075C14.8335 2.55075 14.8335 1.48409 14.1835 0.834086C14.0293 0.67958 13.8462 0.557001 13.6446 0.473365C13.443 0.389729 13.2268 0.34668 13.0085 0.34668C12.7903 0.34668 12.5741 0.389729 12.3725 0.473365C12.1709 0.557001 11.9877 0.67958 11.8335 0.834086L0.8502 11.8174C0.695694 11.9716 0.573115 12.1548 0.489479 12.3564C0.405843 12.558 0.362793 12.7741 0.362793 12.9924C0.362793 13.2107 0.405843 13.4268 0.489479 13.6285C0.573115 13.8301 0.695694 14.0132 0.8502 14.1674L11.8335 25.1507C11.9878 25.3051 12.171 25.4275 12.3726 25.511C12.5742 25.5945 12.7903 25.6374 13.0085 25.6374C13.2268 25.6374 13.4428 25.5945 13.6444 25.511C13.846 25.4275 14.0292 25.3051 14.1835 25.1507C14.3378 24.9964 14.4602 24.8133 14.5437 24.6117C14.6273 24.41 14.6702 24.194 14.6702 23.9757C14.6702 23.7575 14.6273 23.5415 14.5437 23.3398C14.4602 23.1382 14.3378 22.955 14.1835 22.8007L6.0502 14.6674H24.6669C25.5835 14.6674 26.3335 13.9174 26.3335 13.0008C26.3335 12.0841 25.5835 11.3341 24.6669 11.3341Z" fill="#828282"/>
</svg>
