<svg height="512pt" viewBox="0 0 512.001 512" width="512pt" xmlns="http://www.w3.org/2000/svg"><path d="m512 373.980469c0-2.929688-.855469-5.65625-2.308594-7.96875l-39.292968-86.359375c-14.425782-31.703125-49.085938-52.183594-88.300782-52.183594h-35.433594v-20.179688c0-11.1875-7.390624-20.683593-17.542968-23.863281 14.734375-26.699219 26.257812-56.410156 26.257812-84.042969 0-54.796874-44.582031-99.382812-99.382812-99.382812-54.800782 0-99.386719 44.585938-99.386719 99.382812 0 27.242188 11.203125 56.5 25.636719 82.90625h-167.246094c-8.285156 0-15 6.71875-15 15 0 8.285157 6.714844 15 15 15h33.734375v30.003907h-12.734375c-8.285156 0-15 6.714843-15 15 0 8.28125 6.714844 15 15 15h12.734375v28.71875h-33.734375c-8.285156 0-15 6.714843-15 15 0 8.28125 6.714844 15 15 15h33.734375v118.503906c0 8.285156 6.714844 15 15 15h42.613281c1.328125 26.398437 23.21875 47.464844 49.9375 47.464844 26.722656 0 48.613282-21.066407 49.9375-47.464844l165.875.503906c1.578125 26.160157 23.351563 46.960938 49.902344 46.960938s48.324219-20.800781 49.898438-46.960938h25.101562c8.285156 0 15-6.71875 15-15.003906v-75.675781c0-.058594-.007812-.117188-.007812-.175782 0-.058593.007812-.121093.007812-.183593zm-61.527344-65.683594 23.0625 50.683594h-66.871094v-40.269531c0-5.546876 7.011719-10.414063 15.003907-10.414063zm-194.476562-278.296875c38.257812 0 69.382812 31.125 69.382812 69.382812 0 28.519532-16.265625 61.453126-34.152344 89.054688-.359374.484375-.691406.988281-.988281 1.519531-12.371093 18.890625-25.386719 35.15625-34.242187 45.601563-8.867188-10.453125-21.894532-26.742188-34.273438-45.652344-.285156-.503906-.601562-.980469-.9375-1.445312-17.894531-27.605469-34.171875-60.550782-34.171875-89.078126 0-38.257812 31.125-69.382812 69.382813-69.382812zm-177.261719 301.011719h42.550781c8.285156 0 15-6.71875 15-15.003907 0-8.28125-6.714844-15-15-15h-42.550781v-28.71875h91.730469c8.28125 0 15-6.714843 15-15 0-8.28125-6.71875-15-15-15h-91.730469v-30h121.875c21.316406 31.585938 42.726563 54.371094 44.503906 56.242188 2.832031 2.988281 6.765625 4.675781 10.882813 4.675781 4.113281 0 8.050781-1.6875 10.882812-4.675781 1.773438-1.871094 23.1875-24.65625 44.503906-56.242188h5.28125v222.226563h-118.625c-8.953124-13.5625-24.320312-22.535156-41.753906-22.535156s-32.800781 8.972656-41.753906 22.535156h-35.796875zm77.550781 150.96875c-11.027344 0-20-8.972657-20-20 0-11.027344 8.972656-20 20-20s20 8.972656 20 20c0 11.027343-8.972656 20-20 20zm265.714844 0c-11.03125 0-20.003906-8.972657-20.003906-20 0-1.867188.277344-3.667969.757812-5.382813.453125-.921875.808594-1.890625 1.066406-2.90625 3.15625-6.898437 10.109376-11.710937 18.179688-11.710937s15.019531 4.8125 18.179688 11.710937c.257812 1.015625.613281 1.984375 1.0625 2.90625.484374 1.714844.757812 3.515625.757812 5.382813 0 11.027343-8.972656 20-20 20zm42.074219-46.964844c-8.902344-13.839844-24.429688-23.035156-42.074219-23.035156s-33.171875 9.195312-42.074219 23.035156h-33.261719v-177.546875h35.433594c20.488282 0 39.503906 7.972656 51.628906 20.828125h-12.058593c-24.816407 0-45.003907 18.128906-45.003907 40.414063v55.273437c0 8.28125 6.71875 15 15 15h90.335938v46.03125zm0 0"/><path d="m255.996094 128.800781c16.542968 0 30-13.457031 30-30s-13.457032-30-30-30c-16.542969 0-30 13.457031-30 30s13.457031 30 30 30zm0 0"/></svg>