<svg width="49" height="49" viewBox="0 0 49 49" fill="none" xmlns="http://www.w3.org/2000/svg">
<path d="M44.4482 24.8828C44.4482 30.1871 42.3411 35.2742 38.5904 39.0249C34.8396 42.7757 29.7526 44.8828 24.4482 44.8828C19.1439 44.8828 14.0568 42.7757 10.3061 39.0249C6.55538 35.2742 4.44824 30.1871 4.44824 24.8828C4.44824 19.5785 6.55538 14.4914 10.3061 10.7407C14.0568 6.98995 19.1439 4.88281 24.4482 4.88281C29.7526 4.88281 34.8396 6.98995 38.5904 10.7407C42.3411 14.4914 44.4482 19.5785 44.4482 24.8828ZM22.4482 26.8828V32.8828C22.4482 33.4132 22.659 33.922 23.034 34.297C23.4091 34.6721 23.9178 34.8828 24.4482 34.8828C24.9787 34.8828 25.4874 34.6721 25.8625 34.297C26.2375 33.922 26.4482 33.4132 26.4482 32.8828V26.8828C26.4482 26.3524 26.2375 25.8437 25.8625 25.4686C25.4874 25.0935 24.9787 24.8828 24.4482 24.8828C23.9178 24.8828 23.4091 25.0935 23.034 25.4686C22.659 25.8437 22.4482 26.3524 22.4482 26.8828ZM24.4482 15.8828C23.6526 15.8828 22.8895 16.1989 22.3269 16.7615C21.7643 17.3241 21.4482 18.0872 21.4482 18.8828C21.4482 19.6785 21.7643 20.4415 22.3269 21.0041C22.8895 21.5667 23.6526 21.8828 24.4482 21.8828C25.2439 21.8828 26.007 21.5667 26.5696 21.0041C27.1322 20.4415 27.4482 19.6785 27.4482 18.8828C27.4482 18.0872 27.1322 17.3241 26.5696 16.7615C26.007 16.1989 25.2439 15.8828 24.4482 15.8828Z" fill="#1778F2"/>
</svg>
