<svg width="30" height="30" viewBox="0 0 30 30" fill="none" xmlns="http://www.w3.org/2000/svg">
<path fill-rule="evenodd" clip-rule="evenodd" d="M15 0C6.71573 0 0 6.71573 0 15C0 23.2843 6.71573 30 15 30C23.2843 30 30 23.2843 30 15C30 6.71573 23.2843 0 15 0ZM11.7021 7.04826C12.5554 7.00943 12.8281 6.99993 15.0008 6.99993H14.9983C17.1716 6.99993 17.4433 7.00943 18.2967 7.04826C19.1483 7.08726 19.73 7.2221 20.24 7.41993C20.7667 7.6241 21.2117 7.89744 21.6567 8.34244C22.1017 8.78711 22.375 9.23345 22.58 9.75962C22.7767 10.2683 22.9117 10.8496 22.9517 11.7013C22.99 12.5547 23 12.8273 23 15C23 17.1727 22.99 17.4447 22.9517 18.298C22.9117 19.1494 22.7767 19.7309 22.58 20.2397C22.375 20.7657 22.1017 21.2121 21.6567 21.6567C21.2122 22.1017 20.7665 22.3758 20.2405 22.5801C19.7315 22.7779 19.1495 22.9128 18.2978 22.9518C17.4445 22.9906 17.1726 23.0001 14.9998 23.0001C12.8273 23.0001 12.5548 22.9906 11.7014 22.9518C10.8499 22.9128 10.2684 22.7779 9.7594 22.5801C9.23356 22.3758 8.78722 22.1017 8.34272 21.6567C7.89788 21.2121 7.62455 20.7657 7.42004 20.2396C7.22237 19.7309 7.08754 19.1496 7.04837 18.2979C7.00971 17.4445 7.00004 17.1727 7.00004 15C7.00004 12.8273 7.01004 12.5545 7.04821 11.7011C7.08654 10.8498 7.22154 10.2683 7.41988 9.75946C7.62488 9.23345 7.89821 8.78711 8.34322 8.34244C8.78789 7.8976 9.23423 7.62427 9.7604 7.41993C10.2691 7.2221 10.8504 7.08726 11.7021 7.04826Z" fill="#4F4F4F"/>
<path fill-rule="evenodd" clip-rule="evenodd" d="M14.2821 8.44194C14.4215 8.44172 14.5714 8.44179 14.7332 8.44186L14.9998 8.44194C17.1358 8.44194 17.389 8.44961 18.2325 8.48794C19.0125 8.52361 19.4359 8.65394 19.7179 8.76344C20.0912 8.90845 20.3574 9.08178 20.6372 9.36178C20.9172 9.64179 21.0905 9.90846 21.2359 10.2818C21.3454 10.5635 21.4759 10.9868 21.5114 11.7668C21.5497 12.6102 21.558 12.8635 21.558 14.9985C21.558 17.1335 21.5497 17.3869 21.5114 18.2302C21.4757 19.0102 21.3454 19.4336 21.2359 19.7152C21.0909 20.0886 20.9172 20.3544 20.6372 20.6342C20.3572 20.9142 20.0914 21.0876 19.7179 21.2326C19.4362 21.3426 19.0125 21.4726 18.2325 21.5082C17.3892 21.5466 17.1358 21.5549 14.9998 21.5549C12.8636 21.5549 12.6105 21.5466 11.7671 21.5082C10.9871 21.4722 10.5638 21.3419 10.2816 21.2324C9.90826 21.0874 9.64159 20.9141 9.36158 20.6341C9.08158 20.3541 8.90824 20.0881 8.76291 19.7146C8.65341 19.4329 8.52291 19.0096 8.48741 18.2295C8.44907 17.3862 8.44141 17.1329 8.44141 14.9965C8.44141 12.8602 8.44907 12.6082 8.48741 11.7648C8.52307 10.9848 8.65341 10.5615 8.76291 10.2795C8.90791 9.90612 9.08158 9.63945 9.36158 9.35945C9.64159 9.07945 9.90826 8.90611 10.2816 8.76078C10.5636 8.65078 10.9871 8.52078 11.7671 8.48494C12.5051 8.45161 12.7911 8.44161 14.2821 8.43994V8.44194ZM19.2702 9.77024C18.7402 9.77024 18.3102 10.1997 18.3102 10.7299C18.3102 11.2599 18.7402 11.6899 19.2702 11.6899C19.8002 11.6899 20.2302 11.2599 20.2302 10.7299C20.2302 10.1999 19.8002 9.76991 19.2702 9.76991V9.77024ZM10.8914 15.0003C10.8914 12.7315 12.7309 10.892 14.9997 10.892C17.2685 10.892 19.1075 12.7315 19.1075 15.0003C19.1075 17.2692 17.2687 19.1079 14.9998 19.1079C12.731 19.1079 10.8914 17.2692 10.8914 15.0003Z" fill="#4F4F4F"/>
<path d="M15.0007 12.3335C16.4734 12.3335 17.6674 13.5273 17.6674 15.0002C17.6674 16.4729 16.4734 17.6669 15.0007 17.6669C13.5278 17.6669 12.334 16.4729 12.334 15.0002C12.334 13.5273 13.5278 12.3335 15.0007 12.3335Z" fill="#4F4F4F"/>
</svg>
