<svg id="Layer_1" data-name="Layer 1" xmlns="http://www.w3.org/2000/svg" viewBox="0 0 724.21 141.55"><defs><style>.cls-1{fill:#ed0180;}.cls-2{fill:#009fe0;}.cls-3{fill:#7c1451;}.cls-4{fill:#fff;}.cls-5{fill:#58595b;}</style></defs><path class="cls-1" d="M556.64,70.77l-12.5-15.64h12.7L566.9,70.77ZM397,90.33a49.51,49.51,0,0,1-1.39,9l-6,28.49H374.31l5.93-28.11c.5-2.84,1.75-6.94-.33-9.37A4.41,4.41,0,0,0,376.38,89c-4.81,0-9.34,5.25-11.44,9.12a19.73,19.73,0,0,0-2,5.37l-5.11,24.35H342.35l7.31-33.8c1-5.13,2-10.29,2.64-15.49h15a75.58,75.58,0,0,1-1.2,9.48h.2c4.13-5.47,11.19-10.68,18.34-10.68q6.1,0,9.22,3.38t3.1,9.57ZM339.36,70.77h-9.21l-5.39-6.6-8.71,6.6H305.9l13.52-12h11.51Zm-27.45-7.28h-8.53l-11.1-11.83h13.47Zm13.31,25c-5.52-1.1-10.91-.54-15.2,3.52-3.48,3.4-5.47,8.44-6.16,13.2-.6,4.48-.66,12.17,5.72,12.17,3.85,0,6.65-2.58,8.63-5.65a35.72,35.72,0,0,0,4.45-11.72Zm10.36,23.08c-.23,1-.45,2.2-.66,3.59a89.76,89.76,0,0,0-1.18,12.67h-15.4a69.25,69.25,0,0,1,.67-8.38h-.19c-4.17,5.55-8,9.58-15.45,9.58-13.75,0-16.26-13.71-14.63-24.61,2.7-17.22,15.35-27.08,32.77-27.08A94.6,94.6,0,0,1,342.31,80ZM269,88.53c-3.89-.78-8.39-.83-11.91,1.17-4.26,2.36-7,6.6-8.5,11.16-3.23,10,1.38,23.57,11.24,13.7,3.42-3.48,5.64-9.65,6.61-14.37ZM277.14,122a63.87,63.87,0,0,1-3.61,11.78,26.22,26.22,0,0,1-15.79,15.15,41.16,41.16,0,0,1-30.29-1.48l2.7-12.22c5.92,3.95,13.91,6.1,20.82,3.61,8.26-2.94,9.77-11.29,11.3-18.91h-.19c-4.79,7.13-13,11.92-21.55,7.82-9.11-4.44-9.53-16.86-7.65-25.47,2.5-11.47,10-20.22,21.49-23.57,9.13-2.65,22.31-.71,31.68,1.2ZM463.42,90.33a48.68,48.68,0,0,1-1.4,9l-6,28.49H440.74l5.94-28.11c.5-2.84,1.75-6.94-.33-9.37A4.42,4.42,0,0,0,442.81,89c-4.81,0-9.34,5.25-11.43,9.12a19.73,19.73,0,0,0-2,5.37l-5.11,24.35h-15.5l7.32-33.8c1-5.13,2-10.29,2.64-15.49h15a75.58,75.58,0,0,1-1.2,9.48h.2c4.13-5.47,11.19-10.68,18.34-10.68q6.11,0,9.22,3.38T463.42,90.33Zm56.79,0a48.68,48.68,0,0,1-1.4,9l-6,28.49H497.53l5.93-28.11c.51-2.84,1.76-6.94-.32-9.37A4.43,4.43,0,0,0,499.6,89c-4.81,0-9.34,5.25-11.43,9.12a19.73,19.73,0,0,0-2,5.37l-5.11,24.35h-15.5L481.07,55h15l-6.74,33.06h.2c4.13-5.47,11.19-10.68,18.34-10.68q6.11,0,9.21,3.38T520.21,90.33Zm39.32-1.8c-5.53-1.1-10.91-.54-15.2,3.52-3.48,3.39-5.47,8.44-6.16,13.2-.6,4.48-.66,12.17,5.72,12.17,3.85,0,6.65-2.58,8.63-5.65A35.72,35.72,0,0,0,557,100.05Zm10.36,23.08c-.23,1-.45,2.2-.66,3.59a88.31,88.31,0,0,0-1.18,12.67h-15.4a69.25,69.25,0,0,1,.67-8.38h-.2c-4.16,5.55-8,9.58-15.44,9.58-13.75,0-16.27-13.71-14.63-24.61,2.7-17.22,15.35-27.08,32.77-27.08A94.6,94.6,0,0,1,576.62,80Z" transform="translate(-64.06 -33.94)"/><path class="cls-2" d="M788.27,90.33a49.51,49.51,0,0,1-1.39,9l-6,28.49H765.6l6-28.11a34.16,34.16,0,0,0,.87-5.69c0-3.15-1.44-5-4.71-5-2.9,0-6,2.48-7.83,4.52a22,22,0,0,0-5.27,10l-5.06,24.35H734.26l6-28.11c.37-1.92,1.07-4.59.77-6.83-.35-2.62-2-3.9-4.62-3.9-3,0-6,2.44-7.86,4.55a22.46,22.46,0,0,0-5.19,9.94l-5.21,24.35H702.78c2.75-12.73,5.65-25.48,8.18-38.25.72-3.61,1.33-7.39,1.78-11h15a75.58,75.58,0,0,1-1.2,9.48h.2c4.16-5.43,10.89-10.68,18-10.68q5.77,0,8.71,3a13.22,13.22,0,0,1,3.42,8.28,34.57,34.57,0,0,1,4-4.56c4.08-3.9,9.39-6.69,15.12-6.69q6.12,0,9.22,3.33t3.1,9.62M678.54,89c-6.64,0-10.51,6.68-11.95,12.37s-1.87,16,6.51,16c6.73,0,10.54-6.38,11.93-12.22C686.36,99.62,686.9,89,678.54,89Zm19.88,23.17c-4.75,11.28-14.23,16.87-26.49,16.87a26.26,26.26,0,0,1-9.54-1.57c-11.2-4.41-13.4-15.78-11.24-26.51,2.81-14.53,13.66-23.61,28.69-23.61,5.78,0,11.61,1.45,15.81,5.65,7.38,7.38,6.5,20.24,2.77,29.17ZM648.49,92.1A16.87,16.87,0,0,0,638.61,89c-7,0-12.12,5.36-14.2,11.7-2.44,7.43-1.32,16.69,8.19,16.69a24.77,24.77,0,0,0,11.65-3.56l-2.37,11.65c-6.57,3.41-15.84,5-22.84,2.07A16.48,16.48,0,0,1,613,123.4c-5.38-5.92-5.75-15.28-4-22.71,3.39-14.16,14.77-23.31,29.53-23.31,4,0,9.16.79,12.72,2.79ZM599,120.89c0,5.15-4.31,8.18-9.15,8.18-4.45,0-8.61-2.73-8.61-7.51,0-5.19,4.4-8.28,9.28-8.28C595,113.28,599,116.13,599,120.89Z" transform="translate(-64.06 -33.94)"/><path class="cls-1" d="M193.17,37.9v4.58h2.1a2.84,2.84,0,0,0,1.89-.6,2,2,0,0,0,.71-1.67q0-2.31-2.88-2.31Zm5,10.71-1.39-3a4.87,4.87,0,0,0-1.16-1.75,2,2,0,0,0-1.27-.44h-1.16v5.17h-1.24V36.94h3.19a4.66,4.66,0,0,1,3,.84,2.68,2.68,0,0,1,1,2.23c0,1.79-1,2.86-3,3.23v0c.68.14,1.31.85,1.91,2.12l1.55,3.2ZM195.23,35a7.57,7.57,0,0,0-5.6,2.36,8.08,8.08,0,0,0,0,11.35A7.58,7.58,0,0,0,195.23,51a8,8,0,0,0,5.69-13.7A7.8,7.8,0,0,0,195.23,35ZM195.29,52a8.73,8.73,0,0,1-6.43-2.64,9.05,9.05,0,0,1,0-12.81h0a9.08,9.08,0,0,1,12.9,12.77l-.05,0A8.69,8.69,0,0,1,195.29,52Z" transform="translate(-64.06 -33.94)"/><path class="cls-1" d="M134.18,174.68a70.12,70.12,0,1,0-70.12-70.12h0a70.12,70.12,0,0,0,70.12,70.12h0" transform="translate(-64.06 -33.94)"/><path class="cls-3" d="M106.45,142.52h0l10.65-60.8c.83-4.72,5.67-4.5,7.68-1.41l26.78,45.57,8.79-49.45a7.68,7.68,0,1,1,8.2,1.4L157.9,138.4a4.16,4.16,0,0,1-7.68,1.43L123.39,94.19,114.67,144a7.69,7.69,0,1,1-8.22-1.43" transform="translate(-64.06 -33.94)"/><path class="cls-4" d="M103.14,136.9q5.34-30.41,10.66-60.8c.82-4.72,5.67-4.5,7.67-1.41l26.79,45.57,8.79-49.45a7.6,7.6,0,0,1-2.39-7.08,7.7,7.7,0,1,1,10.59,8.48l-10.68,60.58a4.16,4.16,0,0,1-7.68,1.43L120.06,88.58l-8.72,49.76a7.68,7.68,0,1,1-8.2-1.44" transform="translate(-64.06 -33.94)"/><path class="cls-5" d="M316.13,167.14h-2.89l3.53-16.67c.14-.66.32-1.41.54-2.24s.48-1.74.76-2.7H318a9.3,9.3,0,0,1-.52.93c-.2.34-.42.67-.65,1l-.61.85c-.19.26-.32.45-.4.58l-8.89,11.78h-1.42l-3.88-11.75a4.5,4.5,0,0,0-.17-.6c-.09-.26-.17-.55-.25-.86s-.15-.65-.22-1a5,5,0,0,1-.09-.94h-.07c-.07.5-.18,1.17-.34,2s-.35,1.83-.58,3l-3.54,16.63h-2.8l5.27-24.85h3.46l3.94,11.82a14.29,14.29,0,0,1,.4,1.46,9.2,9.2,0,0,1,.19,1.17h.1c.18-.34.41-.75.68-1.21a11.55,11.55,0,0,1,1-1.49l8.92-11.75h3.85Z" transform="translate(-64.06 -33.94)"/><path class="cls-5" d="M337.43,162.1c-.1.45-.2.92-.28,1.4s-.17,1-.25,1.41-.15.87-.21,1.26-.11.72-.14,1h-2.77c.05-.45.12-.92.2-1.41s.14-.94.21-1.36.16-1,.23-1.42h-.07a14.64,14.64,0,0,1-1.34,1.79,10.18,10.18,0,0,1-1.6,1.48,7.48,7.48,0,0,1-1.82,1,5.5,5.5,0,0,1-2,.37,5.28,5.28,0,0,1-2-.36,3.87,3.87,0,0,1-1.43-1,4.23,4.23,0,0,1-.86-1.55,6.84,6.84,0,0,1-.29-2,5.08,5.08,0,0,1,.07-.67c.05-.3.1-.63.16-1s.12-.69.2-1l.18-.87,2.06-9.72h2.88l-2.2,10.4c-.05.18-.09.39-.14.64s-.09.48-.13.72-.07.47-.1.67a3.87,3.87,0,0,0,0,.48,3.2,3.2,0,0,0,.63,2.07,2.32,2.32,0,0,0,1.9.77,4.06,4.06,0,0,0,1.53-.31,7.23,7.23,0,0,0,1.48-.84,9.94,9.94,0,0,0,1.36-1.23,13.84,13.84,0,0,0,1.16-1.49,10.61,10.61,0,0,0,.88-1.62,9.13,9.13,0,0,0,.54-1.6l1.86-8.66h2.86Z" transform="translate(-64.06 -33.94)"/><path class="cls-5" d="M356.81,161.46c-.09.44-.18.93-.27,1.48s-.16,1.09-.22,1.63-.12,1-.16,1.5-.06.82-.06,1.07h-3c0-.23,0-.5.06-.83s.05-.66.09-1,.08-.69.12-1,.09-.63.13-.87h-.07c-.35.56-.72,1.1-1.09,1.6a7.39,7.39,0,0,1-1.23,1.33,5.5,5.5,0,0,1-1.51.9,5.74,5.74,0,0,1-4.08-.09,4.39,4.39,0,0,1-1.65-1.24,5.56,5.56,0,0,1-1.07-2.06,10.06,10.06,0,0,1-.37-2.89,14.54,14.54,0,0,1,.21-2.28,13.16,13.16,0,0,1,.7-2.62,12.79,12.79,0,0,1,1.32-2.61,9.62,9.62,0,0,1,4.93-3.89,11.15,11.15,0,0,1,3.84-.61,19.46,19.46,0,0,1,2.86.21c1,.14,2,.31,2.93.5Zm-.81-9.72a13.26,13.26,0,0,0-1.42-.25,13.1,13.1,0,0,0-1.53-.1,6.74,6.74,0,0,0-2.66.48,6.91,6.91,0,0,0-2,1.24,7.41,7.41,0,0,0-1.43,1.78,11.12,11.12,0,0,0-.93,2.05,12.33,12.33,0,0,0-.49,2.08,11.45,11.45,0,0,0-.15,1.85,8.2,8.2,0,0,0,.17,1.78,3.92,3.92,0,0,0,.55,1.34,2.61,2.61,0,0,0,.95.86,3,3,0,0,0,1.38.3,3.78,3.78,0,0,0,1.62-.35,5.45,5.45,0,0,0,1.41-1,7.6,7.6,0,0,0,1.2-1.4,13.44,13.44,0,0,0,1-1.69,15.08,15.08,0,0,0,.74-1.82c.2-.62.36-1.21.49-1.79Z" transform="translate(-64.06 -33.94)"/><path class="cls-5" d="M384.85,165.86a21.44,21.44,0,0,1-1.14,3.84,10.22,10.22,0,0,1-1.88,3.05,8,8,0,0,1-2.89,2,10.63,10.63,0,0,1-4.17.72,9.57,9.57,0,0,1-3-.4,12.71,12.71,0,0,1-2.29-1l.53-2.65a14.22,14.22,0,0,0,2.33,1.11A7.93,7.93,0,0,0,375,173a7.44,7.44,0,0,0,2.68-.45,5.34,5.34,0,0,0,2-1.33,7.31,7.31,0,0,0,1.37-2.14,15.4,15.4,0,0,0,.91-2.89l.61-2.78h-.07a16.74,16.74,0,0,1-1.29,1.83,7.33,7.33,0,0,1-1.33,1.28,5.32,5.32,0,0,1-1.45.77,5.78,5.78,0,0,1-3.85-.18,4.45,4.45,0,0,1-1.66-1.25,6.1,6.1,0,0,1-1-2.08,10,10,0,0,1-.38-2.88,14,14,0,0,1,.34-3,13.35,13.35,0,0,1,1-2.83,11.88,11.88,0,0,1,1.57-2.45,10.18,10.18,0,0,1,2.11-1.93,9.69,9.69,0,0,1,5.61-1.74,24.91,24.91,0,0,1,3.23.21c1.07.14,2.06.3,3,.47Zm.14-14.12a13.79,13.79,0,0,0-1.43-.25,15.22,15.22,0,0,0-1.79-.1,6.08,6.08,0,0,0-3,.75,7.52,7.52,0,0,0-2.33,2.05,9.73,9.73,0,0,0-1.53,3,11.68,11.68,0,0,0-.54,3.62,8.38,8.38,0,0,0,.16,1.73,4.14,4.14,0,0,0,.52,1.37,2.54,2.54,0,0,0,2.3,1.23,3.85,3.85,0,0,0,1.76-.4,6.12,6.12,0,0,0,1.48-1.05,8.23,8.23,0,0,0,1.2-1.5,15.34,15.34,0,0,0,1.62-3.47c.19-.57.33-1.09.44-1.55Z" transform="translate(-64.06 -33.94)"/><path class="cls-5" d="M405.05,161.46c-.1.44-.19.93-.27,1.48s-.16,1.09-.23,1.63-.11,1-.15,1.5-.06.82-.06,1.07h-2.95c0-.23,0-.5.05-.83s.06-.66.1-1,.08-.69.12-1,.08-.63.13-.87h-.07c-.36.56-.72,1.1-1.09,1.6a7.77,7.77,0,0,1-1.23,1.33,5.5,5.5,0,0,1-1.51.9,5.74,5.74,0,0,1-4.08-.09,4.5,4.5,0,0,1-1.66-1.24,5.69,5.69,0,0,1-1.06-2.06,10.07,10.07,0,0,1-.38-2.89,14.8,14.8,0,0,1,.91-4.9,13.9,13.9,0,0,1,1.32-2.61,9.89,9.89,0,0,1,2.05-2.28,9.72,9.72,0,0,1,2.88-1.61,11.21,11.21,0,0,1,3.85-.61,19.56,19.56,0,0,1,2.86.21c1,.14,2,.31,2.93.5Zm-6.71-18.06H396.5l-3.27-4.26h2.91Zm5.89,8.34a13.66,13.66,0,0,0-2.94-.35,6.71,6.71,0,0,0-2.66.48,6.82,6.82,0,0,0-2,1.24,7.66,7.66,0,0,0-1.43,1.78,10.46,10.46,0,0,0-.92,2.05,12.36,12.36,0,0,0-.5,2.08,14.27,14.27,0,0,0-.15,1.85,8.88,8.88,0,0,0,.18,1.78,3.82,3.82,0,0,0,.54,1.34,2.57,2.57,0,0,0,1,.86,3,3,0,0,0,1.37.3,3.83,3.83,0,0,0,1.63-.35,5.62,5.62,0,0,0,1.41-1,7.6,7.6,0,0,0,1.19-1.4,12.31,12.31,0,0,0,1-1.69,13.61,13.61,0,0,0,.74-1.82c.2-.62.37-1.21.5-1.79Zm.21-5.72-2-2.59L398.77,146h-2.1l4.91-4.32h2.31L406.4,146Z" transform="translate(-64.06 -33.94)"/><path class="cls-5" d="M426.73,153.83c0,.24,0,.48-.06.71s-.09.63-.16,1-.12.69-.19,1-.12.63-.18.87l-2.06,9.72H421.2l2.17-10.39c0-.19.09-.4.14-.65l.12-.72c0-.25.06-.47.08-.67s0-.32,0-.48a3.19,3.19,0,0,0-.63-2.08,2.31,2.31,0,0,0-1.88-.76,4.34,4.34,0,0,0-2.27.68,8.79,8.79,0,0,0-2.08,1.71,11.53,11.53,0,0,0-1.64,2.29,8.61,8.61,0,0,0-.93,2.41l-1.85,8.66h-2.88l2.74-12.67q.14-.67.27-1.41c.1-.49.18-1,.26-1.42s.15-.88.21-1.27.11-.72.14-1H416c-.05.45-.12.92-.2,1.41s-.15.94-.21,1.36-.15,1-.23,1.42h.07a13.76,13.76,0,0,1,1.35-1.79,10.15,10.15,0,0,1,1.59-1.48,7.48,7.48,0,0,1,1.82-1,5.56,5.56,0,0,1,2-.37,5.44,5.44,0,0,1,2,.36,3.79,3.79,0,0,1,1.41,1,3.91,3.91,0,0,1,.83,1.54A6.56,6.56,0,0,1,426.73,153.83Z" transform="translate(-64.06 -33.94)"/><path class="cls-5" d="M450.06,158.37h-9.48l.5-2.23h9.48Z" transform="translate(-64.06 -33.94)"/><path class="cls-5" d="M482.21,167.14h-3l2.37-11.21H468.9l-2.34,11.21h-3l5.25-24.85h3l-2.34,10.9h12.71l2.34-10.9h3Z" transform="translate(-64.06 -33.94)"/><path class="cls-5" d="M504,153.56a5.26,5.26,0,0,1-.63,2.55,5.16,5.16,0,0,1-2.06,2,12.17,12.17,0,0,1-3.8,1.27,32.42,32.42,0,0,1-5.82.47,1.75,1.75,0,0,0,0,.4v.35a5.56,5.56,0,0,0,.26,1.76,3.74,3.74,0,0,0,2.21,2.45,5.21,5.21,0,0,0,2,.36,8.71,8.71,0,0,0,2.63-.46,11.25,11.25,0,0,0,2.73-1.31l-.54,2.81a11.08,11.08,0,0,1-2.27,1,9.84,9.84,0,0,1-2.95.42,8.13,8.13,0,0,1-3.3-.61,5.76,5.76,0,0,1-2.16-1.62,6.33,6.33,0,0,1-1.19-2.34,10.46,10.46,0,0,1-.37-2.78,13.31,13.31,0,0,1,.35-3,12.2,12.2,0,0,1,1-2.69,10.92,10.92,0,0,1,1.52-2.28,9.65,9.65,0,0,1,2-1.76,9.28,9.28,0,0,1,2.3-1.13,8.44,8.44,0,0,1,2.55-.4,7.37,7.37,0,0,1,2.42.37,5.15,5.15,0,0,1,1.75,1,4.36,4.36,0,0,1,1.43,3.24Zm-2.9.13a2,2,0,0,0-.81-1.69,3.38,3.38,0,0,0-2.14-.61,4.82,4.82,0,0,0-2,.46,6.74,6.74,0,0,0-1.82,1.26,8,8,0,0,0-1.44,1.93,8.67,8.67,0,0,0-.88,2.42,29.66,29.66,0,0,0,4.21-.26,10.56,10.56,0,0,0,2.82-.73,3.85,3.85,0,0,0,1.6-1.19A2.66,2.66,0,0,0,501.1,153.69Zm-6.38,18.9a1.72,1.72,0,0,1-1.71-1.72,1.55,1.55,0,0,1,.52-1.19,1.77,1.77,0,0,1,2.41,0,1.58,1.58,0,0,1,.5,1.19,1.72,1.72,0,0,1-1.72,1.72Z" transform="translate(-64.06 -33.94)"/><path class="cls-5" d="M522.8,153.83a4.17,4.17,0,0,1-.06.71c0,.3-.09.63-.16,1s-.12.69-.19,1-.12.63-.18.87l-2.06,9.72h-2.88l2.17-10.39c0-.19.09-.4.14-.65l.12-.72c0-.25.06-.47.09-.67a3.87,3.87,0,0,0,0-.48,3.19,3.19,0,0,0-.63-2.08,2.31,2.31,0,0,0-1.88-.76,4.34,4.34,0,0,0-2.27.68,8.79,8.79,0,0,0-2.08,1.71,11.53,11.53,0,0,0-1.64,2.29,8.61,8.61,0,0,0-.93,2.41l-1.85,8.66h-2.88l2.74-12.67c.09-.45.18-.92.28-1.41s.17-1,.26-1.42.15-.88.2-1.27.11-.72.14-1h2.78q-.09.67-.21,1.41c-.08.49-.15.94-.21,1.36s-.14,1-.23,1.42h.07a13.76,13.76,0,0,1,1.35-1.79,10.15,10.15,0,0,1,1.59-1.48,7.48,7.48,0,0,1,1.82-1,5.6,5.6,0,0,1,2-.37,5.44,5.44,0,0,1,2,.36,3.79,3.79,0,0,1,1.41,1,3.91,3.91,0,0,1,.83,1.54A6.56,6.56,0,0,1,522.8,153.83Z" transform="translate(-64.06 -33.94)"/><path class="cls-5" d="M549.11,165.86A22.29,22.29,0,0,1,548,169.7a10.22,10.22,0,0,1-1.88,3.05,8,8,0,0,1-2.89,2,10.63,10.63,0,0,1-4.17.72,9.57,9.57,0,0,1-3-.4,13.12,13.12,0,0,1-2.3-1l.54-2.65a14.12,14.12,0,0,0,2.32,1.11,8,8,0,0,0,2.66.45,7.35,7.35,0,0,0,2.67-.45,5.37,5.37,0,0,0,2-1.33,7.31,7.31,0,0,0,1.37-2.14,16.17,16.17,0,0,0,.91-2.89l.61-2.78h-.07a16.74,16.74,0,0,1-1.29,1.83,7.67,7.67,0,0,1-1.33,1.28,5.23,5.23,0,0,1-1.46.77,5.76,5.76,0,0,1-3.84-.18,4.45,4.45,0,0,1-1.66-1.25,6,6,0,0,1-1.06-2.08,10.4,10.4,0,0,1-.37-2.88,13.66,13.66,0,0,1,1.32-5.86,11.88,11.88,0,0,1,1.57-2.45,10.39,10.39,0,0,1,2.1-1.93,9.69,9.69,0,0,1,5.62-1.74,24.76,24.76,0,0,1,3.22.21c1.08.14,2.07.3,3,.47Zm.14-14.12a13.79,13.79,0,0,0-1.43-.25,15.22,15.22,0,0,0-1.79-.1,6.05,6.05,0,0,0-3,.75,7.43,7.43,0,0,0-2.34,2.05,9.93,9.93,0,0,0-1.52,3,12,12,0,0,0-.55,3.62,8.39,8.39,0,0,0,.17,1.73,4.14,4.14,0,0,0,.52,1.37,2.56,2.56,0,0,0,.92.9,2.62,2.62,0,0,0,1.37.33,3.82,3.82,0,0,0,1.76-.4,6,6,0,0,0,1.49-1.05,8.23,8.23,0,0,0,1.2-1.5,15.34,15.34,0,0,0,1.62-3.47,15,15,0,0,0,.43-1.55Z" transform="translate(-64.06 -33.94)"/><path class="cls-5" d="M569.3,161.46c-.09.44-.18.93-.26,1.48s-.17,1.09-.23,1.63-.12,1-.16,1.5-.06.82-.06,1.07h-2.94c0-.23,0-.5.05-.83s0-.66.09-1,.09-.69.13-1,.08-.62.13-.86H566c-.36.56-.73,1.1-1.1,1.6a7.39,7.39,0,0,1-1.23,1.33,5.59,5.59,0,0,1-1.5.9,5.82,5.82,0,0,1-4.09-.09,4.47,4.47,0,0,1-1.65-1.24,5.8,5.8,0,0,1-1.07-2.06A10.06,10.06,0,0,1,555,161a14.54,14.54,0,0,1,.21-2.28,13.87,13.87,0,0,1,.7-2.62,12.79,12.79,0,0,1,1.32-2.61,10.08,10.08,0,0,1,2-2.28,9.78,9.78,0,0,1,2.89-1.61A11.21,11.21,0,0,1,566,149a19.66,19.66,0,0,1,2.86.21c1,.14,1.95.31,2.92.5Zm-6.7-18.06h-1.84l-3.28-4.26h2.92Zm5.89,8.34a13.26,13.26,0,0,0-1.42-.25,13.1,13.1,0,0,0-1.53-.1,6.74,6.74,0,0,0-2.66.48,6.91,6.91,0,0,0-2,1.24,7.41,7.41,0,0,0-1.43,1.78,11.12,11.12,0,0,0-.93,2.05A12.33,12.33,0,0,0,558,159a14.27,14.27,0,0,0-.15,1.85,8.21,8.21,0,0,0,.18,1.78,3.82,3.82,0,0,0,.54,1.34,2.61,2.61,0,0,0,.95.86,3,3,0,0,0,1.38.3,3.75,3.75,0,0,0,1.62-.35,5.5,5.5,0,0,0,1.42-1,8,8,0,0,0,1.19-1.4,13.44,13.44,0,0,0,1-1.69,15.08,15.08,0,0,0,.74-1.82c.2-.62.36-1.21.49-1.79Zm.21-5.72-2-2.59L563,146h-2.1l4.91-4.32h2.3l2.52,4.32Z" transform="translate(-64.06 -33.94)"/><path class="cls-5" d="M591,153.83a5.51,5.51,0,0,1-.07.71c0,.3-.09.63-.15,1s-.13.69-.19,1l-.18.87-2.07,9.72h-2.87l2.16-10.39a6.55,6.55,0,0,0,.14-.65q.07-.36.12-.72c0-.25.07-.47.09-.67a3.87,3.87,0,0,0,0-.48,3.13,3.13,0,0,0-.63-2.08,2.3,2.3,0,0,0-1.88-.76,4.37,4.37,0,0,0-2.27.68,9.21,9.21,0,0,0-2.08,1.71,12.4,12.4,0,0,0-1.64,2.29,8.58,8.58,0,0,0-.92,2.41l-1.86,8.66h-2.88l2.74-12.67c.09-.45.19-.92.28-1.41s.18-1,.26-1.42.15-.88.21-1.27.1-.72.14-1h2.77q-.09.67-.21,1.41c-.08.49-.15.94-.21,1.36s-.14,1-.22,1.42h.07A14.64,14.64,0,0,1,581,151.8a10.22,10.22,0,0,1,1.6-1.48,7.3,7.3,0,0,1,1.82-1,5.56,5.56,0,0,1,2-.37,5.35,5.35,0,0,1,2,.36,3.83,3.83,0,0,1,1.42,1,4,4,0,0,1,.83,1.54A7.26,7.26,0,0,1,591,153.83Z" transform="translate(-64.06 -33.94)"/><path class="cls-5" d="M614.32,158.37h-9.49l.51-2.23h9.48Z" transform="translate(-64.06 -33.94)"/><path class="cls-5" d="M636.85,167.14h-2.91l-3.73-24.85h3L636,161.75a7,7,0,0,1,.12,1.1,6.36,6.36,0,0,1,0,1.07h.07c.05-.15.12-.32.2-.5a5.65,5.65,0,0,1,.26-.57l.29-.57c.1-.19.19-.36.27-.53l11.11-19.46h3.34Z" transform="translate(-64.06 -33.94)"/><path class="cls-5" d="M656,167.08a8.17,8.17,0,0,1-1,.22,6.59,6.59,0,0,1-1.09.09,3.51,3.51,0,0,1-2.61-.88,3.19,3.19,0,0,1-.87-2.35,5.86,5.86,0,0,1,.09-1c.05-.39.15-.88.27-1.46l2.59-12.28h2.87l-2.6,12.35c-.1.49-.17.86-.21,1.13a3.82,3.82,0,0,0-.06.68,1.4,1.4,0,0,0,.39,1.08,1.73,1.73,0,0,0,1.24.37,5.11,5.11,0,0,0,.78,0,2.86,2.86,0,0,0,.64-.16Zm2-24a1.86,1.86,0,0,1-.52,1.33,1.73,1.73,0,0,1-1.31.56,1.84,1.84,0,0,1-1.33-.55,1.77,1.77,0,0,1-.56-1.34,1.65,1.65,0,0,1,.56-1.3,1.92,1.92,0,0,1,1.33-.5,1.81,1.81,0,0,1,1.3.51,1.68,1.68,0,0,1,.53,1.29Z" transform="translate(-64.06 -33.94)"/><path class="cls-5" d="M674.6,153.56a5.26,5.26,0,0,1-.63,2.55,5.16,5.16,0,0,1-2.06,2,12.17,12.17,0,0,1-3.8,1.27,32.42,32.42,0,0,1-5.82.47,2.6,2.6,0,0,0,0,.4v.35a5.56,5.56,0,0,0,.26,1.76,3.74,3.74,0,0,0,2.21,2.45,5.21,5.21,0,0,0,2,.36,8.71,8.71,0,0,0,2.63-.46,11.25,11.25,0,0,0,2.73-1.31l-.54,2.81a11.08,11.08,0,0,1-2.27,1,9.79,9.79,0,0,1-2.95.42,8.13,8.13,0,0,1-3.3-.61,5.76,5.76,0,0,1-2.16-1.62,6.33,6.33,0,0,1-1.19-2.34,10.46,10.46,0,0,1-.37-2.78,13.31,13.31,0,0,1,.35-3,12.2,12.2,0,0,1,1-2.69,10.92,10.92,0,0,1,1.52-2.28,9.65,9.65,0,0,1,2-1.76,9.28,9.28,0,0,1,2.3-1.13A8.44,8.44,0,0,1,669,149a7.37,7.37,0,0,1,2.42.37,5.15,5.15,0,0,1,1.75,1,4.36,4.36,0,0,1,1.43,3.24Zm-2.9.13a2,2,0,0,0-.8-1.69,3.41,3.41,0,0,0-2.14-.61,4.83,4.83,0,0,0-2,.46,6.74,6.74,0,0,0-1.82,1.26,8.23,8.23,0,0,0-1.44,1.93,8.67,8.67,0,0,0-.88,2.42,29.66,29.66,0,0,0,4.21-.26,10.56,10.56,0,0,0,2.82-.73,3.85,3.85,0,0,0,1.6-1.19,2.66,2.66,0,0,0,.5-1.59Zm-5.94,18.9a1.72,1.72,0,0,1-1.72-1.72,1.55,1.55,0,0,1,.52-1.19,1.77,1.77,0,0,1,2.41,0,1.58,1.58,0,0,1,.5,1.19,1.72,1.72,0,0,1-1.71,1.72ZM672.2,146l-2-4-3.69,4h-2.1l4.9-5.74h2.31l2.51,5.74Z" transform="translate(-64.06 -33.94)"/><path class="cls-5" d="M690.25,152.91a6.78,6.78,0,0,0-1.76-1.08,5.75,5.75,0,0,0-2.28-.44,5.33,5.33,0,0,0-2.16.42,6,6,0,0,0-1.71,1.1,7.32,7.32,0,0,0-1.28,1.6,10.64,10.64,0,0,0-.88,1.87,11.6,11.6,0,0,0-.68,3.73,5.7,5.7,0,0,0,1.09,3.76,3.74,3.74,0,0,0,3,1.28,6.48,6.48,0,0,0,2.38-.48,10.71,10.71,0,0,0,2.32-1.22l-.6,2.84a12.34,12.34,0,0,1-2.25,1,8.23,8.23,0,0,1-2.37.34,6.72,6.72,0,0,1-2.83-.56,5.64,5.64,0,0,1-2-1.52,6.5,6.5,0,0,1-1.2-2.3,10.31,10.31,0,0,1-.4-2.87,13.92,13.92,0,0,1,.3-2.87,12.63,12.63,0,0,1,.87-2.67,12.34,12.34,0,0,1,1.43-2.33,9.24,9.24,0,0,1,4.41-3.06,9.84,9.84,0,0,1,4.35-.33,8.71,8.71,0,0,1,1.23.27,9.17,9.17,0,0,1,1,.38,3.38,3.38,0,0,1,.69.39Z" transform="translate(-64.06 -33.94)"/><path class="cls-5" d="M715.24,165.86a23.21,23.21,0,0,1-1.14,3.84,10.43,10.43,0,0,1-1.88,3.05,8.06,8.06,0,0,1-2.89,2,10.65,10.65,0,0,1-4.18.72,9.51,9.51,0,0,1-2.95-.4,12.81,12.81,0,0,1-2.3-1l.54-2.65a13.74,13.74,0,0,0,2.32,1.11,8,8,0,0,0,2.65.45,7.4,7.4,0,0,0,2.68-.45,5.46,5.46,0,0,0,2-1.33,7.31,7.31,0,0,0,1.37-2.14,16.17,16.17,0,0,0,.91-2.89l.6-2.78h-.07a16.74,16.74,0,0,1-1.29,1.83,7.27,7.27,0,0,1-1.32,1.28,5.23,5.23,0,0,1-1.46.77,5.79,5.79,0,0,1-3.85-.18,4.42,4.42,0,0,1-1.65-1.25,6,6,0,0,1-1.06-2.08,10,10,0,0,1-.37-2.88,13.66,13.66,0,0,1,1.32-5.86,11.48,11.48,0,0,1,1.57-2.45,9.84,9.84,0,0,1,7.72-3.67,24.87,24.87,0,0,1,3.22.21c1.08.14,2.06.3,3,.47Zm.14-14.12a13.79,13.79,0,0,0-1.43-.25,15.51,15.51,0,0,0-1.8-.1,6.08,6.08,0,0,0-3,.75,7.5,7.5,0,0,0-2.33,2.05,9.93,9.93,0,0,0-1.52,3,11.69,11.69,0,0,0-.55,3.62,8.39,8.39,0,0,0,.17,1.73,3.93,3.93,0,0,0,.52,1.37,2.61,2.61,0,0,0,.91.9,2.68,2.68,0,0,0,1.38.33,3.85,3.85,0,0,0,1.76-.4A5.76,5.76,0,0,0,711,163.7a8.29,8.29,0,0,0,1.21-1.5,14.4,14.4,0,0,0,.93-1.73,16.14,16.14,0,0,0,.69-1.74c.18-.57.33-1.09.43-1.55Z" transform="translate(-64.06 -33.94)"/><path class="cls-5" d="M735.43,161.46c-.09.44-.18.93-.27,1.48s-.16,1.09-.22,1.63-.12,1-.16,1.5-.06.82-.06,1.07h-2.94c0-.23,0-.5.05-.83s0-.66.09-1l.12-1c0-.34.09-.63.13-.87h-.07c-.35.56-.72,1.1-1.09,1.6a7.39,7.39,0,0,1-1.23,1.33,5.5,5.5,0,0,1-1.51.9,5.74,5.74,0,0,1-4.08-.09,4.39,4.39,0,0,1-1.65-1.24,5.56,5.56,0,0,1-1.07-2.06,10.06,10.06,0,0,1-.37-2.89,14.54,14.54,0,0,1,.21-2.28,13.87,13.87,0,0,1,.7-2.62,12.79,12.79,0,0,1,1.32-2.61,10.08,10.08,0,0,1,2-2.28,9.65,9.65,0,0,1,2.89-1.61,11.15,11.15,0,0,1,3.84-.61,19.46,19.46,0,0,1,2.86.21c1,.14,2,.31,2.93.5Zm-6.7-18.06h-1.84l-3.28-4.26h2.91Zm5.89,8.34a13.26,13.26,0,0,0-1.42-.25,13.1,13.1,0,0,0-1.53-.1,6.74,6.74,0,0,0-2.66.48,6.91,6.91,0,0,0-2,1.24,7.41,7.41,0,0,0-1.43,1.78,11.12,11.12,0,0,0-.93,2.05,12.33,12.33,0,0,0-.49,2.08,12.7,12.7,0,0,0-.15,1.85,8.2,8.2,0,0,0,.17,1.78,4,4,0,0,0,.55,1.34,2.61,2.61,0,0,0,.95.86,3,3,0,0,0,1.38.3,3.78,3.78,0,0,0,1.62-.35,5.29,5.29,0,0,0,1.41-1,7.6,7.6,0,0,0,1.2-1.4,13.44,13.44,0,0,0,1-1.69,15.08,15.08,0,0,0,.74-1.82c.2-.62.36-1.21.49-1.79Zm.21-5.72-2-2.59L729.16,146h-2.1L732,141.7h2.3l2.51,4.32Z" transform="translate(-64.06 -33.94)"/><path class="cls-5" d="M757.12,153.83a5.51,5.51,0,0,1-.07.71c0,.3-.09.63-.15,1s-.13.69-.19,1l-.18.87-2.07,9.72h-2.87l2.16-10.39c0-.19.09-.4.14-.65s.09-.48.12-.72.07-.47.09-.67a3.87,3.87,0,0,0,0-.48,3.13,3.13,0,0,0-.63-2.08,2.3,2.3,0,0,0-1.88-.76,4.37,4.37,0,0,0-2.27.68,9.21,9.21,0,0,0-2.08,1.71,11.53,11.53,0,0,0-1.64,2.29,8.58,8.58,0,0,0-.92,2.41l-1.86,8.66H740l2.74-12.67c.09-.45.19-.92.28-1.41s.18-1,.26-1.42.15-.88.21-1.27.1-.72.14-1h2.77q-.09.67-.21,1.41c-.08.49-.15.94-.21,1.36s-.14,1-.22,1.42h.07a14.64,14.64,0,0,1,1.34-1.79,10.61,10.61,0,0,1,1.59-1.48,7.66,7.66,0,0,1,1.82-1,5.6,5.6,0,0,1,2-.37,5.37,5.37,0,0,1,2,.36,3.71,3.71,0,0,1,1.41,1,4.06,4.06,0,0,1,.84,1.54A7.26,7.26,0,0,1,757.12,153.83Z" transform="translate(-64.06 -33.94)"/></svg>