<?xml version="1.0" encoding="utf-8"?>
<!-- Generator: Adobe Illustrator 25.0.0, SVG Export Plug-In . SVG Version: 6.00 Build 0)  -->
<svg version="1.1" id="Layer_1" xmlns="http://www.w3.org/2000/svg" xmlns:xlink="http://www.w3.org/1999/xlink" x="0px" y="0px"
	 viewBox="0 0 724.2 141" style="enable-background:new 0 0 724.2 141;" xml:space="preserve">
<style type="text/css">
	.st0{fill:#ED0180;}
	.st1{fill:#009FE0;}
	.st2{fill:#7C1451;}
	.st3{fill:#FFFFFF;}
</style>
<path class="st0" d="M492.6,36.9l-12.5-15.6h12.7l10.1,15.6H492.6z M332.9,56.4c-0.2,3-0.7,6-1.4,9l-6,28.5h-15.3l5.9-28.1
	c0.5-2.8,1.8-6.9-0.3-9.4c-0.9-1-2.2-1.5-3.5-1.4c-4.8,0-9.3,5.2-11.4,9.1c-0.9,1.7-1.6,3.5-2,5.4l-5.1,24.4h-15.5l7.3-33.8
	c1-5.1,2-10.3,2.6-15.5h15c-0.2,3.2-0.6,6.3-1.2,9.5h0.2c4.1-5.5,11.2-10.7,18.3-10.7c4.1,0,7.1,1.1,9.2,3.4
	C331.9,49,332.9,52.2,332.9,56.4z M275.3,36.9h-9.2l-5.4-6.6l-8.7,6.6h-10.1l13.5-12h11.5L275.3,36.9z M247.8,29.6h-8.5l-11.1-11.8
	h13.5L247.8,29.6z M261.2,54.6c-5.5-1.1-10.9-0.6-15.2,3.5c-3.5,3.4-5.5,8.4-6.2,13.2c-0.6,4.5-0.7,12.2,5.7,12.2
	c3.9,0,6.6-2.6,8.6-5.7c2.2-3.6,3.7-7.6,4.5-11.7L261.2,54.6z M271.5,77.7c-0.2,1-0.5,2.2-0.7,3.6c-0.7,4.2-1.1,8.4-1.2,12.7h-15.4
	c0.1-2.8,0.3-5.6,0.7-8.4h-0.2c-4.2,5.6-8,9.6-15.5,9.6c-13.8,0-16.3-13.7-14.6-24.6c2.7-17.2,15.4-27.1,32.8-27.1
	c7,0.1,14,1,20.8,2.6L271.5,77.7z M204.9,54.6c-3.9-0.8-8.4-0.8-11.9,1.2c-4.3,2.4-7,6.6-8.5,11.2c-3.2,9.9,1.4,23.6,11.2,13.7
	c3.4-3.5,5.6-9.7,6.6-14.4L204.9,54.6z M213.1,88c-0.8,4-2,8-3.6,11.8c-2.8,7.1-8.6,12.6-15.8,15.1c-9.9,3.4-20.7,2.9-30.3-1.5
	l2.7-12.2c5.9,3.9,13.9,6.1,20.8,3.6c8.3-2.9,9.8-11.3,11.3-18.9h-0.2c-4.8,7.1-13,11.9-21.6,7.8c-9.1-4.4-9.5-16.9-7.7-25.5
	c2.5-11.5,10-20.2,21.5-23.6c9.1-2.7,22.3-0.7,31.7,1.2L213.1,88z M399.4,56.4c-0.2,3-0.7,6.1-1.4,9l-6,28.5h-15.3l5.9-28.1
	c0.5-2.8,1.8-6.9-0.3-9.4c-0.9-1-2.2-1.5-3.5-1.4c-4.8,0-9.3,5.2-11.4,9.1c-0.9,1.7-1.6,3.5-2,5.4l-5.1,24.4h-15.5l7.3-33.8
	c1-5.1,2-10.3,2.6-15.5h15c-0.2,3.2-0.6,6.3-1.2,9.5h0.2c4.1-5.5,11.2-10.7,18.3-10.7c4.1,0,7.1,1.1,9.2,3.4S399.3,52.2,399.4,56.4z
	 M456.2,56.4c-0.2,3-0.7,6.1-1.4,9l-6,28.5h-15.3l5.9-28.1c0.5-2.8,1.8-6.9-0.3-9.4c-0.9-1-2.2-1.5-3.5-1.4c-4.8,0-9.3,5.2-11.4,9.1
	c-0.9,1.7-1.6,3.5-2,5.4L417,93.9h-15.5L417,21h15l-6.7,33.1h0.2c4.1-5.5,11.2-10.7,18.3-10.7c4.1,0,7.2,1.1,9.2,3.4
	S456.1,52.2,456.2,56.4L456.2,56.4z M495.5,54.6c-5.5-1.1-10.9-0.6-15.2,3.5c-3.5,3.4-5.5,8.4-6.2,13.2c-0.6,4.5-0.7,12.2,5.7,12.2
	c3.8,0,6.7-2.6,8.6-5.7c2.2-3.6,3.7-7.6,4.5-11.7L495.5,54.6z M505.8,77.7c-0.2,1-0.5,2.2-0.7,3.6c-0.7,4.2-1.1,8.4-1.2,12.7h-15.4
	c0.1-2.8,0.3-5.6,0.7-8.4h-0.2c-4.2,5.6-8,9.6-15.4,9.6c-13.8,0-16.3-13.7-14.6-24.6c2.7-17.2,15.3-27.1,32.8-27.1
	c7,0.1,14,1,20.8,2.6L505.8,77.7z"/>
<path class="st1" d="M724.2,56.4c-0.2,3-0.7,6-1.4,9l-6,28.5h-15.3l6-28.1c0.4-1.9,0.7-3.8,0.9-5.7c0-3.2-1.4-5-4.7-5
	c-2.9,0-6,2.5-7.8,4.5c-2.6,2.8-4.4,6.3-5.3,10l-5.1,24.3h-15.3l6-28.1c0.4-1.9,1.1-4.6,0.8-6.8c-0.3-2.6-2-3.9-4.6-3.9
	c-3,0-6,2.4-7.8,4.6c-2.5,2.8-4.3,6.2-5.2,9.9l-5.2,24.3h-15.4c2.8-12.7,5.7-25.5,8.2-38.2c0.7-3.6,1.3-7.4,1.8-11h15
	c-0.2,3.2-0.6,6.3-1.2,9.5h0.2c4.2-5.4,10.9-10.7,18-10.7c3.8,0,6.8,1,8.7,3c2.1,2.3,3.3,5.2,3.4,8.3c1.2-1.6,2.5-3.2,4-4.6
	c4.1-3.9,9.4-6.7,15.1-6.7c4.1,0,7.2,1.1,9.2,3.3S724.2,52.3,724.2,56.4 M614.5,55.2c-6.6,0-10.5,6.7-12,12.4s-1.9,16,6.5,16
	c6.7,0,10.5-6.4,11.9-12.2C622.3,65.7,622.9,55.2,614.5,55.2L614.5,55.2z M634.4,78.3c-4.8,11.3-14.2,16.9-26.5,16.9
	c-3.2,0.1-6.5-0.5-9.5-1.6c-11.2-4.4-13.4-15.8-11.2-26.5c2.8-14.5,13.7-23.6,28.7-23.6c5.8,0,11.6,1.4,15.8,5.7
	C639,56.6,638.1,69.4,634.4,78.3L634.4,78.3z M584.5,58.2c-2.9-2-6.3-3.1-9.9-3.1c-7,0-12.1,5.4-14.2,11.7
	c-2.4,7.4-1.3,16.7,8.2,16.7c4.1-0.2,8.1-1.5,11.6-3.7l-2.4,11.7c-6.6,3.4-15.8,5-22.8,2.1c-2.3-0.9-4.4-2.3-6.1-4.2
	c-5.4-5.9-5.8-15.3-4-22.7c3.4-14.2,14.8-23.3,29.5-23.3c4,0,9.2,0.8,12.7,2.8L584.5,58.2z M534.9,86.9c0,5.2-4.3,8.2-9.2,8.2
	c-4.5,0-8.6-2.7-8.6-7.5c0-5.2,4.4-8.3,9.3-8.3C531,79.3,534.9,82.2,534.9,86.9z"/>
<path class="st0" d="M129.1,4v4.6h2.1c0.7,0,1.4-0.2,1.9-0.6c0.5-0.4,0.8-1,0.7-1.7c0-1.5-1-2.3-2.9-2.3L129.1,4z M134.1,14.7
	l-1.4-3c-0.3-0.7-0.6-1.3-1.2-1.7c-0.4-0.3-0.8-0.5-1.3-0.5h-1.2v5.2h-1.2V3h3.2c1.1-0.1,2.1,0.2,3,0.8c0.7,0.5,1,1.4,1,2.2
	c0,1.8-1,2.9-3,3.2l0,0c0.7,0.1,1.3,0.8,1.9,2.1l1.6,3.2L134.1,14.7z M131.2,1c-2.1,0-4.1,0.8-5.6,2.4c-3.1,3.1-3.1,8.2,0,11.3
	c1.5,1.5,3.5,2.4,5.6,2.3c4.4,0,8-3.5,8.1-7.9c0-2.2-0.8-4.3-2.4-5.8C135.4,1.8,133.3,1,131.2,1L131.2,1z M131.2,18.1
	c-2.4,0-4.7-0.9-6.4-2.7c-3.5-3.5-3.5-9.3,0-12.8c0,0,0,0,0,0l0,0c3.6-3.5,9.4-3.3,12.8,0.3c3.3,3.5,3.3,8.9,0.1,12.4h-0.1
	C136,17.2,133.7,18.1,131.2,18.1L131.2,18.1z"/>
<path class="st0" d="M70.1,140.7c38.7,0,70.1-31.4,70.1-70.1S108.8,0.5,70.1,0.5S0,31.9,0,70.6l0,0l0,0
	C0,109.3,31.4,140.7,70.1,140.7L70.1,140.7"/>
<path class="st2" d="M42.4,108.6L42.4,108.6L53,47.8c0.8-4.7,5.7-4.5,7.7-1.4l26.8,45.6l8.8-49.5c-3.1-2.9-3.4-7.7-0.5-10.9
	c2.9-3.1,7.7-3.4,10.9-0.5s3.4,7.7,0.5,10.9c0,0,0,0,0,0c-0.7,0.8-1.7,1.5-2.7,1.9l-10.6,60.6c-0.4,2.3-2.5,3.8-4.8,3.4
	c-1.2-0.2-2.3-0.9-2.9-2L59.3,60.2L50.6,110c3.1,2.9,3.3,7.7,0.4,10.9c-2.9,3.1-7.7,3.3-10.9,0.4s-3.3-7.7-0.4-10.9
	C40.5,109.6,41.4,109,42.4,108.6"/>
<path class="st3" d="M39.1,103c3.6-20.3,7.1-40.5,10.7-60.8c0.8-4.7,5.7-4.5,7.7-1.4l26.8,45.6L93,36.9c-2-1.8-2.9-4.5-2.4-7.1
	c0.8-4.2,4.8-6.9,9-6.2s6.9,4.8,6.2,9c-0.5,2.5-2.2,4.7-4.6,5.7L90.5,98.9c-0.4,2.3-2.5,3.8-4.8,3.4c-1.2-0.2-2.3-0.9-2.9-2L56,54.6
	l-8.7,49.8c3.1,2.9,3.3,7.7,0.4,10.9c-2.9,3.1-7.7,3.3-10.9,0.4c-3.1-2.9-3.3-7.7-0.4-10.9C37.2,104,38.1,103.4,39.1,103"/>
</svg>
