<svg width="32" height="32" viewBox="0 0 32 32" fill="none" xmlns="http://www.w3.org/2000/svg">
<path fill-rule="evenodd" clip-rule="evenodd" d="M0 16C0 24.8366 7.16344 32 16 32C24.8366 32 32 24.8366 32 16C32 7.16344 24.8366 0 16 0C7.16344 0 0 7.16344 0 16ZM9.90486 25.5762V22.1609C7.76593 20.5332 6.40002 18.0542 6.40002 15.2778C6.40002 10.3747 10.66 6.39994 15.9151 6.39994C21.1704 6.39994 25.4301 10.3747 25.4301 15.2778C25.4301 20.1806 21.1704 24.1557 15.9151 24.1557C14.9347 24.1557 13.9884 24.0172 13.0983 23.7606L9.90486 25.5762Z" fill="white"/>
<path d="M14.899 12.8457L9.76758 18.2788L14.4376 15.7165L16.8776 18.2788L21.9801 12.8457L17.3619 15.3631L14.899 12.8457Z" fill="white"/>
</svg>
