<svg width="37" height="37" viewBox="0 0 37 37" fill="none" xmlns="http://www.w3.org/2000/svg">
<circle cx="18.6172" cy="18.4868" r="17.8086" fill="#FD537F"/>
<path d="M26.4695 17.8125H28.5081C28.5081 12.8111 24.5604 9.03906 19.3242 9.03906V10.9889C23.4646 10.9889 26.4695 13.8582 26.4695 17.8125Z" fill="white"/>
<path d="M19.0382 15.1305C21.2066 15.1305 22.1315 16.014 22.1315 18.0854H24.1938C24.1938 14.9089 22.3636 13.1606 19.0382 13.1606V15.1305ZM22.5667 20.4917C22.3686 20.3196 22.1082 20.2279 21.8406 20.2358C21.573 20.2437 21.319 20.3506 21.1324 20.534L18.6649 22.958C18.071 22.8497 16.8769 22.4941 15.6478 21.323C14.4187 20.1479 14.0465 19.0044 13.9361 18.441L16.4717 16.083C16.6639 15.9048 16.776 15.6622 16.7843 15.4065C16.7925 15.1508 16.6963 14.902 16.516 14.7129L12.706 10.7109C12.5256 10.5212 12.2748 10.4061 12.007 10.3901C11.7392 10.3741 11.4754 10.4585 11.2717 10.6253L9.03413 12.4583C8.85586 12.6292 8.74946 12.8567 8.7351 13.0975C8.71964 13.3438 8.42473 19.1767 13.1597 23.7017C17.2904 27.6465 22.4646 27.9351 23.8896 27.9351C24.0979 27.9351 24.2258 27.9291 24.2598 27.9272C24.5119 27.9137 24.7499 27.8116 24.928 27.6406L26.8459 25.5022C27.0206 25.3077 27.1091 25.0558 27.0925 24.8C27.076 24.5441 26.9557 24.3046 26.7572 24.1321L22.5667 20.4917Z" fill="white"/>
</svg>
