<svg width="214" height="241" viewBox="0 0 214 241" fill="none" xmlns="http://www.w3.org/2000/svg">
<g clip-path="url(#clip0)">
<path d="M157.34 77.6802C157.34 77.6802 172.738 86.1842 181.116 98.5434L166.737 110.392L157.34 77.6802Z" fill="#FF8664"/>
<path d="M163.51 144.068L165.605 167.143C165.605 167.143 186.437 222.589 185.022 250.822H150.66L152.075 237.726L141.093 192.598L137.413 250.822H103.278C103.278 250.822 107.75 180.522 107.75 174.116C107.75 163.401 120.091 144.068 120.091 144.068H163.51Z" fill="#4467DB"/>
<path d="M141.093 192.598L141.772 184.151C141.772 184.151 149.811 168.447 149.811 146.166" stroke="#250E4F" stroke-width="0.5" stroke-miterlimit="10"/>
<path d="M153.151 146.166C153.151 146.166 152.924 164.875 147.433 167.313" stroke="#250E4F" stroke-width="0.5" stroke-miterlimit="10"/>
<path d="M135.828 183.811L153.151 184.831" stroke="#250E4F" stroke-width="0.5" stroke-miterlimit="10"/>
<path d="M144.49 185.285L155.925 189.197" stroke="#250E4F" stroke-width="0.5" stroke-miterlimit="10"/>
<path d="M165.492 165.952C165.492 165.952 159.095 155.634 158.755 145.429" stroke="#250E4F" stroke-width="0.5" stroke-miterlimit="10"/>
<path d="M133.281 145.429C133.281 145.429 130.167 168.844 117.204 169.411" stroke="#250E4F" stroke-width="0.5" stroke-miterlimit="10"/>
<path d="M126.092 144.635L106.675 195.49" stroke="#250E4F" stroke-width="0.5" stroke-miterlimit="10"/>
<path opacity="0.6" d="M111.6 159.943C124.337 159.886 154.793 151.268 163.907 148.604L163.51 144.012H120.035C120.035 144.068 115.223 151.665 111.6 159.943Z" fill="black"/>
<path d="M159.548 62.5999C159.548 62.5999 166.454 56.5904 166.228 50.6942C166.001 44.7981 156.208 44.7981 156.208 44.7981C156.208 44.7981 150.434 41.5099 145.225 43.2674C140.017 45.0249 135.885 51.7147 135.149 55.173C134.413 58.5746 138.093 65.3779 144.263 69.7433L153.151 70.7071L159.548 62.5999Z" fill="#A3740E"/>
<path d="M145.169 57.781C145.169 57.781 144.716 55.2298 142.961 55.2865C141.15 55.3432 140.81 58.4614 141.546 60.7291C142.282 62.9968 143.697 62.8835 144.093 62.8268L142.395 75.6962C142.395 75.6962 148.113 78.8711 154.736 77.3403L155.189 69.8001C155.189 69.8001 156.717 70.0269 157.906 68.6095C159.095 67.2489 160.68 64.3008 160.453 62.2598C160.227 60.2189 159.717 59.9354 160.114 57.4976C160.51 55.0597 159.378 50.8077 156.094 48.6534C156.038 48.5967 152.811 57.1007 145.169 57.781Z" fill="#FF8664"/>
<path d="M152.358 60.4455C152.358 61.4093 151.566 62.2597 150.547 62.2597C149.584 62.2597 148.735 61.466 148.735 60.4455C148.735 59.4818 149.528 58.6313 150.547 58.6313C151.566 58.6313 152.358 59.4251 152.358 60.4455Z" fill="#FF744D"/>
<path d="M145.225 63.5637C145.225 63.5637 145.112 72.1811 154.962 72.7481L155.132 69.7433C152.528 69.7433 146.98 68.7228 145.225 63.5637Z" fill="#DB5630"/>
<path d="M141.772 64.0173C142.554 64.0173 143.188 63.3827 143.188 62.6C143.188 61.8172 142.554 61.1826 141.772 61.1826C140.991 61.1826 140.357 61.8172 140.357 62.6C140.357 63.3827 140.991 64.0173 141.772 64.0173Z" fill="#FFDBDB"/>
<path d="M141.942 58.8582C141.886 57.8944 141.999 56.1936 142.848 56.1936C143.697 56.1936 144.207 58.1779 144.037 58.7448C143.81 59.3118 143.301 59.2551 143.357 59.822C143.414 60.3889 143.64 60.6724 144.263 60.6724" stroke="#250E4F" stroke-width="0.75" stroke-miterlimit="10"/>
<path d="M152.641 47.8027C152.641 47.8027 150.943 52.2815 143.188 53.302" stroke="#FCD75D" stroke-width="0.3923" stroke-miterlimit="10"/>
<path d="M151.169 47.1226C151.169 47.1226 146.697 51.2612 139.112 51.488" stroke="#FCD75D" stroke-width="0.3923" stroke-miterlimit="10"/>
<path d="M159.095 48.5967C159.095 48.5967 164.756 50.8644 161.529 58.4047" stroke="#FCD75D" stroke-width="0.3923" stroke-miterlimit="10"/>
<path d="M163.34 49.1067C163.34 49.1067 165.605 51.7713 162.774 57.0438" stroke="#FCD75D" stroke-width="0.3923" stroke-miterlimit="10"/>
<path d="M154.792 56.7606C154.792 57.3842 154.509 57.8945 154.113 57.8945C153.717 57.8945 153.434 57.3842 153.434 56.7606C153.434 56.137 153.717 55.6267 154.113 55.6267C154.509 55.6267 154.792 56.137 154.792 56.7606Z" fill="#250E4F"/>
<path d="M158.415 58.4045C158.791 58.4045 159.095 57.8968 159.095 57.2706C159.095 56.6444 158.791 56.1367 158.415 56.1367C158.04 56.1367 157.736 56.6444 157.736 57.2706C157.736 57.8968 158.04 58.4045 158.415 58.4045Z" fill="#250E4F"/>
<path d="M156.604 57.4973V59.8217C156.604 59.8217 158.189 59.8784 158.132 60.3887C158.076 60.8989 156.66 61.1824 156.66 61.1824" stroke="#250E4F" stroke-width="0.75" stroke-miterlimit="10"/>
<path d="M157.17 54.2092C157.17 54.2092 159.151 53.4154 160.397 55.1163" stroke="#A3740E" stroke-width="2" stroke-miterlimit="10"/>
<path d="M155.472 54.0391C155.472 54.0391 154.283 52.1115 152.188 53.5288" stroke="#A3740E" stroke-width="2" stroke-miterlimit="10"/>
<path d="M158.132 63.5637C158.132 63.5637 154.34 63.6204 151.792 61.1826" stroke="#250E4F" stroke-width="0.75" stroke-miterlimit="10"/>
<path d="M156.887 64.9809C156.887 65.2077 156.434 65.4344 155.868 65.4344C155.302 65.4344 154.849 65.2644 154.849 64.9809C154.849 64.6974 155.302 64.5273 155.868 64.5273C156.378 64.584 156.887 64.7541 156.887 64.9809Z" fill="#FFA3A3"/>
<path d="M142.622 73.655C142.452 74.959 146.188 76.3196 148.962 76.4897C151.736 76.7165 154.792 76.433 154.849 75.2424L154.792 74.5054C154.792 74.5054 156.547 74.7889 156.604 75.696C156.661 76.6031 156.604 77.0566 156.604 77.0566C156.604 77.0566 164.756 88.3386 167.643 93.7245C170.586 99.1104 171.832 107.898 166.85 118.046L166.228 146.109H117.204L123.884 108.068C123.884 108.068 130.734 102.002 131.583 92.6474C132.545 82.5559 129.545 77.6236 129.545 77.6236L140.357 74.6755C140.357 74.6755 140.923 71.9542 142.848 72.0109L142.622 73.655Z" fill="#8D60CF"/>
<path d="M160.001 118.273L165.209 143.785C165.322 144.239 168.775 144.125 172.908 143.445C177.04 142.821 180.38 141.914 180.323 141.404L177.549 115.495L160.001 118.273Z" fill="#FCFCFC"/>
<path d="M176.191 120.654C175.002 120.597 175.342 120.994 173.417 120.937C171.549 120.824 171.096 121.561 169.681 121.561C168.266 121.561 167.53 122.241 166.228 122.298C164.869 122.355 164.303 122.922 163.284 122.865C162.661 122.808 162.208 122.922 161.925 123.035L165.831 142.197C165.945 142.594 168.945 142.481 172.624 141.914C176.304 141.347 179.248 140.553 179.191 140.1L177.097 120.597C176.814 120.597 176.474 120.654 176.191 120.654Z" fill="#FCD75D"/>
<path d="M173.474 120.881C171.606 120.767 171.153 121.504 169.737 121.504C168.322 121.504 167.586 122.185 166.284 122.241C164.926 122.298 164.36 122.865 163.341 122.808C162.718 122.752 162.265 122.865 161.982 122.978L162.831 127.23C163.058 127.174 163.397 127.117 164.076 127.06C165.209 127.004 166.114 127.23 167.586 126.72C169.058 126.21 170.303 126.38 171.096 126.267C171.889 126.153 172.738 125.756 173.643 125.7C174.549 125.643 175.285 125.643 175.908 125.53C176.304 125.473 177.04 125.246 177.663 125.133L177.153 120.541C176.814 120.597 176.53 120.597 176.191 120.597C175.002 120.597 175.342 120.994 173.474 120.881Z" fill="#FCE290"/>
<path d="M175.908 130.405C175.964 130.916 175.625 131.426 175.115 131.539C174.606 131.653 174.096 131.256 173.983 130.745C173.926 130.235 174.266 129.725 174.776 129.612C175.342 129.498 175.851 129.838 175.908 130.405Z" fill="#FCFCFC"/>
<path d="M173.757 132.957C173.757 133.127 173.643 133.297 173.53 133.297C173.36 133.297 173.191 133.183 173.191 133.07C173.191 132.9 173.304 132.73 173.417 132.73C173.53 132.73 173.757 132.786 173.757 132.957Z" fill="#FCFCFC"/>
<path d="M171.322 135.508C171.436 136.302 170.926 136.982 170.134 137.095C169.341 137.209 168.662 136.698 168.549 135.905C168.435 135.111 168.945 134.431 169.737 134.317C170.53 134.204 171.209 134.714 171.322 135.508Z" fill="#FCFCFC"/>
<path d="M173.757 138.229C173.813 138.512 173.587 138.796 173.304 138.853C173.021 138.909 172.738 138.682 172.681 138.399C172.624 138.116 172.851 137.832 173.134 137.775C173.417 137.719 173.7 137.889 173.757 138.229Z" fill="#FCFCFC"/>
<g opacity="0.4">
<path opacity="0.4" d="M130.168 77.5102L130.111 78.8142C130.564 79.8914 131.13 81.6489 131.47 84.1434L131.922 77L130.168 77.5102Z" fill="black"/>
<path opacity="0.4" d="M140.357 74.7322L138.602 75.1857L134.3 146.166H135.998L140.357 74.7322Z" fill="black"/>
<path opacity="0.4" d="M127.733 146.166L130.677 97.1829C130.167 98.8837 129.432 100.414 128.696 101.775L126.035 146.166H127.733Z" fill="black"/>
<path opacity="0.4" d="M164.359 88.3955C163.85 87.6018 163.34 86.8081 162.774 86.0144L159.151 146.11H160.85L164.359 88.3955Z" fill="black"/>
<path opacity="0.4" d="M148.509 76.4898C147.943 76.4331 147.377 76.3197 146.811 76.2063L142.622 146.166H144.32L148.509 76.4898Z" fill="black"/>
<path opacity="0.4" d="M152.585 146.166L156.774 77.3401C156.661 77.1701 156.604 77.1134 156.604 77.1134C156.604 77.1134 156.661 76.6598 156.604 75.7527C156.604 75.1291 155.755 74.7889 155.245 74.6755L150.886 146.166H152.585Z" fill="black"/>
</g>
<path d="M163.624 136.018C163.624 136.018 152.472 141.404 131.13 149.681C109.788 157.958 104.467 147.13 105.769 138.059C106.958 129.782 110.015 100.981 112.392 90.3797C114.883 79.4946 129.545 77.7371 129.545 77.7371C129.545 77.7371 137.583 96.3326 126.148 107.955L123.035 133.807L162.774 130.859C162.774 130.859 164.643 127.117 167.586 125.813C170.53 124.509 172.285 124.226 172.851 124.679C173.417 125.133 169.001 126.664 167.36 127.911C170.87 126.664 173.983 125.416 174.209 126.153C174.436 126.89 168.152 129.272 168.152 129.272C168.152 129.272 174.04 127.117 174.209 127.854C174.379 128.591 169.115 130.689 169.115 130.689C169.115 130.689 174.04 129.555 173.643 130.122C173.247 130.689 168.605 132.163 168.605 132.163C168.605 132.163 167.416 136.472 163.624 136.018Z" fill="#FF8664"/>
<path d="M126.148 107.898C127.28 106.764 128.243 105.517 128.979 104.27L127.507 96.1624L126.148 107.898Z" fill="#DB5630"/>
<path d="M115.279 146.506C116.128 147.47 116.412 148.661 115.845 149.114C115.279 149.568 114.147 149.171 113.298 148.207C112.449 147.243 112.166 146.053 112.732 145.599C113.298 145.146 114.43 145.543 115.279 146.506Z" fill="#FFA3A3"/>
<path d="M123.035 133.75L113.298 134.147" stroke="#DB5630" stroke-width="0.75" stroke-miterlimit="10"/>
<path d="M166.228 90.0396C165.718 89.586 166.567 87.7718 166.567 87.7718C166.567 87.7718 164.869 90.0962 164.133 89.6994C163.397 89.3025 164.529 87.3183 164.529 87.3183C164.529 87.3183 163.001 89.9829 162.265 89.4726C161.529 89.0191 162.435 87.2616 162.491 86.4112C162.548 85.5608 162.435 83.5765 161.699 82.2158C161.699 82.2158 162.774 84.8804 161.755 85.0505C160.736 85.2206 159.831 82.556 158.812 81.5922C157.793 80.5717 156.208 78.6441 156.661 77.0567C156.661 77.0567 160.51 76.263 164.529 78.304C168.549 80.3449 169.681 84.1434 169.624 86.071C169.567 87.9986 168.265 88.849 168.152 88.2254C168.096 88.2254 166.737 90.5498 166.228 90.0396Z" fill="#FF6B6B"/>
<path d="M164.529 87.3182C165.152 86.1844 165.039 82.6127 163.624 81.1953" stroke="#CF4040" stroke-width="0.3923" stroke-miterlimit="10"/>
<path d="M166.567 87.7717C167.133 86.8646 167.19 83.463 166.454 82.2725" stroke="#CF4040" stroke-width="0.3923" stroke-miterlimit="10"/>
<path d="M168.322 83.0095C168.322 83.0095 169.228 86.1844 168.096 88.2253" stroke="#CF4040" stroke-width="0.3923" stroke-miterlimit="10"/>
<path opacity="0.6" d="M167.19 250.823C166.397 233.531 141.772 195.49 141.772 195.49L152.075 237.726L150.66 250.823H167.19Z" fill="black"/>
<path d="M134.64 104.893L135.885 130.916C135.885 131.426 139.338 131.766 143.527 131.766C147.716 131.766 151.17 131.369 151.17 130.916L152.415 104.893H134.64Z" fill="#FCFCFC"/>
<path d="M150.264 109.712C149.075 109.485 149.358 109.939 147.49 109.542C145.678 109.145 145.112 109.826 143.697 109.599C142.339 109.372 141.489 109.939 140.131 109.826C138.772 109.655 138.149 110.166 137.13 109.939C136.564 109.826 136.055 109.826 135.772 109.882L136.678 129.442C136.678 129.895 139.734 130.235 143.414 130.235C147.15 130.235 150.151 129.895 150.207 128.591L151.056 110.449C150.83 111.3 150.547 109.769 150.264 109.712Z" fill="#FCD75D"/>
<path d="M147.49 109.542C145.678 109.145 145.112 109.826 143.697 109.599C142.339 109.372 141.489 109.939 140.131 109.826C138.772 109.655 138.149 110.166 137.13 109.939C136.564 109.826 136.055 109.826 135.772 109.882L135.998 114.248C136.225 114.248 136.564 114.191 137.244 114.304C138.376 114.418 139.225 114.758 140.753 114.531C142.282 114.248 143.471 114.588 144.263 114.645C145.112 114.645 145.962 114.418 146.867 114.474C147.773 114.531 148.452 114.701 149.132 114.645C149.528 114.645 150.32 114.588 150.887 114.531L151.113 109.882C150.773 109.882 150.434 109.826 150.151 109.769C149.075 109.485 149.358 109.939 147.49 109.542Z" fill="#FCE290"/>
<path d="M147.546 120.257C148.078 120.257 148.509 119.826 148.509 119.293C148.509 118.761 148.078 118.33 147.546 118.33C147.015 118.33 146.584 118.761 146.584 119.293C146.584 119.826 147.015 120.257 147.546 120.257Z" fill="#FCFCFC"/>
<path d="M146.018 121.505C146.018 121.675 145.905 121.788 145.735 121.788C145.565 121.788 145.452 121.675 145.452 121.505C145.452 121.335 145.565 121.221 145.735 121.221C145.905 121.221 146.018 121.335 146.018 121.505Z" fill="#FCFCFC"/>
<path d="M143.188 123.659C143.188 124.452 142.565 125.076 141.772 125.076C140.98 125.076 140.357 124.452 140.357 123.659C140.357 122.865 140.98 122.241 141.772 122.241C142.565 122.241 143.188 122.865 143.188 123.659Z" fill="#FCFCFC"/>
<path d="M145.169 126.72C145.169 127.004 144.943 127.231 144.659 127.231C144.376 127.231 144.15 127.004 144.15 126.72C144.15 126.437 144.376 126.21 144.659 126.21C144.943 126.153 145.169 126.437 145.169 126.72Z" fill="#FCFCFC"/>
<path d="M108.26 152.573C108.26 152.573 111.373 163.741 109.165 169.977L109.958 243.963H72.7658L75.2 189.764L61.2741 243.963H18.6473L39.6494 172.812C39.6494 172.812 40.1022 157.335 45.5367 152.573H108.26Z" fill="#4FAB90"/>
<path d="M86.8049 152.573C86.8049 152.573 80.8043 175.703 75.2566 189.707" stroke="#250E4F" stroke-width="0.5" stroke-miterlimit="10"/>
<path d="M90.541 154.557C90.541 154.557 88.1635 170.488 81.1439 172.302" stroke="#250E4F" stroke-width="0.5" stroke-miterlimit="10"/>
<path d="M61.3872 153.706C61.3872 153.706 59.3493 168.844 49.4993 170.431" stroke="#250E4F" stroke-width="0.5" stroke-miterlimit="10"/>
<path d="M66.8784 178.708H90.5411" stroke="#250E4F" stroke-width="0.5" stroke-miterlimit="10"/>
<path d="M87.4275 187.609C87.4275 187.609 66.9916 181.429 65.633 183.13C64.2744 184.831 74.8603 185.228 74.8603 185.228" stroke="#250E4F" stroke-width="0.5" stroke-miterlimit="10"/>
<path d="M107.75 169.411L98.806 167.143" stroke="#250E4F" stroke-width="0.5" stroke-miterlimit="10"/>
<path d="M105.599 169.864L97.9003 170.431" stroke="#250E4F" stroke-width="0.5" stroke-miterlimit="10"/>
<path opacity="0.6" d="M45.5368 152.573C42.2535 155.464 40.7816 162.21 40.1589 167.143C61.8403 167.029 99.9383 159.829 109.392 157.958C108.883 154.897 108.26 152.573 108.26 152.573H45.5368Z" fill="black"/>
<path d="M81.5402 30.5112C81.5402 30.5112 79.8419 28.1301 78.8229 26.656C76.5019 23.0276 78.7663 15.1472 78.7663 15.1472L86.8614 15.7142L86.5218 24.2749L81.5402 30.5112Z" fill="#250E4F"/>
<path d="M108.826 138.286C109.166 133.297 109.788 106.707 109.788 106.707C109.788 106.707 112.166 97.5798 113.977 87.2048C114.204 85.7875 115.053 84.4835 116.242 83.6331C122.752 79.0409 131.639 77.1701 131.639 77.1701C131.639 77.1701 117.94 58.858 114.6 57.1005C105.599 52.395 99.4854 50.1839 99.4854 50.1839L93.6546 42.02C93.6546 42.02 83.9745 41.283 80.3515 40.2058C76.7285 39.1286 70.3316 44.5712 70.3316 44.5712C70.3316 44.5712 54.3678 45.4216 38.5739 51.9981C22.7799 58.5746 22.7799 78.1339 26.7992 90.8899C30.8184 103.646 41.4609 121.391 41.4609 121.391L44.1216 149.681C41.3477 150.418 40.6118 155.294 48.3673 155.294C56.1227 155.294 92.5225 155.294 98.8061 155.294C105.09 155.294 111.77 155.634 112.392 152.119C113.015 148.604 108.486 143.275 108.826 138.286Z" fill="#95BBDB"/>
<path opacity="0.6" d="M116.185 83.6331C117.544 82.6693 118.959 81.8756 120.431 81.1386L116.695 68.1558C116.525 71.8408 115.109 81.3654 113.921 87.2048C114.204 85.7875 114.996 84.4835 116.185 83.6331Z" fill="black"/>
<path d="M118.449 66.1714V82.2157C118.619 82.1023 118.846 81.9889 119.015 81.8755V66.1714H123.091C122.921 66.0013 122.808 65.7745 122.638 65.6044H119.072V61.3524C118.902 61.1256 118.676 60.8989 118.506 60.7288V65.6044H102.486V51.3176C102.316 51.261 102.089 51.1476 101.919 51.0909V65.6044H85.8991V49.5601H99.089L98.6927 48.9932H85.8991V41.1695C85.7292 41.1695 85.5028 41.1128 85.333 41.1128V48.9932H69.3126V44.6278C69.1427 44.6278 68.9729 44.6845 68.7465 44.6845V48.9932H52.7261V47.4058C52.5562 47.4625 52.3298 47.5192 52.16 47.5192V48.9932H46.9519C46.3858 49.1633 45.7631 49.3901 45.1404 49.5601H52.16V65.6044H35.9697V53.1885C35.7999 53.3019 35.5735 53.4153 35.4036 53.5287V65.6044H26.0065C25.9499 65.7745 25.8933 66.0013 25.8367 66.1714H35.4036V82.2157H24.7611C24.7611 82.3858 24.8177 82.6125 24.8177 82.7826H35.347V98.8269H29.6861C29.7427 98.997 29.8559 99.2238 29.9125 99.3938H35.347V110.676C35.5169 111.016 35.7433 111.413 35.9131 111.753V99.3938H51.9335V115.438H37.9511C38.0643 115.608 38.1775 115.835 38.2907 116.005H52.0468V132.049H42.31L42.3666 132.616H51.9901V148.661H43.895L43.9516 149.228H52.0468V155.18C52.2166 155.18 52.443 155.18 52.6128 155.18V149.228H68.6333V155.18C68.8031 155.18 69.0295 155.18 69.1993 155.18V149.228H85.2198V155.18C85.3896 155.18 85.616 155.18 85.7858 155.18V149.228H101.806V155.18C101.976 155.18 102.203 155.18 102.372 155.18V149.228H111.939C111.883 149.057 111.826 148.831 111.769 148.661H102.372V132.616H109.052C109.052 132.446 109.052 132.219 109.052 132.049H102.372V116.005H109.505C109.505 115.835 109.505 115.608 109.505 115.438H102.372V99.3938H111.486C111.543 99.2238 111.543 98.997 111.6 98.8269H102.372V82.7826H117.43C117.713 82.6125 118.053 82.3858 118.393 82.2157H102.372V66.1714H118.449ZM51.9901 98.8836H35.9697V82.8393H51.9901V98.8836ZM51.9901 82.2157H35.9697V66.1714H51.9901V82.2157ZM68.5766 148.774H52.5562V132.73H68.5766V148.774ZM68.5766 132.106H52.5562V116.062H68.5766V132.106ZM68.5766 115.495H52.5562V99.4505H68.5766V115.495ZM68.5766 98.8836H52.5562V82.8393H68.5766V98.8836ZM68.5766 82.2157H52.5562V66.1714H68.5766V82.2157ZM68.5766 65.6044H52.5562V49.5601H68.5766V65.6044ZM85.2198 148.774H69.1993V132.73H85.2198V148.774ZM85.2198 132.106H69.1993V116.062H85.2198V132.106ZM85.2198 115.495H69.1993V99.4505H85.2198V115.495ZM85.2198 98.8836H69.1993V82.8393H85.2198V98.8836ZM85.2198 82.2157H69.1993V66.1714H85.2198V82.2157ZM85.2198 65.6044H69.1993V49.5601H85.2198V65.6044ZM101.806 148.774H85.7858V132.73H101.806V148.774ZM101.806 132.106H85.7858V116.062H101.806V132.106ZM101.806 115.495H85.7858V99.4505H101.806V115.495ZM101.806 98.8836H85.7858V82.8393H101.806V98.8836ZM101.806 82.2157H85.7858V66.1714H101.806V82.2157Z" fill="white"/>
<path opacity="0.6" d="M109.109 131.312L41.291 121.391L43.9516 149.681C41.1778 150.418 40.4419 155.294 48.1973 155.294C53.462 155.294 71.7468 155.294 85.05 155.294C96.0321 150.702 105.316 144.465 109.222 141.744C108.939 140.61 108.769 139.42 108.826 138.286C108.882 137.039 108.996 134.487 109.109 131.312Z" fill="black"/>
<path d="M89.0692 93.271L95.7491 128.534L93.5413 155.691" stroke="#250E4F" stroke-width="0.5" stroke-miterlimit="10"/>
<path d="M81.0873 52.9052L76.1057 63.2234C76.1057 63.2234 71.1241 54.4926 70.7844 45.7051" stroke="#250E4F" stroke-width="0.5" stroke-miterlimit="10"/>
<path d="M99.3722 50.1272V58.8013" stroke="#250E4F" stroke-width="0.5" stroke-miterlimit="10"/>
<path d="M109.109 86.6379H95.8057C95.8057 86.6379 95.5792 98.7704 102.486 98.7704C109.279 98.7704 109.109 86.6379 109.109 86.6379Z" fill="#250E4F"/>
<path d="M82.7855 79.3243C82.7855 80.2314 82.0496 80.9684 81.1439 80.9684C80.2381 80.9684 79.5022 80.2314 79.5022 79.3243C79.5022 78.4172 80.2381 77.6802 81.1439 77.6802C82.0496 77.6802 82.7855 78.4172 82.7855 79.3243Z" fill="#250E4F"/>
<path d="M84.8801 96.5592C85.7867 96.5592 86.5217 95.8231 86.5217 94.9151C86.5217 94.0071 85.7867 93.271 84.8801 93.271C83.9734 93.271 83.2384 94.0071 83.2384 94.9151C83.2384 95.8231 83.9734 96.5592 84.8801 96.5592Z" fill="#250E4F"/>
<path d="M88.1635 111.923C89.0702 111.923 89.8052 111.187 89.8052 110.279C89.8052 109.371 89.0702 108.635 88.1635 108.635C87.2569 108.635 86.5219 109.371 86.5219 110.279C86.5219 111.187 87.2569 111.923 88.1635 111.923Z" fill="#250E4F"/>
<path d="M56.2925 71.5007L64.3876 93.6679" stroke="#250E4F" stroke-width="0.5" stroke-miterlimit="10"/>
<path d="M58.6702 66.3982C58.6702 66.3982 61.444 74.6188 60.142 82.0456" stroke="#250E4F" stroke-width="0.5" stroke-miterlimit="10"/>
<path d="M52.7261 79.7212L58.387 84.0866" stroke="#250E4F" stroke-width="0.5" stroke-miterlimit="10"/>
<path opacity="0.6" d="M36.0264 111.98L62.8026 92.5339C52.0468 93.6678 36.7623 101.662 32.1204 104.213C33.4224 106.991 34.781 109.599 36.0264 111.98Z" fill="black"/>
<path d="M43.5554 124.056C55.5566 145.202 67.8408 153.196 86.9747 146.506C106.052 139.76 131.583 125.756 131.583 125.756C137.074 126.494 140.414 119.18 140.414 119.18C140.414 119.18 144.999 119.917 145.169 119.293C145.339 118.67 140.187 116.969 140.187 116.969C140.187 116.969 146.98 117.309 147.094 116.459C147.207 115.608 140.187 115.155 140.187 115.155C140.187 115.155 148.339 115.155 148.339 114.248C148.339 113.341 139.734 112.717 139.734 112.717C139.734 112.717 147.83 111.98 147.264 110.959C146.754 109.939 139.961 110.619 136.961 112.037C133.96 113.454 125.582 121.448 125.582 121.448L75.1434 119.86L69.8787 107.048L43.5554 124.056Z" fill="#FF6B6B"/>
<path d="M75.2566 119.804L78.6531 127.457" stroke="#CF4040" stroke-width="0.75" stroke-miterlimit="10"/>
<path d="M76.5411 144.854C76.7038 143.865 75.1603 142.787 73.0934 142.446C71.0266 142.104 69.2191 142.629 69.0563 143.618C68.8936 144.606 70.4371 145.684 72.504 146.026C74.5708 146.367 76.3783 145.842 76.5411 144.854Z" fill="#FFA3A3"/>
<path d="M71.577 111.073L69.8787 107.048L43.5554 124.056C45.0839 126.777 46.6123 129.271 48.1974 131.539C58.0474 125.246 68.1238 114.815 71.577 111.073Z" fill="#CF4040"/>
<path d="M81.5402 30.5112L78.1436 41.5098C77.6908 42.9271 77.804 44.4012 78.4267 45.7051L81.5402 52.395L89.1258 93.2144C89.1258 93.2144 92.6922 88.3387 94.2206 83.6331C95.7491 78.9276 93.2583 76.3197 94.2206 72.4645C95.183 68.666 98.0134 63.677 97.5606 59.5384C97.1077 55.3997 92.6356 49.3335 92.6356 49.3335L95.8057 36.2373L81.5402 30.5112Z" fill="#FF6B6B"/>
<path d="M94.6736 40.9429L95.8058 36.294L83.4083 31.2483C83.5782 32.3255 85.2198 41.0563 94.6736 40.9429Z" fill="#CF4040"/>
<path d="M92.579 49.4468L91.1072 56.3634" stroke="#CF4040" stroke-width="0.75" stroke-miterlimit="10"/>
<path d="M89.0692 93.271C89.0692 93.271 92.6356 88.3953 94.164 83.6898C95.6925 78.9842 93.2017 76.3763 94.164 72.5211C95.1264 68.666 97.9569 63.7336 97.504 59.595C97.4474 59.0847 97.3342 58.5178 97.1643 58.0076C97.6738 61.1824 94.1074 66.2848 92.579 69.7431C90.8807 73.5416 90.4278 77.7369 91.0505 79.7212C91.56 81.422 90.4278 84.5969 87.9937 87.6583L89.0692 93.271Z" fill="#CF4040"/>
<path opacity="0.6" d="M75.2566 189.764L87.4276 243.963H72.8224L75.2566 189.764Z" fill="black"/>
<path d="M102.995 16.7346L86.4652 15.7141C86.5218 18.2653 86.0123 20.7598 85.2764 22.9142C84.9367 21.8937 84.1442 21.2134 83.295 21.2134C82.1062 21.2134 81.0873 22.574 81.0873 24.2182C81.0873 25.919 82.0496 27.2229 83.295 27.2229C83.3516 27.2229 83.4083 27.2229 83.4649 27.2229C82.4459 29.2639 81.5402 30.5111 81.5402 30.5111C82.5025 32.6655 87.2577 36.464 90.3146 37.201C94.3904 38.1648 98.5795 37.5412 100.844 33.2891C103.108 29.0371 101.693 25.0686 101.693 25.0686L102.995 16.7346Z" fill="#FF6B6B"/>
<path d="M84.3141 24.9553C84.7669 23.4246 83.8612 21.9505 83.012 22.1206C82.1063 22.2907 81.3704 25.5222 83.012 26.3726" stroke="#250E4F" stroke-width="0.75" stroke-miterlimit="10"/>
<path d="M78.3701 15.4307L103.731 17.585C103.731 17.585 105.543 4.14865 92.296 2.61792C80.125 1.14389 78.3701 15.4307 78.3701 15.4307Z" fill="#61D1B0"/>
<path d="M85.899 16.1111L103.731 17.5851C103.731 17.5851 104.523 11.7457 101.24 7.32358C97.9568 2.90148 91.2203 3.52511 88.5031 8.28738C86.918 11.1787 86.1821 14.467 85.899 16.1111Z" fill="#4FAB90"/>
<path d="M87.937 16.2812L111.43 18.3788C111.43 18.3788 110.581 16.2245 102.712 14.9205C98.7494 14.2402 88.7295 14.0134 87.937 16.2812Z" fill="#217A60"/>
<path d="M98.2399 21.8372L97.5605 24.9553C97.5605 24.9553 99.5985 25.4656 99.4286 26.1459C99.2588 26.8262 97.3341 26.8262 97.3341 26.8262" stroke="#250E4F" stroke-width="0.75" stroke-miterlimit="10"/>
<path d="M99.3722 28.5835L89.5788 25.9189C89.5788 25.9189 88.39 30.7946 93.8811 31.9852C96.3153 32.4954 99.3722 30.8513 99.3722 28.5835Z" fill="white"/>
<path d="M95.0132 33.8561C94.9566 34.1963 94.2206 34.3096 93.4281 34.1396C92.6356 33.9695 92.0129 33.5726 92.0695 33.2325C92.1261 32.8923 92.862 32.7789 93.6546 32.949C94.5037 33.1191 95.0698 33.5159 95.0132 33.8561Z" fill="#FFA3A3"/>
<path d="M98.9758 21.837C99.7117 20.9866 101.184 21.2134 101.75 22.1772" stroke="#250E4F" stroke-width="0.75" stroke-miterlimit="10"/>
<path d="M96.485 21.1567C96.0887 19.7393 93.5979 18.9456 92.2393 20.1929" stroke="#250E4F" stroke-width="0.75" stroke-miterlimit="10"/>
<path d="M97.5606 19.5692C97.5606 19.5692 95.0132 17.755 92.3525 17.0747" stroke="#250E4F" stroke-width="2" stroke-miterlimit="10"/>
<path d="M99.089 19.5694C99.089 19.5694 100.674 19.1159 102.995 18.9458" stroke="#250E4F" stroke-width="2" stroke-miterlimit="10"/>
<path d="M33.6487 109.259C37.0453 105.97 46.8953 97.5797 63.4818 92.3072C64.7838 91.9103 66.1424 92.5906 66.6519 93.8379L71.5769 106.367C72.0298 107.558 71.5769 108.918 70.5013 109.542L44.6309 124.736C43.4421 125.416 41.9137 125.133 41.0645 124.056C39.0832 121.561 35.63 116.969 33.1392 112.377C32.5731 111.356 32.7996 110.052 33.6487 109.259Z" fill="#250E4F"/>
<path d="M126.809 40.3531C127.289 37.4811 125.353 34.7634 122.485 34.2829C119.618 33.8024 116.904 35.7412 116.424 38.6132C115.944 41.4852 117.88 44.203 120.748 44.6834C123.616 45.1639 126.33 43.2252 126.809 40.3531Z" fill="#FF6B6B"/>
<path d="M185.526 67.044C185.993 64.1699 184.045 61.4609 181.175 60.9933C178.306 60.5256 175.601 62.4764 175.134 65.3505C174.667 68.2245 176.615 70.9336 179.484 71.4012C182.354 71.8689 185.059 69.9181 185.526 67.044Z" fill="#FF6B6B"/>
</g>
<defs>
<clipPath id="clip0">
<rect width="214" height="241" fill="white"/>
</clipPath>
</defs>
</svg>
