<svg width="187" height="215" viewBox="0 0 187 215" fill="none" xmlns="http://www.w3.org/2000/svg">
<path d="M146.243 119.906L156.881 215H124.777L115.793 153.208L112.247 152.83L114.28 215H79.5754L86.9987 119.245L146.243 119.906Z" fill="#95BBDB"/>
<path d="M112.247 128.727L113.808 152.972" stroke="#250E4F" stroke-width="0.5" stroke-miterlimit="10"/>
<path d="M107.945 130.755C107.945 130.755 108.89 143.161 108.843 144.01C108.748 144.906 113.477 147.547 113.477 147.547" stroke="#250E4F" stroke-width="0.5" stroke-miterlimit="10"/>
<path d="M104.446 150.377L122.413 149.34" stroke="#250E4F" stroke-width="0.5" stroke-miterlimit="10"/>
<path d="M107.33 151.887L120.285 154.009" stroke="#250E4F" stroke-width="0.5" stroke-miterlimit="10"/>
<path d="M137.212 129.434C137.212 129.434 134.659 143.302 149.695 149.859" stroke="#250E4F" stroke-width="0.5" stroke-miterlimit="10"/>
<path d="M93.5709 124.01C93.5709 124.01 93.5709 139.623 85.2493 142.5" stroke="#250E4F" stroke-width="0.5" stroke-miterlimit="10"/>
<path opacity="0.6" d="M148.465 139.953L146.196 119.859L86.9988 119.245L85.7695 135.236C94.5639 137.028 126.716 142.925 148.465 139.953Z" fill="black"/>
<path d="M124.919 34.8586L130.687 36.2266C131.255 36.3681 131.633 36.8869 131.586 37.453L124.919 126.179C124.919 126.179 111.349 138.774 93.24 126.651L100.852 54.8586L105.959 39.5285L108.985 38.2077L124.919 34.8586Z" fill="#FCD75D"/>
<path d="M123.028 54.0566L119.954 56.368" stroke="#A3740E" stroke-width="3" stroke-miterlimit="10"/>
<path d="M115.557 64.6228L112.437 66.9341" stroke="#A3740E" stroke-width="3" stroke-miterlimit="10"/>
<path d="M122.838 73.9625L119.34 72.3115" stroke="#A3740E" stroke-width="3" stroke-miterlimit="10"/>
<path d="M106.243 68.1133L102.744 66.4624" stroke="#A3740E" stroke-width="3" stroke-miterlimit="10"/>
<path d="M122.933 44.1982L123.169 48.0662" stroke="#A3740E" stroke-width="3" stroke-miterlimit="10"/>
<path d="M115.179 76.9341L111.349 76.2266" stroke="#A3740E" stroke-width="3" stroke-miterlimit="10"/>
<path d="M111.349 93.5379L107.566 92.8303" stroke="#A3740E" stroke-width="3" stroke-miterlimit="10"/>
<path d="M121.278 88.3021L117.448 87.5474" stroke="#A3740E" stroke-width="3" stroke-miterlimit="10"/>
<path d="M113.76 55.3775L109.93 54.6699" stroke="#A3740E" stroke-width="3" stroke-miterlimit="10"/>
<path d="M108.843 83.7266L105.722 86.0379" stroke="#A3740E" stroke-width="3" stroke-miterlimit="10"/>
<path d="M115.983 96.6982L112.862 99.0096" stroke="#A3740E" stroke-width="3" stroke-miterlimit="10"/>
<path d="M110.734 125.802L106.952 125.094" stroke="#A3740E" stroke-width="3" stroke-miterlimit="10"/>
<path d="M109.127 118.727L106.006 121.038" stroke="#A3740E" stroke-width="3" stroke-miterlimit="10"/>
<path d="M115.368 127.547L112.247 129.859" stroke="#A3740E" stroke-width="3" stroke-miterlimit="10"/>
<path d="M106.337 101.793L102.555 100.944" stroke="#A3740E" stroke-width="3" stroke-miterlimit="10"/>
<path opacity="0.6" d="M106.479 93.3492C107.094 88.019 107.235 84.0567 106.904 78.585C106.573 73.1133 107.094 66.0379 108.181 59.1982C109.316 52.3586 108.181 45.0945 108.654 41.4624C108.843 40.0001 108.938 39.0095 108.938 38.302L105.959 39.5756L100.852 54.9058L93.24 126.698C97.8736 129.717 101.562 131.179 104.919 131.604C107.661 121.321 105.912 98.4907 106.479 93.3492Z" fill="black"/>
<path d="M70.3554 52.0755L65.2017 55.0472L46.1471 22.8302C46.1471 22.8302 47.6601 19.717 47.2346 17.5C46.809 15.2831 45.7215 14.7642 44.4922 15.0944C43.1683 12.6887 41.3716 11.5567 40.6624 11.7453C39.9532 11.934 40.0477 12.8302 40.0477 12.8302C40.0477 12.8302 38.7238 11.6982 37.7309 12.1227C36.738 12.5472 37.2108 14.5283 37.2108 14.5283C37.2108 14.5283 36.2179 13.8208 35.6978 14.3397C35.1777 14.8585 35.6978 16.2736 35.6978 16.2736C35.6978 16.2736 35.1304 15.7548 34.5157 15.9906C33.9011 16.2265 34.5157 23.9623 39.2439 24.3868C39.2439 24.3868 42.7428 47.9717 46.1471 58.8208C49.5514 69.6699 55.4143 82.3586 76.8331 76.1793L70.3554 52.0755Z" fill="#FF9C9C"/>
<path d="M65.769 54.7643L68.4641 77.7832C70.9228 77.5945 73.7124 77.1228 76.7857 76.2266L70.3554 52.1228L65.769 54.7643Z" fill="#E67171"/>
<path d="M105.486 16.4152L105.108 22.2643C105.108 22.2643 104.067 24.3869 104.588 27.2171C105.06 30.0473 106.053 33.9152 109.647 33.3492L110.923 37.2643L109.032 38.302C109.032 38.302 110.025 44.4341 115.368 43.585L115.935 50.3303L117.59 43.0662C117.59 43.0662 122.649 42.1228 124.966 34.953L122.271 34.2926L120.663 27.8303L124.966 20.6133L115.652 11.4624L105.486 16.4152Z" fill="#FF9C9C"/>
<path d="M109.647 33.3491C112.767 32.9717 115.179 30.5189 116.361 28.8679C116.361 28.8679 116.172 34.9528 110.451 35.8491L109.647 33.3491Z" fill="#E67171"/>
<path d="M111.68 39.9057L110.923 37.217" stroke="#CF4040" stroke-width="0.75" stroke-miterlimit="10"/>
<path d="M121.704 23.1132C121.845 21.6981 121.514 21.0849 120.994 21.0378C120.474 20.9906 119.15 22.4057 119.812 24.3397" stroke="#250E4F" stroke-width="0.75" stroke-miterlimit="10"/>
<path d="M109.647 20.0945L108.937 22.3586C108.937 22.3586 107.755 22.4058 107.661 22.5473C107.614 22.6888 108.654 23.5379 108.654 23.5379" stroke="#250E4F" stroke-width="0.75" stroke-miterlimit="10"/>
<path d="M107.283 25.4718L113.004 24.1982C113.004 24.1982 113.855 28.4907 111.727 29.3398C109.552 30.1416 107.283 25.4718 107.283 25.4718Z" fill="white"/>
<path d="M113.004 20.5191C112.957 21.2267 112.578 21.7927 112.2 21.7455C111.822 21.6984 111.538 21.1323 111.585 20.3776C111.633 19.6701 112.011 19.104 112.389 19.1512C112.767 19.1984 113.051 19.8116 113.004 20.5191Z" fill="#250E4F"/>
<path d="M108.181 20.1417C108.134 20.8492 107.756 21.4153 107.377 21.3681C106.999 21.3209 106.715 20.7549 106.763 20.0002C106.81 19.2926 107.188 18.7266 107.566 18.7737C107.945 18.8209 108.228 19.4341 108.181 20.1417Z" fill="#250E4F"/>
<path d="M126.432 35.1887C126.432 35.1887 140.096 38.3019 146.621 41.0849C153.146 43.868 160.853 50.6604 162.697 62.3114C164.541 74.0095 165.203 83.1604 165.203 83.1604H154.423L151.208 129.057C151.208 129.057 131.822 134.104 117.685 133.066C117.685 133.066 119.009 105.33 120.096 98.6793C121.184 92.0284 119.434 88.0189 120.9 84.0566C122.366 80.0944 121.278 75.4717 122.508 70.4246C123.69 65.3774 125.817 54.1038 126.905 48.6793C127.992 43.2076 129.127 36.7925 126.432 35.1887Z" fill="#4FAB90"/>
<path opacity="0.6" d="M131.633 63.4434L129.505 56.6981C129.505 56.6981 133.666 54.1981 135.132 52.3113C136.598 50.4245 134.612 46.4623 134.612 46.4623L127.614 45C127.425 46.2264 127.188 47.4528 126.952 48.5849C125.865 54.0094 123.737 65.283 122.555 70.3302C122.177 71.8396 122.035 73.3491 121.94 74.8113C121.94 74.8113 126.81 70.6604 128.749 69.6226C131.869 67.9717 132.531 66.6981 131.633 63.4434Z" fill="black"/>
<path opacity="0.6" d="M126.479 105.896L142.697 65.3774L134.612 107.028L126.479 105.896Z" fill="black"/>
<path d="M132.673 62.6415C132.862 60 129.742 56.4151 129.742 56.4151C129.742 56.4151 134.801 52.217 135.51 48.2547C135.841 46.4151 134.706 43.3962 133.382 40.7075C132.011 37.9245 129.458 35.8962 126.432 35.2358C129.127 36.8396 127.992 43.2547 126.952 48.6792C125.912 54.1038 123.737 65.3774 122.555 70.4245C122.177 71.934 122.035 73.4434 121.94 74.9057C124.493 70.6132 132.437 65.283 132.673 62.6415Z" fill="#61D1B0"/>
<path d="M110.214 37.5945C110.214 37.5945 108.181 38.3964 107.661 42.0284C107.141 45.6605 107.33 52.6417 106.101 59.4341C104.871 66.2266 104.257 73.302 104.446 78.8209C104.682 84.2926 104.446 88.302 103.736 93.585C103.027 98.8681 104.635 121.085 102.413 127.877L84.54 125.377L89.8356 87.9247L90.1193 73.7737L76.0293 78.7737L67.2821 53.302C67.2821 53.302 87.7552 42.9247 94.4692 40.802C101.183 38.6794 110.214 37.5945 110.214 37.5945Z" fill="#4FAB90"/>
<path opacity="0.6" d="M100.9 44.8113C100.9 44.8113 96.3606 53.1132 101.278 60.6132C101.278 60.6132 99.3393 61.4622 98.7247 63.8679C98.11 66.2735 98.5356 70.0471 104.399 76.5566V73.1603L101.467 65.8018L103.784 52.7358L100.9 44.8113Z" fill="black"/>
<path d="M99.8121 48.3964C98.7246 54.2454 102.318 58.302 102.318 58.302C102.318 58.302 99.1974 59.9058 98.7246 63.1605C98.3463 65.8492 102.602 71.2266 104.398 75.1417C104.493 70.3303 105.108 64.8115 106.053 59.4341C107.283 52.6417 107.141 45.6134 107.614 42.0284C108.134 38.3964 110.167 37.5945 110.167 37.5945C106.715 38.0662 103.547 40.0473 101.798 43.019C100.947 44.5284 100.19 46.3209 99.8121 48.3964Z" fill="#61D1B0"/>
<path d="M143.642 60.6133L139.292 82.7359" stroke="#250E4F" stroke-width="0.3923" stroke-miterlimit="10"/>
<path d="M138.725 62.7358C138.725 62.7358 137.307 70.9906 140.522 76.5566" stroke="#250E4F" stroke-width="0.3923" stroke-miterlimit="10"/>
<path d="M90.1666 73.8681V51.6511" stroke="#250E4F" stroke-width="0.3923" stroke-miterlimit="10"/>
<path d="M85.3911 55.3774C85.3911 55.3774 86.6204 67.1699 90.1666 69.0567" stroke="#250E4F" stroke-width="0.3923" stroke-miterlimit="10"/>
<path opacity="0.6" d="M84.8238 75.7548L90.1666 55.8491V73.868L84.8238 75.7548Z" fill="black"/>
<path d="M114.706 46.0849C114.753 46.4151 114.47 46.7453 114.091 46.7924C113.76 46.8396 113.429 46.5566 113.382 46.1792C113.335 45.849 113.618 45.5188 113.997 45.4717C114.375 45.4717 114.659 45.7075 114.706 46.0849Z" stroke="#250E4F" stroke-width="0.3438" stroke-miterlimit="10"/>
<path d="M115.084 48.7736C115.131 49.1038 114.848 49.434 114.47 49.4812C114.139 49.5283 113.808 49.2453 113.76 48.8679C113.713 48.5378 113.997 48.2076 114.375 48.1604C114.753 48.1604 115.037 48.3963 115.084 48.7736Z" stroke="#250E4F" stroke-width="0.3438" stroke-miterlimit="10"/>
<path opacity="0.6" d="M112.247 152.83L114.28 215H102.744L112.247 152.83Z" fill="black"/>
<path d="M120.616 27.7359C120.616 27.7359 125.959 24.4812 127.519 19.6227C129.08 14.7642 126.999 12.0755 124.919 11.3208C122.838 10.6133 123.5 10.3774 123.264 9.151C122.413 4.85855 119.529 3.82082 115.793 4.90572C112.058 5.99063 110.356 5.47176 108.228 4.6227C106.101 3.77365 103.358 5.04723 106.29 7.26421C101.656 8.77365 94.942 10.9906 97.0697 14.2925C99.1974 17.5944 103.642 16.2736 103.642 16.2736C103.642 16.2736 100.379 17.5944 100.994 18.5378C101.609 19.4812 107.566 17.4529 111.585 15.9906C109.079 17.9718 110.403 18.9623 115.226 16.651C116.975 20.5661 118.772 22.3114 118.772 22.3114C118.772 22.3114 118.914 20.5189 120.805 20.1887C122.744 19.8586 123.169 22.9718 121.798 24.8585C120.758 26.2265 120.001 25.8963 120.001 25.8963L120.616 27.7359Z" fill="#A3740E"/>
<path d="M54.5279 40.29C54.9833 38.2294 53.678 36.1907 51.6126 35.7364C49.5471 35.2821 47.5036 36.5842 47.0482 38.6448C46.5928 40.7053 47.898 42.744 49.9635 43.1983C52.0289 43.6527 54.0725 42.3505 54.5279 40.29Z" fill="#250E4F"/>
<path opacity="0.4" d="M52.0101 41.4152C52.0101 41.4152 50.1188 41.4152 48.2275 42.3586C48.8895 42.9246 49.7878 43.302 50.7335 43.302C52.8612 43.302 54.5633 41.6039 54.5633 39.4813V39.4341C53.7122 39.9058 52.8139 40.519 52.0101 41.4152Z" fill="black"/>
<path d="M69.3391 39.2637C69.6606 37.1781 68.2265 35.2273 66.1358 34.9065C64.0452 34.5858 62.0898 36.0166 61.7683 38.1022C61.4468 40.1879 62.8809 42.1387 64.9716 42.4594C67.0622 42.7802 69.0176 41.3494 69.3391 39.2637Z" fill="#250E4F"/>
<path opacity="0.4" d="M66.9039 42.2642C65.6746 40.3302 63.8306 39.1981 62.554 38.8208C62.3175 38.7736 62.0339 38.6792 61.7029 38.6321V38.6792C61.7029 40.8019 63.405 42.5 65.5327 42.5C66.0528 42.5 66.5256 42.4057 66.9039 42.2642Z" fill="black"/>
<path d="M64.5871 56.9812C64.5871 56.9812 67.6131 55.2831 68.2278 49.4812C68.8424 43.6793 64.8708 40.5661 62.554 39.9057C60.2371 39.2925 55.4144 38.7265 52.0101 42.4529C52.0101 42.4529 46.6199 42.5001 45.1542 46.8869C43.6885 51.2737 50.8753 53.585 50.8753 53.585C50.8753 53.585 50.4498 61.085 54.0905 61.7453C57.7785 62.4057 64.5871 56.9812 64.5871 56.9812Z" fill="#250E4F"/>
<path d="M45.8635 104.245L42.5065 126.179H73.0979L71.4903 104.245H45.8635Z" fill="#FF6B6B"/>
<path d="M63.1213 126.179H73.0978L71.4902 104.245H45.8634L44.0194 116.132L63.1213 126.179Z" fill="#CF4040"/>
<path d="M41.8444 125.425H74.3271C74.3271 125.425 87.9443 153.019 92.9089 214.953H70.2609L58.535 159.198H56.029L60.9936 215H41.8444C41.8444 215 31.4897 171.368 33.9956 151.981C36.5016 132.594 41.8444 125.425 41.8444 125.425Z" fill="#4FAB90"/>
<path opacity="0.6" d="M74.2798 125.425H41.8444C41.8444 125.425 41.1825 126.321 40.2368 128.255L78.677 136.792C76.1238 129.151 74.2798 125.425 74.2798 125.425Z" fill="black"/>
<path d="M67.6604 65.3774L71.4902 66.5095L68.4169 107.783C68.4169 107.783 45.8161 107.406 45.8161 107.783C45.8161 107.972 44.7759 98.2548 46.9509 88.6322C49.3623 78.0189 53.8541 67.4057 53.8541 67.4057L56.029 66.5095L67.6604 65.3774Z" fill="#FFBFBF"/>
<path d="M46.0054 94.3396C45.9581 94.8113 45.9108 95.283 45.8635 95.7547H69.3154L69.4099 94.3396H46.0054Z" fill="#250E4F"/>
<path d="M47.282 87.2642C47.1875 87.7359 47.0456 88.1604 46.951 88.6321V88.6793H69.8355L69.9301 87.2642H47.282Z" fill="#250E4F"/>
<path d="M68.8898 101.415H45.5798C45.5798 101.887 45.5798 102.358 45.5798 102.83H68.7953L68.8898 101.415Z" fill="#250E4F"/>
<path d="M51.6792 73.1604C51.5373 73.6321 51.3482 74.1038 51.1591 74.5755H70.8756L70.9702 73.1604H51.6792Z" fill="#250E4F"/>
<path d="M49.2678 80.2358C49.126 80.7075 48.9841 81.1792 48.8423 81.6509H70.3556L70.4501 80.2358H49.2678Z" fill="#250E4F"/>
<path opacity="0.6" d="M55.2725 70.9434L52.1992 92.4528L52.9557 107.783H48.8422L49.5987 90.3302L55.2725 70.9434Z" fill="black"/>
<path d="M68.5115 65.6604C68.5115 65.6604 79.15 68.4906 83.358 72.0283C87.5189 75.5661 96.8334 96.4623 100.19 105.283C105.013 117.877 107.661 137.453 90.4503 134.481C73.2397 131.462 70.4974 130.566 70.4974 130.566V121.981L64.1143 119.245L63.2159 92.5472L68.5115 65.6604Z" fill="#4467DB"/>
<path opacity="0.6" d="M65.7692 93.585L74.3272 89.7642L71.2539 66.4152C69.599 65.8963 68.5115 65.6133 68.5115 65.6133L63.2159 92.5001L64.1143 119.198L70.3082 105.425L65.7692 93.585Z" fill="black"/>
<path d="M67.2823 112.689C67.2823 112.689 64.4926 120.943 66.3366 128.915L69.7409 118.16L67.2823 112.689Z" fill="#4467DB"/>
<path opacity="0.6" d="M72.0104 114.481L78.3462 115.425C78.3462 115.425 77.2587 127.594 74.8946 132.217L70.3082 131.226L72.0104 114.481Z" fill="black"/>
<path opacity="0.6" d="M77.5424 95.7549L75.3674 114.953L82.176 115.991L77.5424 95.7549Z" fill="black"/>
<path d="M76.5967 91.6511L82.176 115.991L71.4902 114.387" stroke="#250E4F" stroke-width="0.3923" stroke-miterlimit="10"/>
<path d="M79.5754 74.5754C79.5754 74.5754 74.5635 81.9811 76.4548 90.7075" stroke="#250E4F" stroke-width="0.5" stroke-miterlimit="10"/>
<path d="M79.1972 80.519L77.4478 91.0851" stroke="#250E4F" stroke-width="0.5" stroke-miterlimit="10"/>
<path d="M65.7691 93.585L73.9961 86.5567L71.2065 66.4152C69.5516 65.8963 68.4642 65.6133 68.4642 65.6133L63.1686 92.5001L64.0669 119.198L69.4098 102.076L65.7691 93.585Z" fill="#95BBDB"/>
<path d="M82.176 115.991L90.4976 117.123" stroke="#250E4F" stroke-width="0.5" stroke-miterlimit="10"/>
<path d="M91.3014 113.443L84.5874 115.472" stroke="#250E4F" stroke-width="0.5" stroke-miterlimit="10"/>
<path d="M56.0764 66.5566L50.4498 92.4529L51.1118 118.066H41.7499L41.8445 109.717L21.2769 121.84L22.1752 97.4057C22.1752 97.4057 34.3739 84.1982 37.9201 79.7642C41.419 75.2831 45.958 67.5472 56.0764 66.5566Z" fill="#4467DB"/>
<path opacity="0.6" d="M56.0763 66.5566C55.0361 66.651 54.0432 66.8397 53.0976 67.0755L43.5466 84.5755L48.2275 91.651L41.2771 99.3397L51.159 118.066L50.4971 92.4529L56.0763 66.5566Z" fill="black"/>
<path d="M56.0763 66.5566C55.0361 66.651 54.0432 66.8397 53.0976 67.0755L45.1542 82.6415L48.2275 91.6981L43.5466 98.2076L51.159 118.113L50.4971 92.5L56.0763 66.5566Z" fill="#95BBDB"/>
<path d="M39.4332 130.896H54.2798" stroke="#250E4F" stroke-width="0.5" stroke-miterlimit="10"/>
<path d="M57.2111 130.896H73.1451" stroke="#250E4F" stroke-width="0.5" stroke-miterlimit="10"/>
<path d="M49.7878 125.755V130.896" stroke="#250E4F" stroke-width="0.5" stroke-miterlimit="10"/>
<path d="M51.8209 125.755V130.896" stroke="#250E4F" stroke-width="0.5" stroke-miterlimit="10"/>
<path d="M61.561 125.755V130.896" stroke="#250E4F" stroke-width="0.5" stroke-miterlimit="10"/>
<path d="M63.6415 125.755V130.896" stroke="#250E4F" stroke-width="0.5" stroke-miterlimit="10"/>
<path d="M67.8496 125.755V130.896" stroke="#250E4F" stroke-width="0.3923" stroke-miterlimit="10"/>
<path d="M69.8827 125.755V130.896" stroke="#250E4F" stroke-width="0.3923" stroke-miterlimit="10"/>
<path d="M57.1166 125.755L57.7312 159.245" stroke="#250E4F" stroke-width="0.5" stroke-miterlimit="10"/>
<path d="M54.2797 125.755L54.5161 135.849C54.5634 137.028 54.9889 138.208 55.7927 139.104L57.4003 140.896" stroke="#250E4F" stroke-width="0.5" stroke-miterlimit="10"/>
<path d="M66.3365 150.377L49.7878 152.642" stroke="#250E4F" stroke-width="0.5" stroke-miterlimit="10"/>
<path d="M51.1591 155.142H63.2159" stroke="#250E4F" stroke-width="0.5" stroke-miterlimit="10"/>
<path d="M70.2609 131.179C70.2609 131.179 69.5043 143.679 80.9939 144.387" stroke="#250E4F" stroke-width="0.5" stroke-miterlimit="10"/>
<path d="M33.9957 101.368L34.2794 123.019C34.2794 123.443 37.1163 123.821 40.6625 123.962C44.1613 124.104 47.0455 123.868 47.0928 123.443L48.8895 101.84L33.9957 101.368Z" fill="#FCFCFC"/>
<path d="M46.9037 105.849C45.9108 105.613 46.1472 105.991 44.5869 105.66C43.0739 105.283 42.6011 105.849 41.419 105.613C40.2843 105.377 39.575 105.849 38.4403 105.708C37.3528 105.566 36.7854 105.943 35.9343 105.708C35.4615 105.566 35.036 105.566 34.7996 105.613L35.036 121.887C35.036 122.264 37.5419 122.594 40.6625 122.736C43.7831 122.83 46.2891 122.641 46.3364 122.311L47.6602 106.038C47.4238 105.943 47.1401 105.896 46.9037 105.849Z" fill="#FCD75D"/>
<path d="M44.6342 105.613C43.1211 105.236 42.6483 105.802 41.4663 105.566C40.3315 105.33 39.6223 105.802 38.4875 105.66C37.4 105.519 36.8326 105.896 35.9816 105.66C35.5087 105.519 35.0832 105.519 34.8468 105.566L34.8941 109.198C35.0832 109.198 35.3669 109.198 35.9343 109.245C36.8799 109.387 37.5892 109.717 38.8658 109.528C40.1424 109.34 41.1353 109.67 41.7972 109.717C42.5065 109.764 43.2157 109.575 43.9722 109.623C44.7287 109.717 45.2961 109.859 45.8635 109.859C46.1945 109.859 46.8564 109.811 47.3765 109.811L47.7075 105.943C47.4238 105.943 47.1874 105.896 46.9037 105.849C45.9108 105.613 46.1472 105.991 44.6342 105.613Z" fill="#FCE290"/>
<path d="M45.1543 113.774C45.1543 114.198 44.776 114.576 44.3032 114.576C43.8776 114.576 43.4994 114.198 43.4994 113.726C43.4994 113.302 43.8776 112.925 44.3505 112.925C44.8233 112.925 45.1543 113.302 45.1543 113.774Z" fill="#FCFCFC"/>
<path d="M43.0265 115.519C43.0265 115.66 42.8847 115.755 42.7901 115.755C42.6483 115.755 42.5537 115.613 42.5537 115.519C42.5537 115.377 42.6956 115.283 42.7901 115.283C42.8847 115.283 43.0265 115.377 43.0265 115.519Z" fill="#FCFCFC"/>
<path d="M40.6152 117.264C40.6152 117.925 40.0478 118.396 39.3859 118.396C38.7239 118.396 38.2511 117.83 38.2511 117.17C38.2511 116.51 38.8185 116.038 39.4804 116.038C40.1424 116.038 40.6152 116.604 40.6152 117.264Z" fill="#FCFCFC"/>
<path d="M42.1756 119.811C42.1756 120.047 41.9864 120.236 41.7028 120.236C41.4663 120.236 41.2772 120.047 41.2772 119.764C41.2772 119.528 41.4663 119.34 41.75 119.34C41.9865 119.387 42.1756 119.575 42.1756 119.811Z" fill="#FCFCFC"/>
<path d="M68.8898 114.481L51.6792 112.076C51.6792 112.076 47.3293 108.868 45.5798 108.538C43.8304 108.208 40.8989 108.019 40.8989 108.538C40.8989 109.057 45.0125 109.859 45.0125 109.859C45.0125 109.859 40.0951 109.528 40.1897 110.377C40.237 111.226 44.6342 111.321 44.6342 111.321C44.6342 111.321 40.5207 111.51 40.568 112.028C40.6152 112.547 44.4451 112.689 44.4451 112.689C44.4451 112.689 41.3245 112.877 41.3717 113.396C41.419 113.915 44.0195 113.726 44.0195 113.726C44.0195 113.726 47.7548 116.51 50.6863 115.472L68.0387 123.679L68.8898 114.481Z" fill="#FF6B6B"/>
<path d="M71.4902 127.123L74.7526 127.5C75.1309 122.547 74.5162 117.311 74.1853 115.095C74.0907 114.434 73.6179 113.915 72.9559 113.821L67.2821 112.783C67.5658 120.047 66.762 126.321 66.3365 129.01C66.1946 129.764 66.7147 130.519 67.4712 130.661L72.5777 131.745C73.3342 131.934 74.138 131.415 74.2798 130.661C74.4217 129.953 74.5162 129.245 74.6108 128.491L71.4902 127.123Z" fill="#95BBDB"/>
<path d="M52.6248 44.0095C52.6248 44.0095 54.1378 51.8397 62.6012 52.1699C62.6012 52.1699 62.6485 49.4812 64.6816 49.9057C66.7148 50.3303 66.762 54.8586 64.3034 55.4718L65.6746 63.6793C65.7691 64.2454 66.1474 64.7171 66.6675 64.9529L67.6131 65.3303C67.6131 65.3303 63.6887 67.6416 59.1497 67.6416C57.022 67.6416 55.9818 66.5095 55.9818 66.5095L56.7383 65.8491L56.3127 62.4529C56.3127 62.4529 52.8139 62.9246 51.0644 59.8114C49.8351 57.5944 50.3552 53.7737 49.6933 51.5095C49.4569 50.7076 49.5041 49.8586 49.7406 49.1039C50.3079 47.4057 51.3009 44.7642 52.6248 44.0095Z" fill="#FF6B6B"/>
<path d="M56.3601 62.4529C58.866 62.3585 61.2774 59.7642 62.3176 57.6887C62.3176 57.6887 61.9867 62.5472 56.5492 64.0566L56.3601 62.4529Z" fill="#CF4040"/>
<path d="M63.7833 53.3962C63.7833 53.3962 63.4523 50.7547 64.6343 50.8019C65.8164 50.8491 65.58 52.8774 65.4854 53.0189" stroke="#250E4F" stroke-width="0.75" stroke-miterlimit="10"/>
<path d="M55.3671 43.3491C55.3671 43.3491 56.3127 47.5944 62.3648 50.0472" stroke="#4467DB" stroke-width="0.3923" stroke-miterlimit="10"/>
<path d="M58.866 44.6699C58.866 44.6699 60.6154 47.2643 63.7833 48.4907" stroke="#4467DB" stroke-width="0.3923" stroke-miterlimit="10"/>
<path d="M50.3552 44.1982C50.3552 44.1982 45.7216 46.5567 46.1944 50.802" stroke="#4467DB" stroke-width="0.3923" stroke-miterlimit="10"/>
<path d="M48.7004 46.6038C48.7004 46.6038 47.1401 49.1038 47.7547 52.1226" stroke="#4467DB" stroke-width="0.3923" stroke-miterlimit="10"/>
<path d="M53.9486 52.0756C54.3269 51.4152 55.6035 50.9435 56.6437 51.4624" stroke="#250E4F" stroke-width="0.75" stroke-miterlimit="10"/>
<path d="M52.152 51.4624L52.5775 53.8209C52.5775 53.8209 51.3954 54.3398 51.49 54.7171C51.5846 55.0945 52.1992 55.1416 52.9085 54.953" stroke="#250E4F" stroke-width="0.75" stroke-miterlimit="10"/>
<path d="M52.1993 56.5568L57.8259 54.8586C57.8259 54.8586 58.1569 58.7737 55.8873 59.3398C53.9488 59.8586 52.1993 56.5568 52.1993 56.5568Z" fill="white"/>
<path d="M59.4806 53.6794C59.6697 54.1511 59.3387 54.7171 58.724 55.0001C58.1094 55.2831 57.4474 55.0945 57.2583 54.6699C57.0692 54.1982 57.4001 53.6322 58.0148 53.3492C58.6295 53.0662 59.2914 53.2548 59.4806 53.6794Z" fill="#FF5454"/>
<path d="M51.5846 52.3586C51.2063 51.934 50.2607 52.0284 49.9297 52.3586" stroke="#250E4F" stroke-width="0.75" stroke-miterlimit="10"/>
<path d="M53.334 49.4812C53.334 49.4812 55.4144 49.6227 56.6437 49.6227" stroke="#250E4F" stroke-width="2" stroke-miterlimit="10"/>
<path d="M50.4498 49.8586L49.646 50.9907" stroke="#250E4F" stroke-width="2" stroke-miterlimit="10"/>
<path d="M71.6793 97.6416L72.7195 119.293C72.7195 119.717 75.6037 120 79.1026 120C82.6014 120 85.4856 119.67 85.4856 119.293L86.5258 97.6416H71.6793Z" fill="#FCFCFC"/>
<path d="M84.7765 101.651C83.7836 101.462 84.02 101.84 82.4597 101.51C80.9467 101.179 80.4739 101.745 79.2918 101.557C78.1571 101.368 77.4478 101.84 76.3131 101.745C75.1783 101.604 74.6582 102.028 73.8071 101.84C73.3343 101.745 72.9088 101.745 72.6724 101.793L73.4289 118.066C73.4289 118.443 75.9821 118.727 79.0554 118.727C82.176 118.727 84.682 118.443 84.682 118.066L85.4858 101.745C85.2966 101.745 85.013 101.698 84.7765 101.651Z" fill="#FCD75D"/>
<path d="M82.4597 101.557C80.9467 101.226 80.4739 101.793 79.2918 101.604C78.1571 101.415 77.4478 101.887 76.3131 101.793C75.1783 101.651 74.6582 102.076 73.8071 101.887C73.3343 101.793 72.9088 101.793 72.6724 101.84L72.8615 105.472C73.0506 105.472 73.3343 105.425 73.9017 105.519C74.8473 105.613 75.5566 105.896 76.8332 105.708C78.1098 105.472 79.1027 105.755 79.7647 105.802C80.4739 105.802 81.1831 105.613 81.9396 105.66C82.6961 105.708 83.2635 105.849 83.8309 105.802C84.1619 105.802 84.8238 105.755 85.2966 105.708L85.4858 101.84C85.2021 101.84 84.9184 101.793 84.682 101.745C83.7836 101.509 84.02 101.84 82.4597 101.557Z" fill="#FCE290"/>
<path d="M83.2635 109.67C83.2635 110.094 82.8852 110.472 82.4597 110.472C82.0341 110.472 81.6559 110.094 81.6559 109.67C81.6559 109.245 82.0341 108.868 82.4597 108.868C82.8852 108.868 83.2635 109.198 83.2635 109.67Z" fill="#FCFCFC"/>
<path d="M81.1831 111.462C81.1831 111.604 81.0885 111.698 80.9467 111.698C80.8048 111.698 80.7103 111.604 80.7103 111.462C80.7103 111.321 80.8048 111.227 80.9467 111.227C81.0885 111.227 81.1831 111.321 81.1831 111.462Z" fill="#FCFCFC"/>
<path d="M78.8662 113.302C78.8662 113.962 78.3461 114.481 77.6841 114.481C77.0222 114.481 76.5021 113.962 76.5021 113.302C76.5021 112.642 77.0222 112.123 77.6841 112.123C78.3461 112.123 78.8662 112.642 78.8662 113.302Z" fill="#FCFCFC"/>
<path d="M80.5211 115.802C80.5211 116.038 80.332 116.227 80.0956 116.227C79.8592 116.227 79.67 116.038 79.67 115.802C79.67 115.566 79.8592 115.377 80.0956 115.377C80.332 115.377 80.5211 115.566 80.5211 115.802Z" fill="#FCFCFC"/>
<path d="M163.123 83.1132L139.34 82.7358L135.321 104.387L90.5449 106.415C90.5449 106.415 88.039 103.679 86.3841 103.255L86.3368 103.726C86.2896 104.434 85.5803 104.953 84.8711 104.764C84.2092 104.623 83.3581 104.434 82.176 104.34C78.6772 104.057 78.3462 104.811 78.3462 105.236C78.3462 106.321 82.5543 105.613 84.5874 107.075C84.5874 107.075 81.9869 106.745 80.1429 107.075C78.2516 107.406 77.4951 107.783 77.4951 108.349C77.4951 108.868 79.15 109.057 80.5684 108.915C81.9869 108.726 84.7293 109.245 84.7293 109.245C84.7293 109.245 82.0342 109.387 80.6157 109.858C79.1973 110.283 78.5826 110.755 78.6299 111.274C78.6299 111.792 80.0011 111.509 81.1358 111.368C82.3179 111.226 83.8309 111.226 84.4928 111.415C84.4928 111.415 81.4195 112.123 80.8049 112.217C80.1902 112.358 79.15 112.358 79.0554 113.066C79.0081 113.774 80.8521 113.774 81.9396 113.774C83.0271 113.726 89.4102 113.868 91.3014 113.066C91.3014 113.066 118.678 123.396 132.91 125.377C147.141 127.358 156.503 120.849 158.82 110.236C161.515 98.2547 163.123 83.1132 163.123 83.1132Z" fill="#FF9C9C"/>
<path d="M152.484 116.179C152.815 116.981 151.869 118.16 150.309 118.821C148.749 119.434 147.236 119.292 146.905 118.491C146.574 117.689 147.52 116.509 149.08 115.849C150.64 115.189 152.153 115.33 152.484 116.179Z" fill="#FFDBDB"/>
<path d="M135.273 104.387L143.879 104.292" stroke="#CF4040" stroke-width="0.75" stroke-miterlimit="10"/>
<path d="M138.725 85.7547C142.933 86.0849 154.801 87.3585 162.082 91.2736C162.744 86.4623 163.075 83.1132 163.075 83.1132L139.293 82.7358L138.725 85.7547Z" fill="#E67171"/>
<path d="M80.0483 27.6415C82.4769 27.6415 84.4456 25.6775 84.4456 23.2547C84.4456 20.832 82.4769 18.8679 80.0483 18.8679C77.6198 18.8679 75.6511 20.832 75.6511 23.2547C75.6511 25.6775 77.6198 27.6415 80.0483 27.6415Z" fill="#FF6B6B"/>
<path d="M145.68 30.1805C147.921 29.248 148.981 26.6793 148.046 24.4431C147.111 22.2069 144.536 21.15 142.295 22.0825C140.053 23.015 138.994 25.5838 139.929 27.82C140.863 30.0562 143.438 31.1131 145.68 30.1805Z" fill="#FF6B6B"/>
</svg>
